# Tiled2Unity generated file. Do not modify by hand.
# Wavefront file for 'FlyPowder_mesh_0032.obj'

# Vertices (Count = 304)
v -8 -5 0
v -9 -5 0
v -9 -4 0
v -8 -4 0
v -9 -5 0
v -10 -5 0
v -10 -4 0
v -9 -4 0
v -10 -5 0
v -11 -5 0
v -11 -4 0
v -10 -4 0
v -11 -5 0
v -12 -5 0
v -12 -4 0
v -11 -4 0
v -12 -5 0
v -13 -5 0
v -13 -4 0
v -12 -4 0
v -13 -5 0
v -14 -5 0
v -14 -4 0
v -13 -4 0
v -14 -5 0
v -15 -5 0
v -15 -4 0
v -14 -4 0
v -15 -5 0
v -16 -5 0
v -16 -4 0
v -15 -4 0
v -7 -6 0
v -8 -6 0
v -8 -5 0
v -7 -5 0
v -8 -6 0
v -9 -6 0
v -9 -5 0
v -8 -5 0
v -9 -6 0
v -10 -6 0
v -10 -5 0
v -9 -5 0
v -10 -6 0
v -11 -6 0
v -11 -5 0
v -10 -5 0
v -11 -6 0
v -12 -6 0
v -12 -5 0
v -11 -5 0
v -7 -7 0
v -8 -7 0
v -8 -6 0
v -7 -6 0
v -7 -8 0
v -8 -8 0
v -8 -7 0
v -7 -7 0
v -7 -9 0
v -8 -9 0
v -8 -8 0
v -7 -8 0
v -12 -9 0
v -13 -9 0
v -13 -8 0
v -12 -8 0
v -13 -9 0
v -14 -9 0
v -14 -8 0
v -13 -8 0
v -14 -9 0
v -15 -9 0
v -15 -8 0
v -14 -8 0
v -15 -9 0
v -16 -9 0
v -16 -8 0
v -15 -8 0
v 0 -10 0
v -1 -10 0
v -1 -9 0
v 0 -9 0
v -7 -10 0
v -8 -10 0
v -8 -9 0
v -7 -9 0
v -12 -10 0
v -13 -10 0
v -13 -9 0
v -12 -9 0
v -13 -10 0
v -14 -10 0
v -14 -9 0
v -13 -9 0
v -14 -10 0
v -15 -10 0
v -15 -9 0
v -14 -9 0
v -15 -10 0
v -16 -10 0
v -16 -9 0
v -15 -9 0
v 0 -11 0
v -1 -11 0
v -1 -10 0
v 0 -10 0
v -1 -11 0
v -2 -11 0
v -2 -10 0
v -1 -10 0
v -2 -11 0
v -3 -11 0
v -3 -10 0
v -2 -10 0
v -3 -11 0
v -4 -11 0
v -4 -10 0
v -3 -10 0
v -4 -11 0
v -5 -11 0
v -5 -10 0
v -4 -10 0
v -5 -11 0
v -6 -11 0
v -6 -10 0
v -5 -10 0
v -6 -11 0
v -7 -11 0
v -7 -10 0
v -6 -10 0
v -7 -11 0
v -8 -11 0
v -8 -10 0
v -7 -10 0
v -12 -11 0
v -13 -11 0
v -13 -10 0
v -12 -10 0
v -13 -11 0
v -14 -11 0
v -14 -10 0
v -13 -10 0
v -14 -11 0
v -15 -11 0
v -15 -10 0
v -14 -10 0
v -15 -11 0
v -16 -11 0
v -16 -10 0
v -15 -10 0
v -12 -12 0
v -13 -12 0
v -13 -11 0
v -12 -11 0
v -13 -12 0
v -14 -12 0
v -14 -11 0
v -13 -11 0
v -14 -12 0
v -15 -12 0
v -15 -11 0
v -14 -11 0
v -15 -12 0
v -16 -12 0
v -16 -11 0
v -15 -11 0
v -12 -13 0
v -13 -13 0
v -13 -12 0
v -12 -12 0
v -13 -13 0
v -14 -13 0
v -14 -12 0
v -13 -12 0
v -14 -13 0
v -15 -13 0
v -15 -12 0
v -14 -12 0
v -15 -13 0
v -16 -13 0
v -16 -12 0
v -15 -12 0
v -12 -14 0
v -13 -14 0
v -13 -13 0
v -12 -13 0
v -13 -14 0
v -14 -14 0
v -14 -13 0
v -13 -13 0
v -14 -14 0
v -15 -14 0
v -15 -13 0
v -14 -13 0
v -15 -14 0
v -16 -14 0
v -16 -13 0
v -15 -13 0
v -3 -15 0
v -4 -15 0
v -4 -14 0
v -3 -14 0
v -4 -15 0
v -5 -15 0
v -5 -14 0
v -4 -14 0
v -5 -15 0
v -6 -15 0
v -6 -14 0
v -5 -14 0
v -6 -15 0
v -7 -15 0
v -7 -14 0
v -6 -14 0
v -7 -15 0
v -8 -15 0
v -8 -14 0
v -7 -14 0
v -8 -15 0
v -9 -15 0
v -9 -14 0
v -8 -14 0
v -9 -15 0
v -10 -15 0
v -10 -14 0
v -9 -14 0
v -10 -15 0
v -11 -15 0
v -11 -14 0
v -10 -14 0
v -11 -15 0
v -12 -15 0
v -12 -14 0
v -11 -14 0
v -12 -15 0
v -13 -15 0
v -13 -14 0
v -12 -14 0
v -13 -15 0
v -14 -15 0
v -14 -14 0
v -13 -14 0
v -14 -15 0
v -15 -15 0
v -15 -14 0
v -14 -14 0
v -15 -15 0
v -16 -15 0
v -16 -14 0
v -15 -14 0
v -3 -16 0
v -4 -16 0
v -4 -15 0
v -3 -15 0
v -4 -16 0
v -5 -16 0
v -5 -15 0
v -4 -15 0
v -5 -16 0
v -6 -16 0
v -6 -15 0
v -5 -15 0
v -6 -16 0
v -7 -16 0
v -7 -15 0
v -6 -15 0
v -7 -16 0
v -8 -16 0
v -8 -15 0
v -7 -15 0
v -8 -16 0
v -9 -16 0
v -9 -15 0
v -8 -15 0
v -9 -16 0
v -10 -16 0
v -10 -15 0
v -9 -15 0
v -10 -16 0
v -11 -16 0
v -11 -15 0
v -10 -15 0
v -11 -16 0
v -12 -16 0
v -12 -15 0
v -11 -15 0
v -12 -16 0
v -13 -16 0
v -13 -15 0
v -12 -15 0
v -13 -16 0
v -14 -16 0
v -14 -15 0
v -13 -15 0
v -14 -16 0
v -15 -16 0
v -15 -15 0
v -14 -15 0
v -15 -16 0
v -16 -16 0
v -16 -15 0
v -15 -15 0

# Texture cooridinates (Count = 77)
vt 0.203125 0.9223301
vt 0.25 0.9223301
vt 0.25 0.9805825
vt 0.203125 0.9805825
vt 0.296875 0.9223301
vt 0.296875 0.9805825
vt 0.34375 0.9223301
vt 0.34375 0.9805825
vt 0.4375 0.5728155
vt 0.484375 0.5728155
vt 0.484375 0.631068
vt 0.4375 0.631068
vt 0.53125 0.5728155
vt 0.53125 0.631068
vt 0.0625 0.8640777
vt 0.109375 0.8640777
vt 0.109375 0.9223301
vt 0.0625 0.9223301
vt 0.203125 0.5728155
vt 0.25 0.5728155
vt 0.25 0.631068
vt 0.203125 0.631068
vt 0.296875 0.5728155
vt 0.296875 0.631068
vt 0.015625 0.8640777
vt 0.015625 0.9223301
vt 0.203125 0.8640777
vt 0.25 0.8640777
vt 0.296875 0.8640777
vt 0.34375 0.8640777
vt 0.390625 0.8640777
vt 0.390625 0.9223301
vt 0.015625 0.6893204
vt 0.0625 0.6893204
vt 0.0625 0.7475728
vt 0.015625 0.7475728
vt 0.015625 0.4563107
vt 0.0625 0.4563107
vt 0.0625 0.5145631
vt 0.015625 0.5145631
vt 0.203125 0.3398058
vt 0.25 0.3398058
vt 0.25 0.3980582
vt 0.203125 0.3980582
vt 0.34375 0.6893204
vt 0.390625 0.6893204
vt 0.390625 0.7475728
vt 0.34375 0.7475728
vt 0.4375 0.9223301
vt 0.4375 0.9805825
vt 0.390625 0.9805825
vt 0.015625 0.3980582
vt 0.0625 0.3980582
vt 0.296875 0.6893204
vt 0.25 0.6893204
vt 0.109375 0.9805825
vt 0.0625 0.9805825
vt 0.15625 0.9223301
vt 0.15625 0.9805825
vt 0.4375 0.8640777
vt 0.484375 0.8640777
vt 0.484375 0.9223301
vt 0.53125 0.8640777
vt 0.53125 0.9223301
vt 0.578125 0.8640777
vt 0.578125 0.9223301
vt 0.671875 0.5728155
vt 0.71875 0.5728155
vt 0.71875 0.631068
vt 0.671875 0.631068
vt 0.015625 0.9805825
vt 0.34375 0.631068
vt 0.015625 0.3398058
vt 0.0625 0.3398058
vt 0.109375 0.4563107
vt 0.109375 0.5145631
vt 0.109375 0.3980582

# Normal
vn 0 0 -1

# Mesh description
g FlyPowder_mesh_0032

# Faces
f 1/1/1 2/2/1 3/3/1 4/4/1
f 5/2/1 6/5/1 7/6/1 8/3/1
f 9/5/1 10/7/1 11/8/1 12/6/1
f 13/9/1 14/10/1 15/11/1 16/12/1
f 17/10/1 18/13/1 19/14/1 20/11/1
f 21/15/1 22/16/1 23/17/1 24/18/1
f 25/19/1 26/20/1 27/21/1 28/22/1
f 29/20/1 30/23/1 31/24/1 32/21/1
f 33/25/1 34/15/1 35/18/1 36/26/1
f 37/27/1 38/28/1 39/2/1 40/1/1
f 41/28/1 42/29/1 43/5/1 44/2/1
f 45/29/1 46/30/1 47/7/1 48/5/1
f 49/30/1 50/31/1 51/32/1 52/7/1
f 53/33/1 54/34/1 55/35/1 56/36/1
f 57/33/1 58/34/1 59/35/1 60/36/1
f 61/33/1 62/34/1 63/35/1 64/36/1
f 65/37/1 66/38/1 67/39/1 68/40/1
f 69/41/1 70/42/1 71/43/1 72/44/1
f 73/45/1 74/46/1 75/47/1 76/48/1
f 77/41/1 78/42/1 79/43/1 80/44/1
f 81/32/1 82/49/1 83/50/1 84/51/1
f 85/33/1 86/34/1 87/35/1 88/36/1
f 89/52/1 90/53/1 91/38/1 92/37/1
f 93/21/1 94/24/1 95/54/1 96/55/1
f 97/18/1 98/17/1 99/56/1 100/57/1
f 101/17/1 102/58/1 103/59/1 104/56/1
f 105/31/1 106/60/1 107/49/1 108/32/1
f 109/60/1 110/61/1 111/62/1 112/49/1
f 113/61/1 114/63/1 115/64/1 116/62/1
f 117/63/1 118/65/1 119/66/1 120/64/1
f 121/63/1 122/65/1 123/66/1 124/64/1
f 125/63/1 126/65/1 127/66/1 128/64/1
f 129/63/1 130/65/1 131/66/1 132/64/1
f 133/67/1 134/68/1 135/69/1 136/70/1
f 137/52/1 138/53/1 139/38/1 140/37/1
f 141/21/1 142/24/1 143/54/1 144/55/1
f 145/18/1 146/17/1 147/56/1 148/57/1
f 149/26/1 150/18/1 151/57/1 152/71/1
f 153/52/1 154/53/1 155/38/1 156/37/1
f 157/21/1 158/24/1 159/54/1 160/55/1
f 161/24/1 162/72/1 163/45/1 164/54/1
f 165/26/1 166/18/1 167/57/1 168/71/1
f 169/52/1 170/53/1 171/38/1 172/37/1
f 173/18/1 174/17/1 175/56/1 176/57/1
f 177/17/1 178/58/1 179/59/1 180/56/1
f 181/26/1 182/18/1 183/57/1 184/71/1
f 185/73/1 186/74/1 187/53/1 188/52/1
f 189/21/1 190/24/1 191/54/1 192/55/1
f 193/24/1 194/72/1 195/45/1 196/54/1
f 197/26/1 198/18/1 199/57/1 200/71/1
f 201/37/1 202/38/1 203/39/1 204/40/1
f 205/38/1 206/75/1 207/76/1 208/39/1
f 209/38/1 210/75/1 211/76/1 212/39/1
f 213/38/1 214/75/1 215/76/1 216/39/1
f 217/38/1 218/75/1 219/76/1 220/39/1
f 221/38/1 222/75/1 223/76/1 224/39/1
f 225/38/1 226/75/1 227/76/1 228/39/1
f 229/38/1 230/75/1 231/76/1 232/39/1
f 233/38/1 234/75/1 235/76/1 236/39/1
f 237/53/1 238/77/1 239/75/1 240/38/1
f 241/53/1 242/77/1 243/75/1 244/38/1
f 245/53/1 246/77/1 247/75/1 248/38/1
f 249/26/1 250/18/1 251/57/1 252/71/1
f 253/52/1 254/53/1 255/38/1 256/37/1
f 257/53/1 258/77/1 259/75/1 260/38/1
f 261/53/1 262/77/1 263/75/1 264/38/1
f 265/21/1 266/24/1 267/54/1 268/55/1
f 269/24/1 270/72/1 271/45/1 272/54/1
f 273/18/1 274/17/1 275/56/1 276/57/1
f 277/17/1 278/58/1 279/59/1 280/56/1
f 281/53/1 282/77/1 283/75/1 284/38/1
f 285/21/1 286/24/1 287/54/1 288/55/1
f 289/24/1 290/72/1 291/45/1 292/54/1
f 293/21/1 294/24/1 295/54/1 296/55/1
f 297/24/1 298/72/1 299/45/1 300/54/1
f 301/26/1 302/18/1 303/57/1 304/71/1

