# Tiled2Unity generated file. Do not modify by hand.
# Wavefront file for 'FlyPowder_mesh_0003.obj'

# Vertices (Count = 696)
v -9 -2 0
v -10 -2 0
v -10 -1 0
v -9 -1 0
v -9 -3 0
v -10 -3 0
v -10 -2 0
v -9 -2 0
v 0 -4 0
v -1 -4 0
v -1 -3 0
v 0 -3 0
v -1 -4 0
v -2 -4 0
v -2 -3 0
v -1 -3 0
v -2 -4 0
v -3 -4 0
v -3 -3 0
v -2 -3 0
v -3 -4 0
v -4 -4 0
v -4 -3 0
v -3 -3 0
v -4 -4 0
v -5 -4 0
v -5 -3 0
v -4 -3 0
v -5 -4 0
v -6 -4 0
v -6 -3 0
v -5 -3 0
v -6 -4 0
v -7 -4 0
v -7 -3 0
v -6 -3 0
v -7 -4 0
v -8 -4 0
v -8 -3 0
v -7 -3 0
v -9 -4 0
v -10 -4 0
v -10 -3 0
v -9 -3 0
v 0 -5 0
v -1 -5 0
v -1 -4 0
v 0 -4 0
v -1 -5 0
v -2 -5 0
v -2 -4 0
v -1 -4 0
v -2 -5 0
v -3 -5 0
v -3 -4 0
v -2 -4 0
v -3 -5 0
v -4 -5 0
v -4 -4 0
v -3 -4 0
v -4 -5 0
v -5 -5 0
v -5 -4 0
v -4 -4 0
v -5 -5 0
v -6 -5 0
v -6 -4 0
v -5 -4 0
v -6 -5 0
v -7 -5 0
v -7 -4 0
v -6 -4 0
v -7 -5 0
v -8 -5 0
v -8 -4 0
v -7 -4 0
v -9 -5 0
v -10 -5 0
v -10 -4 0
v -9 -4 0
v 0 -6 0
v -1 -6 0
v -1 -5 0
v 0 -5 0
v -1 -6 0
v -2 -6 0
v -2 -5 0
v -1 -5 0
v -2 -6 0
v -3 -6 0
v -3 -5 0
v -2 -5 0
v -3 -6 0
v -4 -6 0
v -4 -5 0
v -3 -5 0
v -4 -6 0
v -5 -6 0
v -5 -5 0
v -4 -5 0
v -5 -6 0
v -6 -6 0
v -6 -5 0
v -5 -5 0
v -6 -6 0
v -7 -6 0
v -7 -5 0
v -6 -5 0
v -7 -6 0
v -8 -6 0
v -8 -5 0
v -7 -5 0
v -9 -6 0
v -10 -6 0
v -10 -5 0
v -9 -5 0
v 0 -7 0
v -1 -7 0
v -1 -6 0
v 0 -6 0
v -1 -7 0
v -2 -7 0
v -2 -6 0
v -1 -6 0
v -2 -7 0
v -3 -7 0
v -3 -6 0
v -2 -6 0
v -3 -7 0
v -4 -7 0
v -4 -6 0
v -3 -6 0
v -4 -7 0
v -5 -7 0
v -5 -6 0
v -4 -6 0
v -5 -7 0
v -6 -7 0
v -6 -6 0
v -5 -6 0
v -6 -7 0
v -7 -7 0
v -7 -6 0
v -6 -6 0
v -7 -7 0
v -8 -7 0
v -8 -6 0
v -7 -6 0
v -9 -7 0
v -10 -7 0
v -10 -6 0
v -9 -6 0
v -14 -7 0
v -15 -7 0
v -15 -6 0
v -14 -6 0
v -15 -7 0
v -16 -7 0
v -16 -6 0
v -15 -6 0
v 0 -8 0
v -1 -8 0
v -1 -7 0
v 0 -7 0
v -1 -8 0
v -2 -8 0
v -2 -7 0
v -1 -7 0
v -2 -8 0
v -3 -8 0
v -3 -7 0
v -2 -7 0
v -3 -8 0
v -4 -8 0
v -4 -7 0
v -3 -7 0
v -4 -8 0
v -5 -8 0
v -5 -7 0
v -4 -7 0
v -5 -8 0
v -6 -8 0
v -6 -7 0
v -5 -7 0
v -6 -8 0
v -7 -8 0
v -7 -7 0
v -6 -7 0
v -7 -8 0
v -8 -8 0
v -8 -7 0
v -7 -7 0
v -9 -8 0
v -10 -8 0
v -10 -7 0
v -9 -7 0
v -11 -8 0
v -12 -8 0
v -12 -7 0
v -11 -7 0
v -12 -8 0
v -13 -8 0
v -13 -7 0
v -12 -7 0
v -13 -8 0
v -14 -8 0
v -14 -7 0
v -13 -7 0
v -14 -8 0
v -15 -8 0
v -15 -7 0
v -14 -7 0
v -15 -8 0
v -16 -8 0
v -16 -7 0
v -15 -7 0
v 0 -9 0
v -1 -9 0
v -1 -8 0
v 0 -8 0
v -1 -9 0
v -2 -9 0
v -2 -8 0
v -1 -8 0
v -2 -9 0
v -3 -9 0
v -3 -8 0
v -2 -8 0
v -3 -9 0
v -4 -9 0
v -4 -8 0
v -3 -8 0
v -4 -9 0
v -5 -9 0
v -5 -8 0
v -4 -8 0
v -5 -9 0
v -6 -9 0
v -6 -8 0
v -5 -8 0
v -6 -9 0
v -7 -9 0
v -7 -8 0
v -6 -8 0
v -7 -9 0
v -8 -9 0
v -8 -8 0
v -7 -8 0
v -9 -9 0
v -10 -9 0
v -10 -8 0
v -9 -8 0
v -11 -9 0
v -12 -9 0
v -12 -8 0
v -11 -8 0
v -12 -9 0
v -13 -9 0
v -13 -8 0
v -12 -8 0
v -13 -9 0
v -14 -9 0
v -14 -8 0
v -13 -8 0
v -14 -9 0
v -15 -9 0
v -15 -8 0
v -14 -8 0
v -15 -9 0
v -16 -9 0
v -16 -8 0
v -15 -8 0
v 0 -10 0
v -1 -10 0
v -1 -9 0
v 0 -9 0
v -1 -10 0
v -2 -10 0
v -2 -9 0
v -1 -9 0
v -2 -10 0
v -3 -10 0
v -3 -9 0
v -2 -9 0
v -3 -10 0
v -4 -10 0
v -4 -9 0
v -3 -9 0
v -4 -10 0
v -5 -10 0
v -5 -9 0
v -4 -9 0
v -5 -10 0
v -6 -10 0
v -6 -9 0
v -5 -9 0
v -6 -10 0
v -7 -10 0
v -7 -9 0
v -6 -9 0
v -7 -10 0
v -8 -10 0
v -8 -9 0
v -7 -9 0
v -9 -10 0
v -10 -10 0
v -10 -9 0
v -9 -9 0
v -11 -10 0
v -12 -10 0
v -12 -9 0
v -11 -9 0
v -12 -10 0
v -13 -10 0
v -13 -9 0
v -12 -9 0
v -13 -10 0
v -14 -10 0
v -14 -9 0
v -13 -9 0
v -14 -10 0
v -15 -10 0
v -15 -9 0
v -14 -9 0
v -15 -10 0
v -16 -10 0
v -16 -9 0
v -15 -9 0
v 0 -11 0
v -1 -11 0
v -1 -10 0
v 0 -10 0
v -1 -11 0
v -2 -11 0
v -2 -10 0
v -1 -10 0
v -2 -11 0
v -3 -11 0
v -3 -10 0
v -2 -10 0
v -3 -11 0
v -4 -11 0
v -4 -10 0
v -3 -10 0
v -4 -11 0
v -5 -11 0
v -5 -10 0
v -4 -10 0
v -5 -11 0
v -6 -11 0
v -6 -10 0
v -5 -10 0
v -6 -11 0
v -7 -11 0
v -7 -10 0
v -6 -10 0
v -7 -11 0
v -8 -11 0
v -8 -10 0
v -7 -10 0
v -11 -11 0
v -12 -11 0
v -12 -10 0
v -11 -10 0
v -12 -11 0
v -13 -11 0
v -13 -10 0
v -12 -10 0
v -13 -11 0
v -14 -11 0
v -14 -10 0
v -13 -10 0
v -14 -11 0
v -15 -11 0
v -15 -10 0
v -14 -10 0
v -15 -11 0
v -16 -11 0
v -16 -10 0
v -15 -10 0
v 0 -12 0
v -1 -12 0
v -1 -11 0
v 0 -11 0
v -1 -12 0
v -2 -12 0
v -2 -11 0
v -1 -11 0
v -2 -12 0
v -3 -12 0
v -3 -11 0
v -2 -11 0
v -3 -12 0
v -4 -12 0
v -4 -11 0
v -3 -11 0
v -4 -12 0
v -5 -12 0
v -5 -11 0
v -4 -11 0
v -5 -12 0
v -6 -12 0
v -6 -11 0
v -5 -11 0
v -6 -12 0
v -7 -12 0
v -7 -11 0
v -6 -11 0
v -7 -12 0
v -8 -12 0
v -8 -11 0
v -7 -11 0
v -8 -12 0
v -9 -12 0
v -9 -11 0
v -8 -11 0
v -9 -12 0
v -10 -12 0
v -10 -11 0
v -9 -11 0
v -10 -12 0
v -11 -12 0
v -11 -11 0
v -10 -11 0
v -11 -12 0
v -12 -12 0
v -12 -11 0
v -11 -11 0
v -12 -12 0
v -13 -12 0
v -13 -11 0
v -12 -11 0
v -13 -12 0
v -14 -12 0
v -14 -11 0
v -13 -11 0
v -14 -12 0
v -15 -12 0
v -15 -11 0
v -14 -11 0
v -15 -12 0
v -16 -12 0
v -16 -11 0
v -15 -11 0
v 0 -13 0
v -1 -13 0
v -1 -12 0
v 0 -12 0
v -1 -13 0
v -2 -13 0
v -2 -12 0
v -1 -12 0
v -2 -13 0
v -3 -13 0
v -3 -12 0
v -2 -12 0
v -3 -13 0
v -4 -13 0
v -4 -12 0
v -3 -12 0
v -4 -13 0
v -5 -13 0
v -5 -12 0
v -4 -12 0
v -5 -13 0
v -6 -13 0
v -6 -12 0
v -5 -12 0
v -6 -13 0
v -7 -13 0
v -7 -12 0
v -6 -12 0
v -7 -13 0
v -8 -13 0
v -8 -12 0
v -7 -12 0
v -8 -13 0
v -9 -13 0
v -9 -12 0
v -8 -12 0
v -9 -13 0
v -10 -13 0
v -10 -12 0
v -9 -12 0
v -10 -13 0
v -11 -13 0
v -11 -12 0
v -10 -12 0
v -11 -13 0
v -12 -13 0
v -12 -12 0
v -11 -12 0
v -12 -13 0
v -13 -13 0
v -13 -12 0
v -12 -12 0
v -13 -13 0
v -14 -13 0
v -14 -12 0
v -13 -12 0
v -14 -13 0
v -15 -13 0
v -15 -12 0
v -14 -12 0
v -15 -13 0
v -16 -13 0
v -16 -12 0
v -15 -12 0
v 0 -14 0
v -1 -14 0
v -1 -13 0
v 0 -13 0
v -1 -14 0
v -2 -14 0
v -2 -13 0
v -1 -13 0
v -2 -14 0
v -3 -14 0
v -3 -13 0
v -2 -13 0
v -3 -14 0
v -4 -14 0
v -4 -13 0
v -3 -13 0
v -4 -14 0
v -5 -14 0
v -5 -13 0
v -4 -13 0
v -5 -14 0
v -6 -14 0
v -6 -13 0
v -5 -13 0
v -6 -14 0
v -7 -14 0
v -7 -13 0
v -6 -13 0
v -7 -14 0
v -8 -14 0
v -8 -13 0
v -7 -13 0
v -8 -14 0
v -9 -14 0
v -9 -13 0
v -8 -13 0
v -9 -14 0
v -10 -14 0
v -10 -13 0
v -9 -13 0
v -10 -14 0
v -11 -14 0
v -11 -13 0
v -10 -13 0
v -11 -14 0
v -12 -14 0
v -12 -13 0
v -11 -13 0
v -12 -14 0
v -13 -14 0
v -13 -13 0
v -12 -13 0
v -13 -14 0
v -14 -14 0
v -14 -13 0
v -13 -13 0
v -14 -14 0
v -15 -14 0
v -15 -13 0
v -14 -13 0
v -15 -14 0
v -16 -14 0
v -16 -13 0
v -15 -13 0
v 0 -15 0
v -1 -15 0
v -1 -14 0
v 0 -14 0
v -1 -15 0
v -2 -15 0
v -2 -14 0
v -1 -14 0
v -2 -15 0
v -3 -15 0
v -3 -14 0
v -2 -14 0
v -3 -15 0
v -4 -15 0
v -4 -14 0
v -3 -14 0
v -4 -15 0
v -5 -15 0
v -5 -14 0
v -4 -14 0
v -5 -15 0
v -6 -15 0
v -6 -14 0
v -5 -14 0
v -6 -15 0
v -7 -15 0
v -7 -14 0
v -6 -14 0
v -7 -15 0
v -8 -15 0
v -8 -14 0
v -7 -14 0
v -8 -15 0
v -9 -15 0
v -9 -14 0
v -8 -14 0
v -9 -15 0
v -10 -15 0
v -10 -14 0
v -9 -14 0
v -10 -15 0
v -11 -15 0
v -11 -14 0
v -10 -14 0
v -11 -15 0
v -12 -15 0
v -12 -14 0
v -11 -14 0
v -12 -15 0
v -13 -15 0
v -13 -14 0
v -12 -14 0
v -13 -15 0
v -14 -15 0
v -14 -14 0
v -13 -14 0
v -14 -15 0
v -15 -15 0
v -15 -14 0
v -14 -14 0
v -15 -15 0
v -16 -15 0
v -16 -14 0
v -15 -14 0
v 0 -16 0
v -1 -16 0
v -1 -15 0
v 0 -15 0
v -1 -16 0
v -2 -16 0
v -2 -15 0
v -1 -15 0
v -2 -16 0
v -3 -16 0
v -3 -15 0
v -2 -15 0
v -3 -16 0
v -4 -16 0
v -4 -15 0
v -3 -15 0
v -4 -16 0
v -5 -16 0
v -5 -15 0
v -4 -15 0
v -5 -16 0
v -6 -16 0
v -6 -15 0
v -5 -15 0
v -6 -16 0
v -7 -16 0
v -7 -15 0
v -6 -15 0
v -7 -16 0
v -8 -16 0
v -8 -15 0
v -7 -15 0
v -8 -16 0
v -9 -16 0
v -9 -15 0
v -8 -15 0
v -10 -16 0
v -11 -16 0
v -11 -15 0
v -10 -15 0
v -11 -16 0
v -12 -16 0
v -12 -15 0
v -11 -15 0
v -12 -16 0
v -13 -16 0
v -13 -15 0
v -12 -15 0
v -13 -16 0
v -14 -16 0
v -14 -15 0
v -13 -15 0
v -14 -16 0
v -15 -16 0
v -15 -15 0
v -14 -15 0
v -15 -16 0
v -16 -16 0
v -16 -15 0
v -15 -15 0

# Texture cooridinates (Count = 44)
vt 0.0625 0.3980582
vt 0.109375 0.3980582
vt 0.109375 0.4563107
vt 0.0625 0.4563107
vt 0.34375 0.631068
vt 0.390625 0.631068
vt 0.390625 0.6893204
vt 0.34375 0.6893204
vt 0.296875 0.223301
vt 0.34375 0.223301
vt 0.34375 0.2815534
vt 0.296875 0.2815534
vt 0.484375 0.1650485
vt 0.53125 0.1650485
vt 0.53125 0.223301
vt 0.484375 0.223301
vt 0.109375 0.1650485
vt 0.15625 0.1650485
vt 0.15625 0.223301
vt 0.109375 0.223301
vt 0.390625 0.223301
vt 0.390625 0.2815534
vt 0.203125 0.1650485
vt 0.25 0.1650485
vt 0.25 0.223301
vt 0.203125 0.223301
vt 0.625 0.7475728
vt 0.671875 0.7475728
vt 0.671875 0.8058252
vt 0.625 0.8058252
vt 0.71875 0.7475728
vt 0.71875 0.8058252
vt 0.625 0.6893204
vt 0.671875 0.6893204
vt 0.71875 0.6893204
vt 0.203125 0.2815534
vt 0.25 0.2815534
vt 0.25 0.3398058
vt 0.203125 0.3398058
vt 0.296875 0.3398058
vt 0.15625 0.2815534
vt 0.15625 0.1067961
vt 0.203125 0.1067961
vt 0.109375 0.1067961

# Normal
vn 0 0 -1

# Mesh description
g FlyPowder_mesh_0003

# Faces
f 1/1/1 2/2/1 3/3/1 4/4/1
f 5/5/1 6/6/1 7/7/1 8/8/1
f 9/9/1 10/10/1 11/11/1 12/12/1
f 13/13/1 14/14/1 15/15/1 16/16/1
f 17/13/1 18/14/1 19/15/1 20/16/1
f 21/9/1 22/10/1 23/11/1 24/12/1
f 25/17/1 26/18/1 27/19/1 28/20/1
f 29/13/1 30/14/1 31/15/1 32/16/1
f 33/9/1 34/10/1 35/11/1 36/12/1
f 37/10/1 38/21/1 39/22/1 40/11/1
f 41/5/1 42/6/1 43/7/1 44/8/1
f 45/23/1 46/24/1 47/25/1 48/26/1
f 49/10/1 50/21/1 51/22/1 52/11/1
f 53/10/1 54/21/1 55/22/1 56/11/1
f 57/23/1 58/24/1 59/25/1 60/26/1
f 61/13/1 62/14/1 63/15/1 64/16/1
f 65/13/1 66/14/1 67/15/1 68/16/1
f 69/13/1 70/14/1 71/15/1 72/16/1
f 73/13/1 74/14/1 75/15/1 76/16/1
f 77/1/1 78/2/1 79/3/1 80/4/1
f 81/9/1 82/10/1 83/11/1 84/12/1
f 85/18/1 86/23/1 87/26/1 88/19/1
f 89/27/1 90/28/1 91/29/1 92/30/1
f 93/28/1 94/31/1 95/32/1 96/29/1
f 97/9/1 98/10/1 99/11/1 100/12/1
f 101/10/1 102/21/1 103/22/1 104/11/1
f 105/10/1 106/21/1 107/22/1 108/11/1
f 109/10/1 110/21/1 111/22/1 112/11/1
f 113/5/1 114/6/1 115/7/1 116/8/1
f 117/23/1 118/24/1 119/25/1 120/26/1
f 121/10/1 122/21/1 123/22/1 124/11/1
f 125/33/1 126/34/1 127/28/1 128/27/1
f 129/34/1 130/35/1 131/31/1 132/28/1
f 133/17/1 134/18/1 135/19/1 136/20/1
f 137/18/1 138/23/1 139/26/1 140/19/1
f 141/13/1 142/14/1 143/15/1 144/16/1
f 145/13/1 146/14/1 147/15/1 148/16/1
f 149/5/1 150/6/1 151/7/1 152/8/1
f 153/36/1 154/37/1 155/38/1 156/39/1
f 157/37/1 158/12/1 159/40/1 160/38/1
f 161/9/1 162/10/1 163/11/1 164/12/1
f 165/10/1 166/21/1 167/22/1 168/11/1
f 169/10/1 170/21/1 171/22/1 172/11/1
f 173/10/1 174/21/1 175/22/1 176/11/1
f 177/9/1 178/10/1 179/11/1 180/12/1
f 181/10/1 182/21/1 183/22/1 184/11/1
f 185/10/1 186/21/1 187/22/1 188/11/1
f 189/10/1 190/21/1 191/22/1 192/11/1
f 193/1/1 194/2/1 195/3/1 196/4/1
f 197/23/1 198/24/1 199/25/1 200/26/1
f 201/10/1 202/21/1 203/22/1 204/11/1
f 205/19/1 206/26/1 207/36/1 208/41/1
f 209/26/1 210/25/1 211/37/1 212/36/1
f 213/25/1 214/9/1 215/12/1 216/37/1
f 217/9/1 218/10/1 219/11/1 220/12/1
f 221/10/1 222/21/1 223/22/1 224/11/1
f 225/23/1 226/24/1 227/25/1 228/26/1
f 229/23/1 230/24/1 231/25/1 232/26/1
f 233/9/1 234/10/1 235/11/1 236/12/1
f 237/10/1 238/21/1 239/22/1 240/11/1
f 241/23/1 242/24/1 243/25/1 244/26/1
f 245/23/1 246/24/1 247/25/1 248/26/1
f 249/1/1 250/2/1 251/3/1 252/4/1
f 253/9/1 254/10/1 255/11/1 256/12/1
f 257/18/1 258/23/1 259/26/1 260/19/1
f 261/27/1 262/28/1 263/29/1 264/30/1
f 265/28/1 266/31/1 267/32/1 268/29/1
f 269/13/1 270/14/1 271/15/1 272/16/1
f 273/9/1 274/10/1 275/11/1 276/12/1
f 277/13/1 278/14/1 279/15/1 280/16/1
f 281/13/1 282/14/1 283/15/1 284/16/1
f 285/10/1 286/21/1 287/22/1 288/11/1
f 289/9/1 290/10/1 291/11/1 292/12/1
f 293/13/1 294/14/1 295/15/1 296/16/1
f 297/13/1 298/14/1 299/15/1 300/16/1
f 301/13/1 302/14/1 303/15/1 304/16/1
f 305/5/1 306/6/1 307/7/1 308/8/1
f 309/23/1 310/24/1 311/25/1 312/26/1
f 313/10/1 314/21/1 315/22/1 316/11/1
f 317/33/1 318/34/1 319/28/1 320/27/1
f 321/34/1 322/35/1 323/31/1 324/28/1
f 325/10/1 326/21/1 327/22/1 328/11/1
f 329/9/1 330/10/1 331/11/1 332/12/1
f 333/10/1 334/21/1 335/22/1 336/11/1
f 337/10/1 338/21/1 339/22/1 340/11/1
f 341/18/1 342/23/1 343/26/1 344/19/1
f 345/9/1 346/10/1 347/11/1 348/12/1
f 349/10/1 350/21/1 351/22/1 352/11/1
f 353/10/1 354/21/1 355/22/1 356/11/1
f 357/10/1 358/21/1 359/22/1 360/11/1
f 361/9/1 362/10/1 363/11/1 364/12/1
f 365/10/1 366/21/1 367/22/1 368/11/1
f 369/10/1 370/21/1 371/22/1 372/11/1
f 373/10/1 374/21/1 375/22/1 376/11/1
f 377/10/1 378/21/1 379/22/1 380/11/1
f 381/13/1 382/14/1 383/15/1 384/16/1
f 385/23/1 386/24/1 387/25/1 388/26/1
f 389/18/1 390/23/1 391/26/1 392/19/1
f 393/10/1 394/21/1 395/22/1 396/11/1
f 397/23/1 398/24/1 399/25/1 400/26/1
f 401/23/1 402/24/1 403/25/1 404/26/1
f 405/18/1 406/23/1 407/26/1 408/19/1
f 409/13/1 410/14/1 411/15/1 412/16/1
f 413/13/1 414/14/1 415/15/1 416/16/1
f 417/9/1 418/10/1 419/11/1 420/12/1
f 421/10/1 422/21/1 423/22/1 424/11/1
f 425/13/1 426/14/1 427/15/1 428/16/1
f 429/9/1 430/10/1 431/11/1 432/12/1
f 433/10/1 434/21/1 435/22/1 436/11/1
f 437/10/1 438/21/1 439/22/1 440/11/1
f 441/23/1 442/24/1 443/25/1 444/26/1
f 445/10/1 446/21/1 447/22/1 448/11/1
f 449/10/1 450/21/1 451/22/1 452/11/1
f 453/18/1 454/23/1 455/26/1 456/19/1
f 457/13/1 458/14/1 459/15/1 460/16/1
f 461/9/1 462/10/1 463/11/1 464/12/1
f 465/13/1 466/14/1 467/15/1 468/16/1
f 469/9/1 470/10/1 471/11/1 472/12/1
f 473/10/1 474/21/1 475/22/1 476/11/1
f 477/13/1 478/14/1 479/15/1 480/16/1
f 481/9/1 482/10/1 483/11/1 484/12/1
f 485/10/1 486/21/1 487/22/1 488/11/1
f 489/19/1 490/26/1 491/36/1 492/41/1
f 493/17/1 494/18/1 495/19/1 496/20/1
f 497/18/1 498/23/1 499/26/1 500/19/1
f 501/13/1 502/14/1 503/15/1 504/16/1
f 505/9/1 506/10/1 507/11/1 508/12/1
f 509/9/1 510/10/1 511/11/1 512/12/1
f 513/9/1 514/10/1 515/11/1 516/12/1
f 517/10/1 518/21/1 519/22/1 520/11/1
f 521/10/1 522/21/1 523/22/1 524/11/1
f 525/13/1 526/14/1 527/15/1 528/16/1
f 529/13/1 530/14/1 531/15/1 532/16/1
f 533/9/1 534/10/1 535/11/1 536/12/1
f 537/10/1 538/21/1 539/22/1 540/11/1
f 541/10/1 542/21/1 543/22/1 544/11/1
f 545/23/1 546/24/1 547/25/1 548/26/1
f 549/13/1 550/14/1 551/15/1 552/16/1
f 553/13/1 554/14/1 555/15/1 556/16/1
f 557/9/1 558/10/1 559/11/1 560/12/1
f 561/10/1 562/21/1 563/22/1 564/11/1
f 565/10/1 566/21/1 567/22/1 568/11/1
f 569/23/1 570/24/1 571/25/1 572/26/1
f 573/17/1 574/18/1 575/19/1 576/20/1
f 577/13/1 578/14/1 579/15/1 580/16/1
f 581/9/1 582/10/1 583/11/1 584/12/1
f 585/10/1 586/21/1 587/22/1 588/11/1
f 589/10/1 590/21/1 591/22/1 592/11/1
f 593/10/1 594/21/1 595/22/1 596/11/1
f 597/23/1 598/24/1 599/25/1 600/26/1
f 601/13/1 602/14/1 603/15/1 604/16/1
f 605/10/1 606/21/1 607/22/1 608/11/1
f 609/23/1 610/24/1 611/25/1 612/26/1
f 613/13/1 614/14/1 615/15/1 616/16/1
f 617/10/1 618/21/1 619/22/1 620/11/1
f 621/13/1 622/14/1 623/15/1 624/16/1
f 625/13/1 626/14/1 627/15/1 628/16/1
f 629/9/1 630/10/1 631/11/1 632/12/1
f 633/19/1 634/26/1 635/36/1 636/41/1
f 637/42/1 638/43/1 639/23/1 640/18/1
f 641/44/1 642/42/1 643/18/1 644/17/1
f 645/44/1 646/42/1 647/18/1 648/17/1
f 649/44/1 650/42/1 651/18/1 652/17/1
f 653/42/1 654/43/1 655/23/1 656/18/1
f 657/44/1 658/42/1 659/18/1 660/17/1
f 661/42/1 662/43/1 663/23/1 664/18/1
f 665/44/1 666/42/1 667/18/1 668/17/1
f 669/44/1 670/42/1 671/18/1 672/17/1
f 673/44/1 674/42/1 675/18/1 676/17/1
f 677/42/1 678/43/1 679/23/1 680/18/1
f 681/44/1 682/42/1 683/18/1 684/17/1
f 685/44/1 686/42/1 687/18/1 688/17/1
f 689/42/1 690/43/1 691/23/1 692/18/1
f 693/42/1 694/43/1 695/23/1 696/18/1

