# Tiled2Unity generated file. Do not modify by hand.
# Wavefront file for 'FlyPowder_mesh_0027.obj'

# Vertices (Count = 240)
v 0 -2 0
v -1 -2 0
v -1 -1 0
v 0 -1 0
v -1 -2 0
v -2 -2 0
v -2 -1 0
v -1 -1 0
v -2 -2 0
v -3 -2 0
v -3 -1 0
v -2 -1 0
v -3 -2 0
v -4 -2 0
v -4 -1 0
v -3 -1 0
v -4 -2 0
v -5 -2 0
v -5 -1 0
v -4 -1 0
v -5 -2 0
v -6 -2 0
v -6 -1 0
v -5 -1 0
v -6 -2 0
v -7 -2 0
v -7 -1 0
v -6 -1 0
v -7 -2 0
v -8 -2 0
v -8 -1 0
v -7 -1 0
v -8 -2 0
v -9 -2 0
v -9 -1 0
v -8 -1 0
v -9 -2 0
v -10 -2 0
v -10 -1 0
v -9 -1 0
v -10 -2 0
v -11 -2 0
v -11 -1 0
v -10 -1 0
v -11 -2 0
v -12 -2 0
v -12 -1 0
v -11 -1 0
v -12 -2 0
v -13 -2 0
v -13 -1 0
v -12 -1 0
v -13 -2 0
v -14 -2 0
v -14 -1 0
v -13 -1 0
v -14 -2 0
v -15 -2 0
v -15 -1 0
v -14 -1 0
v -15 -2 0
v -16 -2 0
v -16 -1 0
v -15 -1 0
v 0 -3 0
v -1 -3 0
v -1 -2 0
v 0 -2 0
v -1 -3 0
v -2 -3 0
v -2 -2 0
v -1 -2 0
v -2 -3 0
v -3 -3 0
v -3 -2 0
v -2 -2 0
v -3 -3 0
v -4 -3 0
v -4 -2 0
v -3 -2 0
v -4 -3 0
v -5 -3 0
v -5 -2 0
v -4 -2 0
v -5 -3 0
v -6 -3 0
v -6 -2 0
v -5 -2 0
v -6 -3 0
v -7 -3 0
v -7 -2 0
v -6 -2 0
v -7 -3 0
v -8 -3 0
v -8 -2 0
v -7 -2 0
v -8 -3 0
v -9 -3 0
v -9 -2 0
v -8 -2 0
v -9 -3 0
v -10 -3 0
v -10 -2 0
v -9 -2 0
v -10 -3 0
v -11 -3 0
v -11 -2 0
v -10 -2 0
v -11 -3 0
v -12 -3 0
v -12 -2 0
v -11 -2 0
v -12 -3 0
v -13 -3 0
v -13 -2 0
v -12 -2 0
v -13 -3 0
v -14 -3 0
v -14 -2 0
v -13 -2 0
v -14 -3 0
v -15 -3 0
v -15 -2 0
v -14 -2 0
v -15 -3 0
v -16 -3 0
v -16 -2 0
v -15 -2 0
v 0 -12 0
v -1 -12 0
v -1 -11 0
v 0 -11 0
v -1 -12 0
v -2 -12 0
v -2 -11 0
v -1 -11 0
v -2 -12 0
v -3 -12 0
v -3 -11 0
v -2 -11 0
v -3 -12 0
v -4 -12 0
v -4 -11 0
v -3 -11 0
v -4 -12 0
v -5 -12 0
v -5 -11 0
v -4 -11 0
v 0 -13 0
v -1 -13 0
v -1 -12 0
v 0 -12 0
v -1 -13 0
v -2 -13 0
v -2 -12 0
v -1 -12 0
v -2 -13 0
v -3 -13 0
v -3 -12 0
v -2 -12 0
v -3 -13 0
v -4 -13 0
v -4 -12 0
v -3 -12 0
v -4 -13 0
v -5 -13 0
v -5 -12 0
v -4 -12 0
v 0 -14 0
v -1 -14 0
v -1 -13 0
v 0 -13 0
v -1 -14 0
v -2 -14 0
v -2 -13 0
v -1 -13 0
v -2 -14 0
v -3 -14 0
v -3 -13 0
v -2 -13 0
v -3 -14 0
v -4 -14 0
v -4 -13 0
v -3 -13 0
v -4 -14 0
v -5 -14 0
v -5 -13 0
v -4 -13 0
v 0 -15 0
v -1 -15 0
v -1 -14 0
v 0 -14 0
v -1 -15 0
v -2 -15 0
v -2 -14 0
v -1 -14 0
v -2 -15 0
v -3 -15 0
v -3 -14 0
v -2 -14 0
v -3 -15 0
v -4 -15 0
v -4 -14 0
v -3 -14 0
v -4 -15 0
v -5 -15 0
v -5 -14 0
v -4 -14 0
v 0 -16 0
v -1 -16 0
v -1 -15 0
v 0 -15 0
v -1 -16 0
v -2 -16 0
v -2 -15 0
v -1 -15 0
v -2 -16 0
v -3 -16 0
v -3 -15 0
v -2 -15 0
v -3 -16 0
v -4 -16 0
v -4 -15 0
v -3 -15 0
v -4 -16 0
v -5 -16 0
v -5 -15 0
v -4 -15 0
v -11 -16 0
v -12 -16 0
v -12 -15 0
v -11 -15 0
v -12 -16 0
v -13 -16 0
v -13 -15 0
v -12 -15 0
v -13 -16 0
v -14 -16 0
v -14 -15 0
v -13 -15 0

# Texture cooridinates (Count = 33)
vt 0.015625 0.9223301
vt 0.0625 0.9223301
vt 0.0625 0.9805825
vt 0.015625 0.9805825
vt 0.15625 0.8640777
vt 0.203125 0.8640777
vt 0.203125 0.9223301
vt 0.15625 0.9223301
vt 0.109375 0.8640777
vt 0.109375 0.9223301
vt 0.53125 0.8640777
vt 0.578125 0.8640777
vt 0.578125 0.9223301
vt 0.53125 0.9223301
vt 0.0625 0.8640777
vt 0.0625 0.4563107
vt 0.109375 0.4563107
vt 0.109375 0.5145631
vt 0.0625 0.5145631
vt 0.15625 0.4563107
vt 0.15625 0.5145631
vt 0.0625 0.3980582
vt 0.109375 0.3980582
vt 0.15625 0.3980582
vt 0.0625 0.3398058
vt 0.109375 0.3398058
vt 0.15625 0.3398058
vt 0.203125 0.3398058
vt 0.203125 0.3980582
vt 0.25 0.3398058
vt 0.25 0.3980582
vt 0.296875 0.3398058
vt 0.296875 0.3980582

# Normal
vn 0 0 -1

# Mesh description
g FlyPowder_mesh_0027

# Faces
f 1/1/1 2/2/1 3/3/1 4/4/1
f 5/1/1 6/2/1 7/3/1 8/4/1
f 9/1/1 10/2/1 11/3/1 12/4/1
f 13/1/1 14/2/1 15/3/1 16/4/1
f 17/1/1 18/2/1 19/3/1 20/4/1
f 21/1/1 22/2/1 23/3/1 24/4/1
f 25/1/1 26/2/1 27/3/1 28/4/1
f 29/1/1 30/2/1 31/3/1 32/4/1
f 33/1/1 34/2/1 35/3/1 36/4/1
f 37/1/1 38/2/1 39/3/1 40/4/1
f 41/1/1 42/2/1 43/3/1 44/4/1
f 45/1/1 46/2/1 47/3/1 48/4/1
f 49/1/1 50/2/1 51/3/1 52/4/1
f 53/1/1 54/2/1 55/3/1 56/4/1
f 57/1/1 58/2/1 59/3/1 60/4/1
f 61/1/1 62/2/1 63/3/1 64/4/1
f 65/5/1 66/6/1 67/7/1 68/8/1
f 69/9/1 70/5/1 71/8/1 72/10/1
f 73/5/1 74/6/1 75/7/1 76/8/1
f 77/9/1 78/5/1 79/8/1 80/10/1
f 81/5/1 82/6/1 83/7/1 84/8/1
f 85/11/1 86/12/1 87/13/1 88/14/1
f 89/9/1 90/5/1 91/8/1 92/10/1
f 93/5/1 94/6/1 95/7/1 96/8/1
f 97/11/1 98/12/1 99/13/1 100/14/1
f 101/15/1 102/9/1 103/10/1 104/2/1
f 105/9/1 106/5/1 107/8/1 108/10/1
f 109/5/1 110/6/1 111/7/1 112/8/1
f 113/11/1 114/12/1 115/13/1 116/14/1
f 117/11/1 118/12/1 119/13/1 120/14/1
f 121/11/1 122/12/1 123/13/1 124/14/1
f 125/9/1 126/5/1 127/8/1 128/10/1
f 129/16/1 130/17/1 131/18/1 132/19/1
f 133/16/1 134/17/1 135/18/1 136/19/1
f 137/16/1 138/17/1 139/18/1 140/19/1
f 141/16/1 142/17/1 143/18/1 144/19/1
f 145/17/1 146/20/1 147/21/1 148/18/1
f 149/22/1 150/23/1 151/17/1 152/16/1
f 153/22/1 154/23/1 155/17/1 156/16/1
f 157/22/1 158/23/1 159/17/1 160/16/1
f 161/22/1 162/23/1 163/17/1 164/16/1
f 165/23/1 166/24/1 167/20/1 168/17/1
f 169/25/1 170/26/1 171/23/1 172/22/1
f 173/25/1 174/26/1 175/23/1 176/22/1
f 177/25/1 178/26/1 179/23/1 180/22/1
f 181/25/1 182/26/1 183/23/1 184/22/1
f 185/23/1 186/24/1 187/20/1 188/17/1
f 189/22/1 190/23/1 191/17/1 192/16/1
f 193/22/1 194/23/1 195/17/1 196/16/1
f 197/22/1 198/23/1 199/17/1 200/16/1
f 201/22/1 202/23/1 203/17/1 204/16/1
f 205/23/1 206/24/1 207/20/1 208/17/1
f 209/25/1 210/26/1 211/23/1 212/22/1
f 213/25/1 214/26/1 215/23/1 216/22/1
f 217/25/1 218/26/1 219/23/1 220/22/1
f 221/25/1 222/26/1 223/23/1 224/22/1
f 225/26/1 226/27/1 227/24/1 228/23/1
f 229/27/1 230/28/1 231/29/1 232/24/1
f 233/28/1 234/30/1 235/31/1 236/29/1
f 237/30/1 238/32/1 239/33/1 240/31/1

