# Tiled2Unity generated file. Do not modify by hand.
# Wavefront file for 'FlyPowder_mesh_0033.obj'

# Vertices (Count = 228)
v 0 -5 0
v -1 -5 0
v -1 -4 0
v 0 -4 0
v -1 -5 0
v -2 -5 0
v -2 -4 0
v -1 -4 0
v -2 -5 0
v -3 -5 0
v -3 -4 0
v -2 -4 0
v -3 -5 0
v -4 -5 0
v -4 -4 0
v -3 -4 0
v -4 -5 0
v -5 -5 0
v -5 -4 0
v -4 -4 0
v -5 -5 0
v -6 -5 0
v -6 -4 0
v -5 -4 0
v -6 -5 0
v -7 -5 0
v -7 -4 0
v -6 -4 0
v -7 -5 0
v -8 -5 0
v -8 -4 0
v -7 -4 0
v -8 -5 0
v -9 -5 0
v -9 -4 0
v -8 -4 0
v -9 -5 0
v -10 -5 0
v -10 -4 0
v -9 -4 0
v -10 -5 0
v -11 -5 0
v -11 -4 0
v -10 -4 0
v -11 -5 0
v -12 -5 0
v -12 -4 0
v -11 -4 0
v -12 -5 0
v -13 -5 0
v -13 -4 0
v -12 -4 0
v -11 -6 0
v -12 -6 0
v -12 -5 0
v -11 -5 0
v -12 -6 0
v -13 -6 0
v -13 -5 0
v -12 -5 0
v -12 -7 0
v -13 -7 0
v -13 -6 0
v -12 -6 0
v -11 -8 0
v -12 -8 0
v -12 -7 0
v -11 -7 0
v -12 -8 0
v -13 -8 0
v -13 -7 0
v -12 -7 0
v 0 -9 0
v -1 -9 0
v -1 -8 0
v 0 -8 0
v -1 -9 0
v -2 -9 0
v -2 -8 0
v -1 -8 0
v -2 -9 0
v -3 -9 0
v -3 -8 0
v -2 -8 0
v -3 -9 0
v -4 -9 0
v -4 -8 0
v -3 -8 0
v -4 -9 0
v -5 -9 0
v -5 -8 0
v -4 -8 0
v -5 -9 0
v -6 -9 0
v -6 -8 0
v -5 -8 0
v -6 -9 0
v -7 -9 0
v -7 -8 0
v -6 -8 0
v -7 -9 0
v -8 -9 0
v -8 -8 0
v -7 -8 0
v -8 -9 0
v -9 -9 0
v -9 -8 0
v -8 -8 0
v -9 -9 0
v -10 -9 0
v -10 -8 0
v -9 -8 0
v -10 -9 0
v -11 -9 0
v -11 -8 0
v -10 -8 0
v -11 -9 0
v -12 -9 0
v -12 -8 0
v -11 -8 0
v -12 -9 0
v -13 -9 0
v -13 -8 0
v -12 -8 0
v 0 -10 0
v -1 -10 0
v -1 -9 0
v 0 -9 0
v -1 -10 0
v -2 -10 0
v -2 -9 0
v -1 -9 0
v -2 -10 0
v -3 -10 0
v -3 -9 0
v -2 -9 0
v -3 -10 0
v -4 -10 0
v -4 -9 0
v -3 -9 0
v -4 -10 0
v -5 -10 0
v -5 -9 0
v -4 -9 0
v -5 -10 0
v -6 -10 0
v -6 -9 0
v -5 -9 0
v -6 -10 0
v -7 -10 0
v -7 -9 0
v -6 -9 0
v -7 -10 0
v -8 -10 0
v -8 -9 0
v -7 -9 0
v -8 -10 0
v -9 -10 0
v -9 -9 0
v -8 -9 0
v -9 -10 0
v -10 -10 0
v -10 -9 0
v -9 -9 0
v -10 -10 0
v -11 -10 0
v -11 -9 0
v -10 -9 0
v -11 -10 0
v -12 -10 0
v -12 -9 0
v -11 -9 0
v -12 -10 0
v -13 -10 0
v -13 -9 0
v -12 -9 0
v 0 -11 0
v -1 -11 0
v -1 -10 0
v 0 -10 0
v -1 -11 0
v -2 -11 0
v -2 -10 0
v -1 -10 0
v -2 -11 0
v -3 -11 0
v -3 -10 0
v -2 -10 0
v -3 -11 0
v -4 -11 0
v -4 -10 0
v -3 -10 0
v -4 -11 0
v -5 -11 0
v -5 -10 0
v -4 -10 0
v -5 -11 0
v -6 -11 0
v -6 -10 0
v -5 -10 0
v -6 -11 0
v -7 -11 0
v -7 -10 0
v -6 -10 0
v -7 -11 0
v -8 -11 0
v -8 -10 0
v -7 -10 0
v -8 -11 0
v -9 -11 0
v -9 -10 0
v -8 -10 0
v -9 -11 0
v -10 -11 0
v -10 -10 0
v -9 -10 0
v -10 -11 0
v -11 -11 0
v -11 -10 0
v -10 -10 0
v -11 -11 0
v -12 -11 0
v -12 -10 0
v -11 -10 0
v -12 -11 0
v -13 -11 0
v -13 -10 0
v -12 -10 0

# Texture cooridinates (Count = 48)
vt 0.296875 0.5728155
vt 0.34375 0.5728155
vt 0.34375 0.631068
vt 0.296875 0.631068
vt 0.53125 0.8640777
vt 0.578125 0.8640777
vt 0.578125 0.9223301
vt 0.53125 0.9223301
vt 0.203125 0.5728155
vt 0.25 0.5728155
vt 0.25 0.631068
vt 0.203125 0.631068
vt 0.53125 0.8058252
vt 0.578125 0.8058252
vt 0.625 0.8058252
vt 0.625 0.8640777
vt 0.578125 0.7475728
vt 0.625 0.7475728
vt 0.53125 0.6893204
vt 0.578125 0.6893204
vt 0.53125 0.7475728
vt 0.625 0.6893204
vt 0.109375 0.5728155
vt 0.15625 0.5728155
vt 0.15625 0.631068
vt 0.109375 0.631068
vt 0.203125 0.3398058
vt 0.25 0.3398058
vt 0.25 0.3980582
vt 0.203125 0.3980582
vt 0.34375 0.6893204
vt 0.390625 0.6893204
vt 0.390625 0.7475728
vt 0.34375 0.7475728
vt 0.015625 0.9223301
vt 0.0625 0.9223301
vt 0.0625 0.9805825
vt 0.015625 0.9805825
vt 0.15625 0.9223301
vt 0.203125 0.9223301
vt 0.203125 0.9805825
vt 0.15625 0.9805825
vt 0.25 0.9223301
vt 0.25 0.9805825
vt 0.296875 0.6893204
vt 0.25 0.6893204
vt 0.109375 0.9223301
vt 0.109375 0.9805825

# Normal
vn 0 0 -1

# Mesh description
g FlyPowder_mesh_0033

# Faces
f 1/1/1 2/2/1 3/3/1 4/4/1
f 5/5/1 6/6/1 7/7/1 8/8/1
f 9/9/1 10/10/1 11/11/1 12/12/1
f 13/10/1 14/1/1 15/4/1 16/11/1
f 17/1/1 18/2/1 19/3/1 20/4/1
f 21/5/1 22/6/1 23/7/1 24/8/1
f 25/5/1 26/6/1 27/7/1 28/8/1
f 29/9/1 30/10/1 31/11/1 32/12/1
f 33/10/1 34/1/1 35/4/1 36/11/1
f 37/1/1 38/2/1 39/3/1 40/4/1
f 41/5/1 42/6/1 43/7/1 44/8/1
f 45/5/1 46/6/1 47/7/1 48/8/1
f 49/5/1 50/6/1 51/7/1 52/8/1
f 53/13/1 54/14/1 55/6/1 56/5/1
f 57/14/1 58/15/1 59/16/1 60/6/1
f 61/17/1 62/18/1 63/15/1 64/14/1
f 65/19/1 66/20/1 67/17/1 68/21/1
f 69/20/1 70/22/1 71/18/1 72/17/1
f 73/23/1 74/24/1 75/25/1 76/26/1
f 77/24/1 78/9/1 79/12/1 80/25/1
f 81/27/1 82/28/1 83/29/1 84/30/1
f 85/31/1 86/32/1 87/33/1 88/34/1
f 89/27/1 90/28/1 91/29/1 92/30/1
f 93/23/1 94/24/1 95/25/1 96/26/1
f 97/24/1 98/9/1 99/12/1 100/25/1
f 101/27/1 102/28/1 103/29/1 104/30/1
f 105/31/1 106/32/1 107/33/1 108/34/1
f 109/27/1 110/28/1 111/29/1 112/30/1
f 113/23/1 114/24/1 115/25/1 116/26/1
f 117/24/1 118/9/1 119/12/1 120/25/1
f 121/35/1 122/36/1 123/37/1 124/38/1
f 125/39/1 126/40/1 127/41/1 128/42/1
f 129/40/1 130/43/1 131/44/1 132/41/1
f 133/11/1 134/4/1 135/45/1 136/46/1
f 137/36/1 138/47/1 139/48/1 140/37/1
f 141/47/1 142/39/1 143/42/1 144/48/1
f 145/39/1 146/40/1 147/41/1 148/42/1
f 149/40/1 150/43/1 151/44/1 152/41/1
f 153/11/1 154/4/1 155/45/1 156/46/1
f 157/11/1 158/4/1 159/45/1 160/46/1
f 161/36/1 162/47/1 163/48/1 164/37/1
f 165/47/1 166/39/1 167/42/1 168/48/1
f 169/39/1 170/40/1 171/41/1 172/42/1
f 173/40/1 174/43/1 175/44/1 176/41/1
f 177/35/1 178/36/1 179/37/1 180/38/1
f 181/35/1 182/36/1 183/37/1 184/38/1
f 185/35/1 186/36/1 187/37/1 188/38/1
f 189/35/1 190/36/1 191/37/1 192/38/1
f 193/35/1 194/36/1 195/37/1 196/38/1
f 197/35/1 198/36/1 199/37/1 200/38/1
f 201/35/1 202/36/1 203/37/1 204/38/1
f 205/35/1 206/36/1 207/37/1 208/38/1
f 209/35/1 210/36/1 211/37/1 212/38/1
f 213/35/1 214/36/1 215/37/1 216/38/1
f 217/35/1 218/36/1 219/37/1 220/38/1
f 221/35/1 222/36/1 223/37/1 224/38/1
f 225/35/1 226/36/1 227/37/1 228/38/1

