# Tiled2Unity generated file. Do not modify by hand.
# Wavefront file for 'FlyPowder_mesh_0011.obj'

# Vertices (Count = 288)
v 0 -1 0
v -1 -1 0
v -1 0 0
v 0 0 0
v -1 -1 0
v -2 -1 0
v -2 0 0
v -1 0 0
v -2 -1 0
v -3 -1 0
v -3 0 0
v -2 0 0
v -3 -1 0
v -4 -1 0
v -4 0 0
v -3 0 0
v -4 -1 0
v -5 -1 0
v -5 0 0
v -4 0 0
v -5 -1 0
v -6 -1 0
v -6 0 0
v -5 0 0
v -6 -1 0
v -7 -1 0
v -7 0 0
v -6 0 0
v -7 -1 0
v -8 -1 0
v -8 0 0
v -7 0 0
v -8 -1 0
v -9 -1 0
v -9 0 0
v -8 0 0
v -9 -1 0
v -10 -1 0
v -10 0 0
v -9 0 0
v -10 -1 0
v -11 -1 0
v -11 0 0
v -10 0 0
v -11 -1 0
v -12 -1 0
v -12 0 0
v -11 0 0
v -12 -1 0
v -13 -1 0
v -13 0 0
v -12 0 0
v -13 -1 0
v -14 -1 0
v -14 0 0
v -13 0 0
v -14 -1 0
v -15 -1 0
v -15 0 0
v -14 0 0
v -15 -1 0
v -16 -1 0
v -16 0 0
v -15 0 0
v -2 -2 0
v -3 -2 0
v -3 -1 0
v -2 -1 0
v -3 -2 0
v -4 -2 0
v -4 -1 0
v -3 -1 0
v -4 -2 0
v -5 -2 0
v -5 -1 0
v -4 -1 0
v -5 -2 0
v -6 -2 0
v -6 -1 0
v -5 -1 0
v -6 -2 0
v -7 -2 0
v -7 -1 0
v -6 -1 0
v -7 -2 0
v -8 -2 0
v -8 -1 0
v -7 -1 0
v -8 -2 0
v -9 -2 0
v -9 -1 0
v -8 -1 0
v -9 -2 0
v -10 -2 0
v -10 -1 0
v -9 -1 0
v -10 -2 0
v -11 -2 0
v -11 -1 0
v -10 -1 0
v -11 -2 0
v -12 -2 0
v -12 -1 0
v -11 -1 0
v -12 -2 0
v -13 -2 0
v -13 -1 0
v -12 -1 0
v -13 -2 0
v -14 -2 0
v -14 -1 0
v -13 -1 0
v -14 -2 0
v -15 -2 0
v -15 -1 0
v -14 -1 0
v -15 -2 0
v -16 -2 0
v -16 -1 0
v -15 -1 0
v -2 -3 0
v -3 -3 0
v -3 -2 0
v -2 -2 0
v -3 -3 0
v -4 -3 0
v -4 -2 0
v -3 -2 0
v -4 -3 0
v -5 -3 0
v -5 -2 0
v -4 -2 0
v -5 -3 0
v -6 -3 0
v -6 -2 0
v -5 -2 0
v -6 -3 0
v -7 -3 0
v -7 -2 0
v -6 -2 0
v -7 -3 0
v -8 -3 0
v -8 -2 0
v -7 -2 0
v -8 -3 0
v -9 -3 0
v -9 -2 0
v -8 -2 0
v -9 -3 0
v -10 -3 0
v -10 -2 0
v -9 -2 0
v -10 -3 0
v -11 -3 0
v -11 -2 0
v -10 -2 0
v -11 -3 0
v -12 -3 0
v -12 -2 0
v -11 -2 0
v -12 -3 0
v -13 -3 0
v -13 -2 0
v -12 -2 0
v -13 -3 0
v -14 -3 0
v -14 -2 0
v -13 -2 0
v -14 -3 0
v -15 -3 0
v -15 -2 0
v -14 -2 0
v -15 -3 0
v -16 -3 0
v -16 -2 0
v -15 -2 0
v -2 -4 0
v -3 -4 0
v -3 -3 0
v -2 -3 0
v -3 -4 0
v -4 -4 0
v -4 -3 0
v -3 -3 0
v -4 -4 0
v -5 -4 0
v -5 -3 0
v -4 -3 0
v -5 -4 0
v -6 -4 0
v -6 -3 0
v -5 -3 0
v -6 -4 0
v -7 -4 0
v -7 -3 0
v -6 -3 0
v -7 -4 0
v -8 -4 0
v -8 -3 0
v -7 -3 0
v -8 -4 0
v -9 -4 0
v -9 -3 0
v -8 -3 0
v -9 -4 0
v -10 -4 0
v -10 -3 0
v -9 -3 0
v -10 -4 0
v -11 -4 0
v -11 -3 0
v -10 -3 0
v -11 -4 0
v -12 -4 0
v -12 -3 0
v -11 -3 0
v -12 -4 0
v -13 -4 0
v -13 -3 0
v -12 -3 0
v -13 -4 0
v -14 -4 0
v -14 -3 0
v -13 -3 0
v -14 -4 0
v -15 -4 0
v -15 -3 0
v -14 -3 0
v -15 -4 0
v -16 -4 0
v -16 -3 0
v -15 -3 0
v -2 -5 0
v -3 -5 0
v -3 -4 0
v -2 -4 0
v -3 -5 0
v -4 -5 0
v -4 -4 0
v -3 -4 0
v -4 -5 0
v -5 -5 0
v -5 -4 0
v -4 -4 0
v -5 -5 0
v -6 -5 0
v -6 -4 0
v -5 -4 0
v -6 -5 0
v -7 -5 0
v -7 -4 0
v -6 -4 0
v -7 -5 0
v -8 -5 0
v -8 -4 0
v -7 -4 0
v -8 -5 0
v -9 -5 0
v -9 -4 0
v -8 -4 0
v -9 -5 0
v -10 -5 0
v -10 -4 0
v -9 -4 0
v -10 -5 0
v -11 -5 0
v -11 -4 0
v -10 -4 0
v -11 -5 0
v -12 -5 0
v -12 -4 0
v -11 -4 0
v -12 -5 0
v -13 -5 0
v -13 -4 0
v -12 -4 0
v -13 -5 0
v -14 -5 0
v -14 -4 0
v -13 -4 0
v -14 -5 0
v -15 -5 0
v -15 -4 0
v -14 -4 0
v -15 -5 0
v -16 -5 0
v -16 -4 0
v -15 -4 0

# Texture cooridinates (Count = 22)
vt 0.109375 0.1067961
vt 0.15625 0.1067961
vt 0.15625 0.1650485
vt 0.109375 0.1650485
vt 0.203125 0.1650485
vt 0.203125 0.223301
vt 0.15625 0.223301
vt 0.203125 0.2815534
vt 0.15625 0.2815534
vt 0.109375 0.223301
vt 0.484375 0.1650485
vt 0.53125 0.1650485
vt 0.53125 0.223301
vt 0.484375 0.223301
vt 0.296875 0.223301
vt 0.34375 0.223301
vt 0.34375 0.2815534
vt 0.296875 0.2815534
vt 0.390625 0.223301
vt 0.390625 0.2815534
vt 0.25 0.1650485
vt 0.25 0.223301

# Normal
vn 0 0 -1

# Mesh description
g FlyPowder_mesh_0011

# Faces
f 1/1/1 2/2/1 3/3/1 4/4/1
f 5/1/1 6/2/1 7/3/1 8/4/1
f 9/3/1 10/5/1 11/6/1 12/7/1
f 13/7/1 14/6/1 15/8/1 16/9/1
f 17/4/1 18/3/1 19/7/1 20/10/1
f 21/3/1 22/5/1 23/6/1 24/7/1
f 25/11/1 26/12/1 27/13/1 28/14/1
f 29/15/1 30/16/1 31/17/1 32/18/1
f 33/7/1 34/6/1 35/8/1 36/9/1
f 37/4/1 38/3/1 39/7/1 40/10/1
f 41/3/1 42/5/1 43/6/1 44/7/1
f 45/11/1 46/12/1 47/13/1 48/14/1
f 49/15/1 50/16/1 51/17/1 52/18/1
f 53/11/1 54/12/1 55/13/1 56/14/1
f 57/16/1 58/19/1 59/20/1 60/17/1
f 61/11/1 62/12/1 63/13/1 64/14/1
f 65/3/1 66/5/1 67/6/1 68/7/1
f 69/11/1 70/12/1 71/13/1 72/14/1
f 73/15/1 74/16/1 75/17/1 76/18/1
f 77/16/1 78/19/1 79/20/1 80/17/1
f 81/16/1 82/19/1 83/20/1 84/17/1
f 85/5/1 86/21/1 87/22/1 88/6/1
f 89/11/1 90/12/1 91/13/1 92/14/1
f 93/15/1 94/16/1 95/17/1 96/18/1
f 97/16/1 98/19/1 99/20/1 100/17/1
f 101/16/1 102/19/1 103/20/1 104/17/1
f 105/5/1 106/21/1 107/22/1 108/6/1
f 109/16/1 110/19/1 111/20/1 112/17/1
f 113/5/1 114/21/1 115/22/1 116/6/1
f 117/16/1 118/19/1 119/20/1 120/17/1
f 121/3/1 122/5/1 123/6/1 124/7/1
f 125/16/1 126/19/1 127/20/1 128/17/1
f 129/11/1 130/12/1 131/13/1 132/14/1
f 133/11/1 134/12/1 135/13/1 136/14/1
f 137/15/1 138/16/1 139/17/1 140/18/1
f 141/7/1 142/6/1 143/8/1 144/9/1
f 145/16/1 146/19/1 147/20/1 148/17/1
f 149/11/1 150/12/1 151/13/1 152/14/1
f 153/11/1 154/12/1 155/13/1 156/14/1
f 157/15/1 158/16/1 159/17/1 160/18/1
f 161/7/1 162/6/1 163/8/1 164/9/1
f 165/5/1 166/21/1 167/22/1 168/6/1
f 169/3/1 170/5/1 171/6/1 172/7/1
f 173/5/1 174/21/1 175/22/1 176/6/1
f 177/3/1 178/5/1 179/6/1 180/7/1
f 181/3/1 182/5/1 183/6/1 184/7/1
f 185/3/1 186/5/1 187/6/1 188/7/1
f 189/3/1 190/5/1 191/6/1 192/7/1
f 193/3/1 194/5/1 195/6/1 196/7/1
f 197/3/1 198/5/1 199/6/1 200/7/1
f 201/3/1 202/5/1 203/6/1 204/7/1
f 205/3/1 206/5/1 207/6/1 208/7/1
f 209/3/1 210/5/1 211/6/1 212/7/1
f 213/3/1 214/5/1 215/6/1 216/7/1
f 217/3/1 218/5/1 219/6/1 220/7/1
f 221/3/1 222/5/1 223/6/1 224/7/1
f 225/3/1 226/5/1 227/6/1 228/7/1
f 229/3/1 230/5/1 231/6/1 232/7/1
f 233/1/1 234/2/1 235/3/1 236/4/1
f 237/1/1 238/2/1 239/3/1 240/4/1
f 241/1/1 242/2/1 243/3/1 244/4/1
f 245/1/1 246/2/1 247/3/1 248/4/1
f 249/1/1 250/2/1 251/3/1 252/4/1
f 253/1/1 254/2/1 255/3/1 256/4/1
f 257/1/1 258/2/1 259/3/1 260/4/1
f 261/1/1 262/2/1 263/3/1 264/4/1
f 265/1/1 266/2/1 267/3/1 268/4/1
f 269/1/1 270/2/1 271/3/1 272/4/1
f 273/1/1 274/2/1 275/3/1 276/4/1
f 277/1/1 278/2/1 279/3/1 280/4/1
f 281/1/1 282/2/1 283/3/1 284/4/1
f 285/1/1 286/2/1 287/3/1 288/4/1

