# Tiled2Unity generated file. Do not modify by hand.
# Wavefront file for 'FlyPowder_mesh_0040.obj'

# Vertices (Count = 136)
v -3 -1 0
v -4 -1 0
v -4 0 0
v -3 0 0
v -4 -1 0
v -5 -1 0
v -5 0 0
v -4 0 0
v -5 -1 0
v -6 -1 0
v -6 0 0
v -5 0 0
v -6 -1 0
v -7 -1 0
v -7 0 0
v -6 0 0
v -7 -1 0
v -8 -1 0
v -8 0 0
v -7 0 0
v -8 -1 0
v -9 -1 0
v -9 0 0
v -8 0 0
v -9 -1 0
v -10 -1 0
v -10 0 0
v -9 0 0
v -10 -1 0
v -11 -1 0
v -11 0 0
v -10 0 0
v -11 -1 0
v -12 -1 0
v -12 0 0
v -11 0 0
v -12 -1 0
v -13 -1 0
v -13 0 0
v -12 0 0
v -13 -1 0
v -14 -1 0
v -14 0 0
v -13 0 0
v -14 -1 0
v -15 -1 0
v -15 0 0
v -14 0 0
v -15 -1 0
v -16 -1 0
v -16 0 0
v -15 0 0
v -3 -2 0
v -4 -2 0
v -4 -1 0
v -3 -1 0
v -4 -2 0
v -5 -2 0
v -5 -1 0
v -4 -1 0
v -5 -2 0
v -6 -2 0
v -6 -1 0
v -5 -1 0
v -3 -3 0
v -4 -3 0
v -4 -2 0
v -3 -2 0
v -4 -3 0
v -5 -3 0
v -5 -2 0
v -4 -2 0
v -5 -3 0
v -6 -3 0
v -6 -2 0
v -5 -2 0
v -3 -4 0
v -4 -4 0
v -4 -3 0
v -3 -3 0
v -4 -4 0
v -5 -4 0
v -5 -3 0
v -4 -3 0
v -5 -4 0
v -6 -4 0
v -6 -3 0
v -5 -3 0
v 0 -5 0
v -1 -5 0
v -1 -4 0
v 0 -4 0
v -1 -5 0
v -2 -5 0
v -2 -4 0
v -1 -4 0
v -2 -5 0
v -3 -5 0
v -3 -4 0
v -2 -4 0
v -3 -5 0
v -4 -5 0
v -4 -4 0
v -3 -4 0
v -4 -5 0
v -5 -5 0
v -5 -4 0
v -4 -4 0
v -5 -5 0
v -6 -5 0
v -6 -4 0
v -5 -4 0
v 0 -6 0
v -1 -6 0
v -1 -5 0
v 0 -5 0
v -1 -6 0
v -2 -6 0
v -2 -5 0
v -1 -5 0
v -2 -6 0
v -3 -6 0
v -3 -5 0
v -2 -5 0
v -3 -6 0
v -4 -6 0
v -4 -5 0
v -3 -5 0
v -4 -6 0
v -5 -6 0
v -5 -5 0
v -4 -5 0
v -5 -6 0
v -6 -6 0
v -6 -5 0
v -5 -5 0

# Texture cooridinates (Count = 19)
vt 0.015625 0.3980582
vt 0.0625 0.3980582
vt 0.0625 0.4563107
vt 0.015625 0.4563107
vt 0.0625 0.3398058
vt 0.109375 0.3398058
vt 0.109375 0.3980582
vt 0.015625 0.9223301
vt 0.0625 0.9223301
vt 0.0625 0.9805825
vt 0.015625 0.9805825
vt 0.109375 0.4563107
vt 0.53125 0.4563107
vt 0.578125 0.4563107
vt 0.578125 0.5145631
vt 0.53125 0.5145631
vt 0.625 0.4563107
vt 0.625 0.5145631
vt 0.015625 0.3398058

# Normal
vn 0 0 -1

# Mesh description
g FlyPowder_mesh_0040

# Faces
f 1/1/1 2/2/1 3/3/1 4/4/1
f 5/5/1 6/6/1 7/7/1 8/2/1
f 9/8/1 10/9/1 11/10/1 12/11/1
f 13/8/1 14/9/1 15/10/1 16/11/1
f 17/8/1 18/9/1 19/10/1 20/11/1
f 21/8/1 22/9/1 23/10/1 24/11/1
f 25/8/1 26/9/1 27/10/1 28/11/1
f 29/8/1 30/9/1 31/10/1 32/11/1
f 33/8/1 34/9/1 35/10/1 36/11/1
f 37/8/1 38/9/1 39/10/1 40/11/1
f 41/8/1 42/9/1 43/10/1 44/11/1
f 45/8/1 46/9/1 47/10/1 48/11/1
f 49/8/1 50/9/1 51/10/1 52/11/1
f 53/1/1 54/2/1 55/3/1 56/4/1
f 57/2/1 58/7/1 59/12/1 60/3/1
f 61/8/1 62/9/1 63/10/1 64/11/1
f 65/1/1 66/2/1 67/3/1 68/4/1
f 69/2/1 70/7/1 71/12/1 72/3/1
f 73/8/1 74/9/1 75/10/1 76/11/1
f 77/1/1 78/2/1 79/3/1 80/4/1
f 81/2/1 82/7/1 83/12/1 84/3/1
f 85/8/1 86/9/1 87/10/1 88/11/1
f 89/13/1 90/14/1 91/15/1 92/16/1
f 93/14/1 94/17/1 95/18/1 96/15/1
f 97/14/1 98/17/1 99/18/1 100/15/1
f 101/19/1 102/5/1 103/2/1 104/1/1
f 105/5/1 106/6/1 107/7/1 108/2/1
f 109/8/1 110/9/1 111/10/1 112/11/1
f 113/8/1 114/9/1 115/10/1 116/11/1
f 117/8/1 118/9/1 119/10/1 120/11/1
f 121/8/1 122/9/1 123/10/1 124/11/1
f 125/8/1 126/9/1 127/10/1 128/11/1
f 129/8/1 130/9/1 131/10/1 132/11/1
f 133/8/1 134/9/1 135/10/1 136/11/1

