# Tiled2Unity generated file. Do not modify by hand.
# Wavefront file for 'FlyPowder_mesh_0006.obj'

# Vertices (Count = 568)
v 0 -8 0
v -1 -8 0
v -1 -7 0
v 0 -7 0
v -1 -8 0
v -2 -8 0
v -2 -7 0
v -1 -7 0
v -2 -8 0
v -3 -8 0
v -3 -7 0
v -2 -7 0
v -3 -8 0
v -4 -8 0
v -4 -7 0
v -3 -7 0
v -4 -8 0
v -5 -8 0
v -5 -7 0
v -4 -7 0
v -5 -8 0
v -6 -8 0
v -6 -7 0
v -5 -7 0
v -6 -8 0
v -7 -8 0
v -7 -7 0
v -6 -7 0
v -7 -8 0
v -8 -8 0
v -8 -7 0
v -7 -7 0
v -8 -8 0
v -9 -8 0
v -9 -7 0
v -8 -7 0
v -9 -8 0
v -10 -8 0
v -10 -7 0
v -9 -7 0
v -10 -8 0
v -11 -8 0
v -11 -7 0
v -10 -7 0
v -11 -8 0
v -12 -8 0
v -12 -7 0
v -11 -7 0
v -12 -8 0
v -13 -8 0
v -13 -7 0
v -12 -7 0
v -13 -8 0
v -14 -8 0
v -14 -7 0
v -13 -7 0
v 0 -9 0
v -1 -9 0
v -1 -8 0
v 0 -8 0
v -1 -9 0
v -2 -9 0
v -2 -8 0
v -1 -8 0
v -2 -9 0
v -3 -9 0
v -3 -8 0
v -2 -8 0
v -3 -9 0
v -4 -9 0
v -4 -8 0
v -3 -8 0
v -4 -9 0
v -5 -9 0
v -5 -8 0
v -4 -8 0
v -5 -9 0
v -6 -9 0
v -6 -8 0
v -5 -8 0
v -6 -9 0
v -7 -9 0
v -7 -8 0
v -6 -8 0
v -7 -9 0
v -8 -9 0
v -8 -8 0
v -7 -8 0
v -8 -9 0
v -9 -9 0
v -9 -8 0
v -8 -8 0
v -9 -9 0
v -10 -9 0
v -10 -8 0
v -9 -8 0
v -10 -9 0
v -11 -9 0
v -11 -8 0
v -10 -8 0
v -11 -9 0
v -12 -9 0
v -12 -8 0
v -11 -8 0
v -12 -9 0
v -13 -9 0
v -13 -8 0
v -12 -8 0
v -13 -9 0
v -14 -9 0
v -14 -8 0
v -13 -8 0
v -14 -9 0
v -15 -9 0
v -15 -8 0
v -14 -8 0
v -15 -9 0
v -16 -9 0
v -16 -8 0
v -15 -8 0
v 0 -10 0
v -1 -10 0
v -1 -9 0
v 0 -9 0
v -1 -10 0
v -2 -10 0
v -2 -9 0
v -1 -9 0
v -2 -10 0
v -3 -10 0
v -3 -9 0
v -2 -9 0
v -3 -10 0
v -4 -10 0
v -4 -9 0
v -3 -9 0
v -4 -10 0
v -5 -10 0
v -5 -9 0
v -4 -9 0
v -5 -10 0
v -6 -10 0
v -6 -9 0
v -5 -9 0
v -6 -10 0
v -7 -10 0
v -7 -9 0
v -6 -9 0
v -7 -10 0
v -8 -10 0
v -8 -9 0
v -7 -9 0
v -8 -10 0
v -9 -10 0
v -9 -9 0
v -8 -9 0
v -9 -10 0
v -10 -10 0
v -10 -9 0
v -9 -9 0
v -10 -10 0
v -11 -10 0
v -11 -9 0
v -10 -9 0
v -11 -10 0
v -12 -10 0
v -12 -9 0
v -11 -9 0
v -12 -10 0
v -13 -10 0
v -13 -9 0
v -12 -9 0
v -13 -10 0
v -14 -10 0
v -14 -9 0
v -13 -9 0
v -14 -10 0
v -15 -10 0
v -15 -9 0
v -14 -9 0
v -15 -10 0
v -16 -10 0
v -16 -9 0
v -15 -9 0
v 0 -11 0
v -1 -11 0
v -1 -10 0
v 0 -10 0
v -1 -11 0
v -2 -11 0
v -2 -10 0
v -1 -10 0
v -2 -11 0
v -3 -11 0
v -3 -10 0
v -2 -10 0
v -3 -11 0
v -4 -11 0
v -4 -10 0
v -3 -10 0
v -4 -11 0
v -5 -11 0
v -5 -10 0
v -4 -10 0
v -5 -11 0
v -6 -11 0
v -6 -10 0
v -5 -10 0
v -6 -11 0
v -7 -11 0
v -7 -10 0
v -6 -10 0
v -7 -11 0
v -8 -11 0
v -8 -10 0
v -7 -10 0
v -8 -11 0
v -9 -11 0
v -9 -10 0
v -8 -10 0
v -9 -11 0
v -10 -11 0
v -10 -10 0
v -9 -10 0
v -10 -11 0
v -11 -11 0
v -11 -10 0
v -10 -10 0
v -11 -11 0
v -12 -11 0
v -12 -10 0
v -11 -10 0
v -12 -11 0
v -13 -11 0
v -13 -10 0
v -12 -10 0
v -13 -11 0
v -14 -11 0
v -14 -10 0
v -13 -10 0
v -14 -11 0
v -15 -11 0
v -15 -10 0
v -14 -10 0
v -15 -11 0
v -16 -11 0
v -16 -10 0
v -15 -10 0
v 0 -12 0
v -1 -12 0
v -1 -11 0
v 0 -11 0
v -1 -12 0
v -2 -12 0
v -2 -11 0
v -1 -11 0
v -2 -12 0
v -3 -12 0
v -3 -11 0
v -2 -11 0
v -3 -12 0
v -4 -12 0
v -4 -11 0
v -3 -11 0
v -4 -12 0
v -5 -12 0
v -5 -11 0
v -4 -11 0
v -5 -12 0
v -6 -12 0
v -6 -11 0
v -5 -11 0
v -6 -12 0
v -7 -12 0
v -7 -11 0
v -6 -11 0
v -7 -12 0
v -8 -12 0
v -8 -11 0
v -7 -11 0
v -8 -12 0
v -9 -12 0
v -9 -11 0
v -8 -11 0
v -9 -12 0
v -10 -12 0
v -10 -11 0
v -9 -11 0
v -10 -12 0
v -11 -12 0
v -11 -11 0
v -10 -11 0
v -11 -12 0
v -12 -12 0
v -12 -11 0
v -11 -11 0
v -12 -12 0
v -13 -12 0
v -13 -11 0
v -12 -11 0
v -13 -12 0
v -14 -12 0
v -14 -11 0
v -13 -11 0
v -14 -12 0
v -15 -12 0
v -15 -11 0
v -14 -11 0
v -15 -12 0
v -16 -12 0
v -16 -11 0
v -15 -11 0
v 0 -13 0
v -1 -13 0
v -1 -12 0
v 0 -12 0
v -1 -13 0
v -2 -13 0
v -2 -12 0
v -1 -12 0
v -2 -13 0
v -3 -13 0
v -3 -12 0
v -2 -12 0
v -3 -13 0
v -4 -13 0
v -4 -12 0
v -3 -12 0
v -4 -13 0
v -5 -13 0
v -5 -12 0
v -4 -12 0
v -5 -13 0
v -6 -13 0
v -6 -12 0
v -5 -12 0
v -6 -13 0
v -7 -13 0
v -7 -12 0
v -6 -12 0
v -7 -13 0
v -8 -13 0
v -8 -12 0
v -7 -12 0
v -8 -13 0
v -9 -13 0
v -9 -12 0
v -8 -12 0
v -9 -13 0
v -10 -13 0
v -10 -12 0
v -9 -12 0
v -10 -13 0
v -11 -13 0
v -11 -12 0
v -10 -12 0
v -11 -13 0
v -12 -13 0
v -12 -12 0
v -11 -12 0
v -12 -13 0
v -13 -13 0
v -13 -12 0
v -12 -12 0
v -13 -13 0
v -14 -13 0
v -14 -12 0
v -13 -12 0
v -14 -13 0
v -15 -13 0
v -15 -12 0
v -14 -12 0
v -15 -13 0
v -16 -13 0
v -16 -12 0
v -15 -12 0
v 0 -14 0
v -1 -14 0
v -1 -13 0
v 0 -13 0
v -1 -14 0
v -2 -14 0
v -2 -13 0
v -1 -13 0
v -2 -14 0
v -3 -14 0
v -3 -13 0
v -2 -13 0
v -3 -14 0
v -4 -14 0
v -4 -13 0
v -3 -13 0
v -4 -14 0
v -5 -14 0
v -5 -13 0
v -4 -13 0
v -5 -14 0
v -6 -14 0
v -6 -13 0
v -5 -13 0
v -6 -14 0
v -7 -14 0
v -7 -13 0
v -6 -13 0
v -7 -14 0
v -8 -14 0
v -8 -13 0
v -7 -13 0
v -8 -14 0
v -9 -14 0
v -9 -13 0
v -8 -13 0
v -9 -14 0
v -10 -14 0
v -10 -13 0
v -9 -13 0
v -10 -14 0
v -11 -14 0
v -11 -13 0
v -10 -13 0
v -11 -14 0
v -12 -14 0
v -12 -13 0
v -11 -13 0
v -12 -14 0
v -13 -14 0
v -13 -13 0
v -12 -13 0
v -13 -14 0
v -14 -14 0
v -14 -13 0
v -13 -13 0
v -14 -14 0
v -15 -14 0
v -15 -13 0
v -14 -13 0
v -15 -14 0
v -16 -14 0
v -16 -13 0
v -15 -13 0
v 0 -15 0
v -1 -15 0
v -1 -14 0
v 0 -14 0
v -1 -15 0
v -2 -15 0
v -2 -14 0
v -1 -14 0
v -2 -15 0
v -3 -15 0
v -3 -14 0
v -2 -14 0
v -3 -15 0
v -4 -15 0
v -4 -14 0
v -3 -14 0
v -4 -15 0
v -5 -15 0
v -5 -14 0
v -4 -14 0
v -5 -15 0
v -6 -15 0
v -6 -14 0
v -5 -14 0
v -6 -15 0
v -7 -15 0
v -7 -14 0
v -6 -14 0
v -7 -15 0
v -8 -15 0
v -8 -14 0
v -7 -14 0
v -8 -15 0
v -9 -15 0
v -9 -14 0
v -8 -14 0
v -9 -15 0
v -10 -15 0
v -10 -14 0
v -9 -14 0
v -10 -15 0
v -11 -15 0
v -11 -14 0
v -10 -14 0
v -11 -15 0
v -12 -15 0
v -12 -14 0
v -11 -14 0
v -12 -15 0
v -13 -15 0
v -13 -14 0
v -12 -14 0
v -13 -15 0
v -14 -15 0
v -14 -14 0
v -13 -14 0
v -14 -15 0
v -15 -15 0
v -15 -14 0
v -14 -14 0
v -15 -15 0
v -16 -15 0
v -16 -14 0
v -15 -14 0
v 0 -16 0
v -1 -16 0
v -1 -15 0
v 0 -15 0
v -1 -16 0
v -2 -16 0
v -2 -15 0
v -1 -15 0
v -2 -16 0
v -3 -16 0
v -3 -15 0
v -2 -15 0
v -3 -16 0
v -4 -16 0
v -4 -15 0
v -3 -15 0
v -4 -16 0
v -5 -16 0
v -5 -15 0
v -4 -15 0
v -5 -16 0
v -6 -16 0
v -6 -15 0
v -5 -15 0
v -6 -16 0
v -7 -16 0
v -7 -15 0
v -6 -15 0
v -7 -16 0
v -8 -16 0
v -8 -15 0
v -7 -15 0
v -8 -16 0
v -9 -16 0
v -9 -15 0
v -8 -15 0
v -9 -16 0
v -10 -16 0
v -10 -15 0
v -9 -15 0
v -10 -16 0
v -11 -16 0
v -11 -15 0
v -10 -15 0
v -11 -16 0
v -12 -16 0
v -12 -15 0
v -11 -15 0
v -12 -16 0
v -13 -16 0
v -13 -15 0
v -12 -15 0
v -13 -16 0
v -14 -16 0
v -14 -15 0
v -13 -15 0
v -14 -16 0
v -15 -16 0
v -15 -15 0
v -14 -15 0
v -15 -16 0
v -16 -16 0
v -16 -15 0
v -15 -15 0

# Texture cooridinates (Count = 36)
vt 0.015625 0.9223301
vt 0.0625 0.9223301
vt 0.0625 0.9805825
vt 0.015625 0.9805825
vt 0.34375 0.2815534
vt 0.390625 0.2815534
vt 0.390625 0.3398058
vt 0.34375 0.3398058
vt 0.34375 0.223301
vt 0.390625 0.223301
vt 0.296875 0.223301
vt 0.296875 0.2815534
vt 0.4375 0.2815534
vt 0.4375 0.3398058
vt 0.484375 0.2815534
vt 0.484375 0.3398058
vt 0.203125 0.1650485
vt 0.25 0.1650485
vt 0.25 0.223301
vt 0.203125 0.223301
vt 0.4375 0.223301
vt 0.484375 0.223301
vt 0.484375 0.1650485
vt 0.53125 0.1650485
vt 0.53125 0.223301
vt 0.625 0.7475728
vt 0.671875 0.7475728
vt 0.671875 0.8058252
vt 0.625 0.8058252
vt 0.71875 0.7475728
vt 0.71875 0.8058252
vt 0.15625 0.1650485
vt 0.15625 0.223301
vt 0.625 0.6893204
vt 0.671875 0.6893204
vt 0.71875 0.6893204

# Normal
vn 0 0 -1

# Mesh description
g FlyPowder_mesh_0006

# Faces
f 1/1/1 2/2/1 3/3/1 4/4/1
f 5/1/1 6/2/1 7/3/1 8/4/1
f 9/1/1 10/2/1 11/3/1 12/4/1
f 13/1/1 14/2/1 15/3/1 16/4/1
f 17/1/1 18/2/1 19/3/1 20/4/1
f 21/1/1 22/2/1 23/3/1 24/4/1
f 25/1/1 26/2/1 27/3/1 28/4/1
f 29/1/1 30/2/1 31/3/1 32/4/1
f 33/1/1 34/2/1 35/3/1 36/4/1
f 37/1/1 38/2/1 39/3/1 40/4/1
f 41/1/1 42/2/1 43/3/1 44/4/1
f 45/1/1 46/2/1 47/3/1 48/4/1
f 49/1/1 50/2/1 51/3/1 52/4/1
f 53/1/1 54/2/1 55/3/1 56/4/1
f 57/5/1 58/6/1 59/7/1 60/8/1
f 61/9/1 62/10/1 63/6/1 64/5/1
f 65/9/1 66/10/1 67/6/1 68/5/1
f 69/9/1 70/10/1 71/6/1 72/5/1
f 73/9/1 74/10/1 75/6/1 76/5/1
f 77/9/1 78/10/1 79/6/1 80/5/1
f 81/9/1 82/10/1 83/6/1 84/5/1
f 85/11/1 86/9/1 87/5/1 88/12/1
f 89/9/1 90/10/1 91/6/1 92/5/1
f 93/5/1 94/6/1 95/7/1 96/8/1
f 97/6/1 98/13/1 99/14/1 100/7/1
f 101/13/1 102/15/1 103/16/1 104/14/1
f 105/9/1 106/10/1 107/6/1 108/5/1
f 109/9/1 110/10/1 111/6/1 112/5/1
f 113/17/1 114/18/1 115/19/1 116/20/1
f 117/1/1 118/2/1 119/3/1 120/4/1
f 121/9/1 122/10/1 123/6/1 124/5/1
f 125/9/1 126/10/1 127/6/1 128/5/1
f 129/17/1 130/18/1 131/19/1 132/20/1
f 133/9/1 134/10/1 135/6/1 136/5/1
f 137/17/1 138/18/1 139/19/1 140/20/1
f 141/9/1 142/10/1 143/6/1 144/5/1
f 145/9/1 146/10/1 147/6/1 148/5/1
f 149/11/1 150/9/1 151/5/1 152/12/1
f 153/9/1 154/10/1 155/6/1 156/5/1
f 157/9/1 158/10/1 159/6/1 160/5/1
f 161/17/1 162/18/1 163/19/1 164/20/1
f 165/21/1 166/22/1 167/15/1 168/13/1
f 169/9/1 170/10/1 171/6/1 172/5/1
f 173/9/1 174/10/1 175/6/1 176/5/1
f 177/17/1 178/18/1 179/19/1 180/20/1
f 181/9/1 182/10/1 183/6/1 184/5/1
f 185/9/1 186/10/1 187/6/1 188/5/1
f 189/9/1 190/10/1 191/6/1 192/5/1
f 193/23/1 194/24/1 195/25/1 196/22/1
f 197/26/1 198/27/1 199/28/1 200/29/1
f 201/27/1 202/30/1 203/31/1 204/28/1
f 205/9/1 206/10/1 207/6/1 208/5/1
f 209/9/1 210/10/1 211/6/1 212/5/1
f 213/11/1 214/9/1 215/5/1 216/12/1
f 217/9/1 218/10/1 219/6/1 220/5/1
f 221/32/1 222/17/1 223/20/1 224/33/1
f 225/26/1 226/27/1 227/28/1 228/29/1
f 229/27/1 230/30/1 231/31/1 232/28/1
f 233/23/1 234/24/1 235/25/1 236/22/1
f 237/9/1 238/10/1 239/6/1 240/5/1
f 241/9/1 242/10/1 243/6/1 244/5/1
f 245/9/1 246/10/1 247/6/1 248/5/1
f 249/9/1 250/10/1 251/6/1 252/5/1
f 253/9/1 254/10/1 255/6/1 256/5/1
f 257/23/1 258/24/1 259/25/1 260/22/1
f 261/34/1 262/35/1 263/27/1 264/26/1
f 265/35/1 266/36/1 267/30/1 268/27/1
f 269/9/1 270/10/1 271/6/1 272/5/1
f 273/9/1 274/10/1 275/6/1 276/5/1
f 277/11/1 278/9/1 279/5/1 280/12/1
f 281/9/1 282/10/1 283/6/1 284/5/1
f 285/9/1 286/10/1 287/6/1 288/5/1
f 289/34/1 290/35/1 291/27/1 292/26/1
f 293/35/1 294/36/1 295/30/1 296/27/1
f 297/23/1 298/24/1 299/25/1 300/22/1
f 301/11/1 302/9/1 303/5/1 304/12/1
f 305/9/1 306/10/1 307/6/1 308/5/1
f 309/11/1 310/9/1 311/5/1 312/12/1
f 313/17/1 314/18/1 315/19/1 316/20/1
f 317/9/1 318/10/1 319/6/1 320/5/1
f 321/23/1 322/24/1 323/25/1 324/22/1
f 325/9/1 326/10/1 327/6/1 328/5/1
f 329/9/1 330/10/1 331/6/1 332/5/1
f 333/11/1 334/9/1 335/5/1 336/12/1
f 337/9/1 338/10/1 339/6/1 340/5/1
f 341/11/1 342/9/1 343/5/1 344/12/1
f 345/9/1 346/10/1 347/6/1 348/5/1
f 349/9/1 350/10/1 351/6/1 352/5/1
f 353/9/1 354/10/1 355/6/1 356/5/1
f 357/9/1 358/10/1 359/6/1 360/5/1
f 361/17/1 362/18/1 363/19/1 364/20/1
f 365/23/1 366/24/1 367/25/1 368/22/1
f 369/23/1 370/24/1 371/25/1 372/22/1
f 373/11/1 374/9/1 375/5/1 376/12/1
f 377/9/1 378/10/1 379/6/1 380/5/1
f 381/9/1 382/10/1 383/6/1 384/5/1
f 385/23/1 386/24/1 387/25/1 388/22/1
f 389/23/1 390/24/1 391/25/1 392/22/1
f 393/23/1 394/24/1 395/25/1 396/22/1
f 397/11/1 398/9/1 399/5/1 400/12/1
f 401/9/1 402/10/1 403/6/1 404/5/1
f 405/11/1 406/9/1 407/5/1 408/12/1
f 409/9/1 410/10/1 411/6/1 412/5/1
f 413/9/1 414/10/1 415/6/1 416/5/1
f 417/9/1 418/10/1 419/6/1 420/5/1
f 421/23/1 422/24/1 423/25/1 424/22/1
f 425/23/1 426/24/1 427/25/1 428/22/1
f 429/17/1 430/18/1 431/19/1 432/20/1
f 433/17/1 434/18/1 435/19/1 436/20/1
f 437/23/1 438/24/1 439/25/1 440/22/1
f 441/32/1 442/17/1 443/20/1 444/33/1
f 445/9/1 446/10/1 447/6/1 448/5/1
f 449/9/1 450/10/1 451/6/1 452/5/1
f 453/9/1 454/10/1 455/6/1 456/5/1
f 457/17/1 458/18/1 459/19/1 460/20/1
f 461/23/1 462/24/1 463/25/1 464/22/1
f 465/23/1 466/24/1 467/25/1 468/22/1
f 469/11/1 470/9/1 471/5/1 472/12/1
f 473/9/1 474/10/1 475/6/1 476/5/1
f 477/9/1 478/10/1 479/6/1 480/5/1
f 481/23/1 482/24/1 483/25/1 484/22/1
f 485/9/1 486/10/1 487/6/1 488/5/1
f 489/9/1 490/10/1 491/6/1 492/5/1
f 493/23/1 494/24/1 495/25/1 496/22/1
f 497/23/1 498/24/1 499/25/1 500/22/1
f 501/9/1 502/10/1 503/6/1 504/5/1
f 505/23/1 506/24/1 507/25/1 508/22/1
f 509/11/1 510/9/1 511/5/1 512/12/1
f 513/9/1 514/10/1 515/6/1 516/5/1
f 517/9/1 518/10/1 519/6/1 520/5/1
f 521/23/1 522/24/1 523/25/1 524/22/1
f 525/9/1 526/10/1 527/6/1 528/5/1
f 529/17/1 530/18/1 531/19/1 532/20/1
f 533/23/1 534/24/1 535/25/1 536/22/1
f 537/23/1 538/24/1 539/25/1 540/22/1
f 541/9/1 542/10/1 543/6/1 544/5/1
f 545/23/1 546/24/1 547/25/1 548/22/1
f 549/11/1 550/9/1 551/5/1 552/12/1
f 553/9/1 554/10/1 555/6/1 556/5/1
f 557/23/1 558/24/1 559/25/1 560/22/1
f 561/9/1 562/10/1 563/6/1 564/5/1
f 565/17/1 566/18/1 567/19/1 568/20/1

