# Tiled2Unity generated file. Do not modify by hand.
# Wavefront file for 'FlyPowder_mesh_0004.obj'

# Vertices (Count = 640)
v 0 -7 0
v -1 -7 0
v -1 -6 0
v 0 -6 0
v -1 -7 0
v -2 -7 0
v -2 -6 0
v -1 -6 0
v -2 -7 0
v -3 -7 0
v -3 -6 0
v -2 -6 0
v -3 -7 0
v -4 -7 0
v -4 -6 0
v -3 -6 0
v -4 -7 0
v -5 -7 0
v -5 -6 0
v -4 -6 0
v -5 -7 0
v -6 -7 0
v -6 -6 0
v -5 -6 0
v -6 -7 0
v -7 -7 0
v -7 -6 0
v -6 -6 0
v -7 -7 0
v -8 -7 0
v -8 -6 0
v -7 -6 0
v -8 -7 0
v -9 -7 0
v -9 -6 0
v -8 -6 0
v -9 -7 0
v -10 -7 0
v -10 -6 0
v -9 -6 0
v -10 -7 0
v -11 -7 0
v -11 -6 0
v -10 -6 0
v -11 -7 0
v -12 -7 0
v -12 -6 0
v -11 -6 0
v -12 -7 0
v -13 -7 0
v -13 -6 0
v -12 -6 0
v -13 -7 0
v -14 -7 0
v -14 -6 0
v -13 -6 0
v -14 -7 0
v -15 -7 0
v -15 -6 0
v -14 -6 0
v -15 -7 0
v -16 -7 0
v -16 -6 0
v -15 -6 0
v 0 -8 0
v -1 -8 0
v -1 -7 0
v 0 -7 0
v -1 -8 0
v -2 -8 0
v -2 -7 0
v -1 -7 0
v -2 -8 0
v -3 -8 0
v -3 -7 0
v -2 -7 0
v -3 -8 0
v -4 -8 0
v -4 -7 0
v -3 -7 0
v -4 -8 0
v -5 -8 0
v -5 -7 0
v -4 -7 0
v -5 -8 0
v -6 -8 0
v -6 -7 0
v -5 -7 0
v -6 -8 0
v -7 -8 0
v -7 -7 0
v -6 -7 0
v -7 -8 0
v -8 -8 0
v -8 -7 0
v -7 -7 0
v -8 -8 0
v -9 -8 0
v -9 -7 0
v -8 -7 0
v -9 -8 0
v -10 -8 0
v -10 -7 0
v -9 -7 0
v -10 -8 0
v -11 -8 0
v -11 -7 0
v -10 -7 0
v -11 -8 0
v -12 -8 0
v -12 -7 0
v -11 -7 0
v -12 -8 0
v -13 -8 0
v -13 -7 0
v -12 -7 0
v -13 -8 0
v -14 -8 0
v -14 -7 0
v -13 -7 0
v -14 -8 0
v -15 -8 0
v -15 -7 0
v -14 -7 0
v -15 -8 0
v -16 -8 0
v -16 -7 0
v -15 -7 0
v 0 -9 0
v -1 -9 0
v -1 -8 0
v 0 -8 0
v -1 -9 0
v -2 -9 0
v -2 -8 0
v -1 -8 0
v -2 -9 0
v -3 -9 0
v -3 -8 0
v -2 -8 0
v -3 -9 0
v -4 -9 0
v -4 -8 0
v -3 -8 0
v -4 -9 0
v -5 -9 0
v -5 -8 0
v -4 -8 0
v -5 -9 0
v -6 -9 0
v -6 -8 0
v -5 -8 0
v -6 -9 0
v -7 -9 0
v -7 -8 0
v -6 -8 0
v -7 -9 0
v -8 -9 0
v -8 -8 0
v -7 -8 0
v -8 -9 0
v -9 -9 0
v -9 -8 0
v -8 -8 0
v -9 -9 0
v -10 -9 0
v -10 -8 0
v -9 -8 0
v -10 -9 0
v -11 -9 0
v -11 -8 0
v -10 -8 0
v -11 -9 0
v -12 -9 0
v -12 -8 0
v -11 -8 0
v -12 -9 0
v -13 -9 0
v -13 -8 0
v -12 -8 0
v -13 -9 0
v -14 -9 0
v -14 -8 0
v -13 -8 0
v -14 -9 0
v -15 -9 0
v -15 -8 0
v -14 -8 0
v -15 -9 0
v -16 -9 0
v -16 -8 0
v -15 -8 0
v 0 -10 0
v -1 -10 0
v -1 -9 0
v 0 -9 0
v -1 -10 0
v -2 -10 0
v -2 -9 0
v -1 -9 0
v -2 -10 0
v -3 -10 0
v -3 -9 0
v -2 -9 0
v -3 -10 0
v -4 -10 0
v -4 -9 0
v -3 -9 0
v -4 -10 0
v -5 -10 0
v -5 -9 0
v -4 -9 0
v -5 -10 0
v -6 -10 0
v -6 -9 0
v -5 -9 0
v -6 -10 0
v -7 -10 0
v -7 -9 0
v -6 -9 0
v -7 -10 0
v -8 -10 0
v -8 -9 0
v -7 -9 0
v -8 -10 0
v -9 -10 0
v -9 -9 0
v -8 -9 0
v -9 -10 0
v -10 -10 0
v -10 -9 0
v -9 -9 0
v -10 -10 0
v -11 -10 0
v -11 -9 0
v -10 -9 0
v -11 -10 0
v -12 -10 0
v -12 -9 0
v -11 -9 0
v -12 -10 0
v -13 -10 0
v -13 -9 0
v -12 -9 0
v -13 -10 0
v -14 -10 0
v -14 -9 0
v -13 -9 0
v -14 -10 0
v -15 -10 0
v -15 -9 0
v -14 -9 0
v -15 -10 0
v -16 -10 0
v -16 -9 0
v -15 -9 0
v 0 -11 0
v -1 -11 0
v -1 -10 0
v 0 -10 0
v -1 -11 0
v -2 -11 0
v -2 -10 0
v -1 -10 0
v -2 -11 0
v -3 -11 0
v -3 -10 0
v -2 -10 0
v -3 -11 0
v -4 -11 0
v -4 -10 0
v -3 -10 0
v -4 -11 0
v -5 -11 0
v -5 -10 0
v -4 -10 0
v -5 -11 0
v -6 -11 0
v -6 -10 0
v -5 -10 0
v -6 -11 0
v -7 -11 0
v -7 -10 0
v -6 -10 0
v -7 -11 0
v -8 -11 0
v -8 -10 0
v -7 -10 0
v -8 -11 0
v -9 -11 0
v -9 -10 0
v -8 -10 0
v -9 -11 0
v -10 -11 0
v -10 -10 0
v -9 -10 0
v -10 -11 0
v -11 -11 0
v -11 -10 0
v -10 -10 0
v -11 -11 0
v -12 -11 0
v -12 -10 0
v -11 -10 0
v -12 -11 0
v -13 -11 0
v -13 -10 0
v -12 -10 0
v -13 -11 0
v -14 -11 0
v -14 -10 0
v -13 -10 0
v -14 -11 0
v -15 -11 0
v -15 -10 0
v -14 -10 0
v -15 -11 0
v -16 -11 0
v -16 -10 0
v -15 -10 0
v 0 -12 0
v -1 -12 0
v -1 -11 0
v 0 -11 0
v -1 -12 0
v -2 -12 0
v -2 -11 0
v -1 -11 0
v -2 -12 0
v -3 -12 0
v -3 -11 0
v -2 -11 0
v -3 -12 0
v -4 -12 0
v -4 -11 0
v -3 -11 0
v -4 -12 0
v -5 -12 0
v -5 -11 0
v -4 -11 0
v -5 -12 0
v -6 -12 0
v -6 -11 0
v -5 -11 0
v -6 -12 0
v -7 -12 0
v -7 -11 0
v -6 -11 0
v -7 -12 0
v -8 -12 0
v -8 -11 0
v -7 -11 0
v -8 -12 0
v -9 -12 0
v -9 -11 0
v -8 -11 0
v -9 -12 0
v -10 -12 0
v -10 -11 0
v -9 -11 0
v -10 -12 0
v -11 -12 0
v -11 -11 0
v -10 -11 0
v -11 -12 0
v -12 -12 0
v -12 -11 0
v -11 -11 0
v -12 -12 0
v -13 -12 0
v -13 -11 0
v -12 -11 0
v -13 -12 0
v -14 -12 0
v -14 -11 0
v -13 -11 0
v -14 -12 0
v -15 -12 0
v -15 -11 0
v -14 -11 0
v -15 -12 0
v -16 -12 0
v -16 -11 0
v -15 -11 0
v 0 -13 0
v -1 -13 0
v -1 -12 0
v 0 -12 0
v -1 -13 0
v -2 -13 0
v -2 -12 0
v -1 -12 0
v -2 -13 0
v -3 -13 0
v -3 -12 0
v -2 -12 0
v -3 -13 0
v -4 -13 0
v -4 -12 0
v -3 -12 0
v -4 -13 0
v -5 -13 0
v -5 -12 0
v -4 -12 0
v -5 -13 0
v -6 -13 0
v -6 -12 0
v -5 -12 0
v -6 -13 0
v -7 -13 0
v -7 -12 0
v -6 -12 0
v -7 -13 0
v -8 -13 0
v -8 -12 0
v -7 -12 0
v -8 -13 0
v -9 -13 0
v -9 -12 0
v -8 -12 0
v -9 -13 0
v -10 -13 0
v -10 -12 0
v -9 -12 0
v -10 -13 0
v -11 -13 0
v -11 -12 0
v -10 -12 0
v -11 -13 0
v -12 -13 0
v -12 -12 0
v -11 -12 0
v -12 -13 0
v -13 -13 0
v -13 -12 0
v -12 -12 0
v -13 -13 0
v -14 -13 0
v -14 -12 0
v -13 -12 0
v -14 -13 0
v -15 -13 0
v -15 -12 0
v -14 -12 0
v -15 -13 0
v -16 -13 0
v -16 -12 0
v -15 -12 0
v 0 -14 0
v -1 -14 0
v -1 -13 0
v 0 -13 0
v -1 -14 0
v -2 -14 0
v -2 -13 0
v -1 -13 0
v -2 -14 0
v -3 -14 0
v -3 -13 0
v -2 -13 0
v -3 -14 0
v -4 -14 0
v -4 -13 0
v -3 -13 0
v -4 -14 0
v -5 -14 0
v -5 -13 0
v -4 -13 0
v -5 -14 0
v -6 -14 0
v -6 -13 0
v -5 -13 0
v -6 -14 0
v -7 -14 0
v -7 -13 0
v -6 -13 0
v -7 -14 0
v -8 -14 0
v -8 -13 0
v -7 -13 0
v -8 -14 0
v -9 -14 0
v -9 -13 0
v -8 -13 0
v -9 -14 0
v -10 -14 0
v -10 -13 0
v -9 -13 0
v -10 -14 0
v -11 -14 0
v -11 -13 0
v -10 -13 0
v -11 -14 0
v -12 -14 0
v -12 -13 0
v -11 -13 0
v -12 -14 0
v -13 -14 0
v -13 -13 0
v -12 -13 0
v -13 -14 0
v -14 -14 0
v -14 -13 0
v -13 -13 0
v -14 -14 0
v -15 -14 0
v -15 -13 0
v -14 -13 0
v -15 -14 0
v -16 -14 0
v -16 -13 0
v -15 -13 0
v 0 -15 0
v -1 -15 0
v -1 -14 0
v 0 -14 0
v -1 -15 0
v -2 -15 0
v -2 -14 0
v -1 -14 0
v -2 -15 0
v -3 -15 0
v -3 -14 0
v -2 -14 0
v -3 -15 0
v -4 -15 0
v -4 -14 0
v -3 -14 0
v -4 -15 0
v -5 -15 0
v -5 -14 0
v -4 -14 0
v -5 -15 0
v -6 -15 0
v -6 -14 0
v -5 -14 0
v -6 -15 0
v -7 -15 0
v -7 -14 0
v -6 -14 0
v -7 -15 0
v -8 -15 0
v -8 -14 0
v -7 -14 0
v -8 -15 0
v -9 -15 0
v -9 -14 0
v -8 -14 0
v -9 -15 0
v -10 -15 0
v -10 -14 0
v -9 -14 0
v -10 -15 0
v -11 -15 0
v -11 -14 0
v -10 -14 0
v -11 -15 0
v -12 -15 0
v -12 -14 0
v -11 -14 0
v -12 -15 0
v -13 -15 0
v -13 -14 0
v -12 -14 0
v -13 -15 0
v -14 -15 0
v -14 -14 0
v -13 -14 0
v -14 -15 0
v -15 -15 0
v -15 -14 0
v -14 -14 0
v -15 -15 0
v -16 -15 0
v -16 -14 0
v -15 -14 0
v 0 -16 0
v -1 -16 0
v -1 -15 0
v 0 -15 0
v -1 -16 0
v -2 -16 0
v -2 -15 0
v -1 -15 0
v -2 -16 0
v -3 -16 0
v -3 -15 0
v -2 -15 0
v -3 -16 0
v -4 -16 0
v -4 -15 0
v -3 -15 0
v -4 -16 0
v -5 -16 0
v -5 -15 0
v -4 -15 0
v -5 -16 0
v -6 -16 0
v -6 -15 0
v -5 -15 0
v -6 -16 0
v -7 -16 0
v -7 -15 0
v -6 -15 0
v -7 -16 0
v -8 -16 0
v -8 -15 0
v -7 -15 0
v -8 -16 0
v -9 -16 0
v -9 -15 0
v -8 -15 0
v -9 -16 0
v -10 -16 0
v -10 -15 0
v -9 -15 0
v -10 -16 0
v -11 -16 0
v -11 -15 0
v -10 -15 0
v -11 -16 0
v -12 -16 0
v -12 -15 0
v -11 -15 0
v -12 -16 0
v -13 -16 0
v -13 -15 0
v -12 -15 0
v -13 -16 0
v -14 -16 0
v -14 -15 0
v -13 -15 0
v -14 -16 0
v -15 -16 0
v -15 -15 0
v -14 -15 0
v -15 -16 0
v -16 -16 0
v -16 -15 0
v -15 -15 0

# Texture cooridinates (Count = 39)
vt 0.296875 0.2815534
vt 0.34375 0.2815534
vt 0.34375 0.3398058
vt 0.296875 0.3398058
vt 0.390625 0.2815534
vt 0.390625 0.3398058
vt 0.4375 0.2815534
vt 0.4375 0.3398058
vt 0.484375 0.2815534
vt 0.484375 0.3398058
vt 0.296875 0.223301
vt 0.34375 0.223301
vt 0.390625 0.223301
vt 0.484375 0.1650485
vt 0.53125 0.1650485
vt 0.53125 0.223301
vt 0.484375 0.223301
vt 0.15625 0.1650485
vt 0.203125 0.1650485
vt 0.203125 0.223301
vt 0.15625 0.223301
vt 0.4375 0.223301
vt 0.25 0.1650485
vt 0.25 0.223301
vt 0.203125 0.2815534
vt 0.15625 0.2815534
vt 0.109375 0.1650485
vt 0.109375 0.223301
vt 0.625 0.7475728
vt 0.671875 0.7475728
vt 0.671875 0.8058252
vt 0.625 0.8058252
vt 0.71875 0.7475728
vt 0.71875 0.8058252
vt 0.625 0.6893204
vt 0.671875 0.6893204
vt 0.71875 0.6893204
vt 0.109375 0.1067961
vt 0.15625 0.1067961

# Normal
vn 0 0 -1

# Mesh description
g FlyPowder_mesh_0004

# Faces
f 1/1/1 2/2/1 3/3/1 4/4/1
f 5/2/1 6/5/1 7/6/1 8/3/1
f 9/2/1 10/5/1 11/6/1 12/3/1
f 13/2/1 14/5/1 15/6/1 16/3/1
f 17/2/1 18/5/1 19/6/1 20/3/1
f 21/2/1 22/5/1 23/6/1 24/3/1
f 25/2/1 26/5/1 27/6/1 28/3/1
f 29/2/1 30/5/1 31/6/1 32/3/1
f 33/2/1 34/5/1 35/6/1 36/3/1
f 37/2/1 38/5/1 39/6/1 40/3/1
f 41/2/1 42/5/1 43/6/1 44/3/1
f 45/2/1 46/5/1 47/6/1 48/3/1
f 49/2/1 50/5/1 51/6/1 52/3/1
f 53/2/1 54/5/1 55/6/1 56/3/1
f 57/5/1 58/7/1 59/8/1 60/6/1
f 61/7/1 62/9/1 63/10/1 64/8/1
f 65/11/1 66/12/1 67/2/1 68/1/1
f 69/12/1 70/13/1 71/5/1 72/2/1
f 73/14/1 74/15/1 75/16/1 76/17/1
f 77/11/1 78/12/1 79/2/1 80/1/1
f 81/14/1 82/15/1 83/16/1 84/17/1
f 85/11/1 86/12/1 87/2/1 88/1/1
f 89/12/1 90/13/1 91/5/1 92/2/1
f 93/11/1 94/12/1 95/2/1 96/1/1
f 97/14/1 98/15/1 99/16/1 100/17/1
f 101/11/1 102/12/1 103/2/1 104/1/1
f 105/11/1 106/12/1 107/2/1 108/1/1
f 109/14/1 110/15/1 111/16/1 112/17/1
f 113/11/1 114/12/1 115/2/1 116/1/1
f 117/12/1 118/13/1 119/5/1 120/2/1
f 121/18/1 122/19/1 123/20/1 124/21/1
f 125/22/1 126/17/1 127/9/1 128/7/1
f 129/14/1 130/15/1 131/16/1 132/17/1
f 133/14/1 134/15/1 135/16/1 136/17/1
f 137/11/1 138/12/1 139/2/1 140/1/1
f 141/11/1 142/12/1 143/2/1 144/1/1
f 145/12/1 146/13/1 147/5/1 148/2/1
f 149/14/1 150/15/1 151/16/1 152/17/1
f 153/14/1 154/15/1 155/16/1 156/17/1
f 157/12/1 158/13/1 159/5/1 160/2/1
f 161/12/1 162/13/1 163/5/1 164/2/1
f 165/19/1 166/23/1 167/24/1 168/20/1
f 169/14/1 170/15/1 171/16/1 172/17/1
f 173/14/1 174/15/1 175/16/1 176/17/1
f 177/21/1 178/20/1 179/25/1 180/26/1
f 181/27/1 182/18/1 183/21/1 184/28/1
f 185/12/1 186/13/1 187/5/1 188/2/1
f 189/12/1 190/13/1 191/5/1 192/2/1
f 193/12/1 194/13/1 195/5/1 196/2/1
f 197/14/1 198/15/1 199/16/1 200/17/1
f 201/11/1 202/12/1 203/2/1 204/1/1
f 205/14/1 206/15/1 207/16/1 208/17/1
f 209/14/1 210/15/1 211/16/1 212/17/1
f 213/11/1 214/12/1 215/2/1 216/1/1
f 217/11/1 218/12/1 219/2/1 220/1/1
f 221/18/1 222/19/1 223/20/1 224/21/1
f 225/29/1 226/30/1 227/31/1 228/32/1
f 229/30/1 230/33/1 231/34/1 232/31/1
f 233/11/1 234/12/1 235/2/1 236/1/1
f 237/12/1 238/13/1 239/5/1 240/2/1
f 241/14/1 242/15/1 243/16/1 244/17/1
f 245/14/1 246/15/1 247/16/1 248/17/1
f 249/12/1 250/13/1 251/5/1 252/2/1
f 253/19/1 254/23/1 255/24/1 256/20/1
f 257/12/1 258/13/1 259/5/1 260/2/1
f 261/14/1 262/15/1 263/16/1 264/17/1
f 265/14/1 266/15/1 267/16/1 268/17/1
f 269/12/1 270/13/1 271/5/1 272/2/1
f 273/14/1 274/15/1 275/16/1 276/17/1
f 277/11/1 278/12/1 279/2/1 280/1/1
f 281/19/1 282/23/1 283/24/1 284/20/1
f 285/12/1 286/13/1 287/5/1 288/2/1
f 289/35/1 290/36/1 291/30/1 292/29/1
f 293/36/1 294/37/1 295/33/1 296/30/1
f 297/27/1 298/18/1 299/21/1 300/28/1
f 301/18/1 302/19/1 303/20/1 304/21/1
f 305/12/1 306/13/1 307/5/1 308/2/1
f 309/18/1 310/19/1 311/20/1 312/21/1
f 313/14/1 314/15/1 315/16/1 316/17/1
f 317/14/1 318/15/1 319/16/1 320/17/1
f 321/14/1 322/15/1 323/16/1 324/17/1
f 325/12/1 326/13/1 327/5/1 328/2/1
f 329/12/1 330/13/1 331/5/1 332/2/1
f 333/14/1 334/15/1 335/16/1 336/17/1
f 337/18/1 338/19/1 339/20/1 340/21/1
f 341/14/1 342/15/1 343/16/1 344/17/1
f 345/14/1 346/15/1 347/16/1 348/17/1
f 349/18/1 350/19/1 351/20/1 352/21/1
f 353/14/1 354/15/1 355/16/1 356/17/1
f 357/14/1 358/15/1 359/16/1 360/17/1
f 361/11/1 362/12/1 363/2/1 364/1/1
f 365/19/1 366/23/1 367/24/1 368/20/1
f 369/12/1 370/13/1 371/5/1 372/2/1
f 373/12/1 374/13/1 375/5/1 376/2/1
f 377/12/1 378/13/1 379/5/1 380/2/1
f 381/12/1 382/13/1 383/5/1 384/2/1
f 385/12/1 386/13/1 387/5/1 388/2/1
f 389/14/1 390/15/1 391/16/1 392/17/1
f 393/14/1 394/15/1 395/16/1 396/17/1
f 397/12/1 398/13/1 399/5/1 400/2/1
f 401/12/1 402/13/1 403/5/1 404/2/1
f 405/12/1 406/13/1 407/5/1 408/2/1
f 409/12/1 410/13/1 411/5/1 412/2/1
f 413/12/1 414/13/1 415/5/1 416/2/1
f 417/12/1 418/13/1 419/5/1 420/2/1
f 421/18/1 422/19/1 423/20/1 424/21/1
f 425/14/1 426/15/1 427/16/1 428/17/1
f 429/14/1 430/15/1 431/16/1 432/17/1
f 433/18/1 434/19/1 435/20/1 436/21/1
f 437/12/1 438/13/1 439/5/1 440/2/1
f 441/19/1 442/23/1 443/24/1 444/20/1
f 445/19/1 446/23/1 447/24/1 448/20/1
f 449/14/1 450/15/1 451/16/1 452/17/1
f 453/12/1 454/13/1 455/5/1 456/2/1
f 457/12/1 458/13/1 459/5/1 460/2/1
f 461/12/1 462/13/1 463/5/1 464/2/1
f 465/12/1 466/13/1 467/5/1 468/2/1
f 469/19/1 470/23/1 471/24/1 472/20/1
f 473/18/1 474/19/1 475/20/1 476/21/1
f 477/12/1 478/13/1 479/5/1 480/2/1
f 481/19/1 482/23/1 483/24/1 484/20/1
f 485/12/1 486/13/1 487/5/1 488/2/1
f 489/12/1 490/13/1 491/5/1 492/2/1
f 493/12/1 494/13/1 495/5/1 496/2/1
f 497/12/1 498/13/1 499/5/1 500/2/1
f 501/18/1 502/19/1 503/20/1 504/21/1
f 505/18/1 506/19/1 507/20/1 508/21/1
f 509/12/1 510/13/1 511/5/1 512/2/1
f 513/27/1 514/18/1 515/21/1 516/28/1
f 517/12/1 518/13/1 519/5/1 520/2/1
f 521/12/1 522/13/1 523/5/1 524/2/1
f 525/12/1 526/13/1 527/5/1 528/2/1
f 529/12/1 530/13/1 531/5/1 532/2/1
f 533/19/1 534/23/1 535/24/1 536/20/1
f 537/12/1 538/13/1 539/5/1 540/2/1
f 541/12/1 542/13/1 543/5/1 544/2/1
f 545/12/1 546/13/1 547/5/1 548/2/1
f 549/12/1 550/13/1 551/5/1 552/2/1
f 553/19/1 554/23/1 555/24/1 556/20/1
f 557/18/1 558/19/1 559/20/1 560/21/1
f 561/12/1 562/13/1 563/5/1 564/2/1
f 565/19/1 566/23/1 567/24/1 568/20/1
f 569/19/1 570/23/1 571/24/1 572/20/1
f 573/12/1 574/13/1 575/5/1 576/2/1
f 577/38/1 578/39/1 579/18/1 580/27/1
f 581/38/1 582/39/1 583/18/1 584/27/1
f 585/38/1 586/39/1 587/18/1 588/27/1
f 589/14/1 590/15/1 591/16/1 592/17/1
f 593/12/1 594/13/1 595/5/1 596/2/1
f 597/11/1 598/12/1 599/2/1 600/1/1
f 601/12/1 602/13/1 603/5/1 604/2/1
f 605/19/1 606/23/1 607/24/1 608/20/1
f 609/19/1 610/23/1 611/24/1 612/20/1
f 613/11/1 614/12/1 615/2/1 616/1/1
f 617/12/1 618/13/1 619/5/1 620/2/1
f 621/12/1 622/13/1 623/5/1 624/2/1
f 625/19/1 626/23/1 627/24/1 628/20/1
f 629/14/1 630/15/1 631/16/1 632/17/1
f 633/14/1 634/15/1 635/16/1 636/17/1
f 637/14/1 638/15/1 639/16/1 640/17/1

