# Tiled2Unity generated file. Do not modify by hand.
# Wavefront file for 'FlyPowder_mesh_0021.obj'

# Vertices (Count = 176)
v -5 -5 0
v -6 -5 0
v -6 -4 0
v -5 -4 0
v -6 -5 0
v -7 -5 0
v -7 -4 0
v -6 -4 0
v -7 -5 0
v -8 -5 0
v -8 -4 0
v -7 -4 0
v -8 -5 0
v -9 -5 0
v -9 -4 0
v -8 -4 0
v -9 -5 0
v -10 -5 0
v -10 -4 0
v -9 -4 0
v -10 -5 0
v -11 -5 0
v -11 -4 0
v -10 -4 0
v 0 -6 0
v -1 -6 0
v -1 -5 0
v 0 -5 0
v -1 -6 0
v -2 -6 0
v -2 -5 0
v -1 -5 0
v -2 -6 0
v -3 -6 0
v -3 -5 0
v -2 -5 0
v -3 -6 0
v -4 -6 0
v -4 -5 0
v -3 -5 0
v -4 -6 0
v -5 -6 0
v -5 -5 0
v -4 -5 0
v -5 -6 0
v -6 -6 0
v -6 -5 0
v -5 -5 0
v -6 -6 0
v -7 -6 0
v -7 -5 0
v -6 -5 0
v -7 -6 0
v -8 -6 0
v -8 -5 0
v -7 -5 0
v 0 -7 0
v -1 -7 0
v -1 -6 0
v 0 -6 0
v -1 -7 0
v -2 -7 0
v -2 -6 0
v -1 -6 0
v -2 -7 0
v -3 -7 0
v -3 -6 0
v -2 -6 0
v -3 -7 0
v -4 -7 0
v -4 -6 0
v -3 -6 0
v -4 -7 0
v -5 -7 0
v -5 -6 0
v -4 -6 0
v -5 -7 0
v -6 -7 0
v -6 -6 0
v -5 -6 0
v -6 -7 0
v -7 -7 0
v -7 -6 0
v -6 -6 0
v -9 -7 0
v -10 -7 0
v -10 -6 0
v -9 -6 0
v -10 -7 0
v -11 -7 0
v -11 -6 0
v -10 -6 0
v 0 -8 0
v -1 -8 0
v -1 -7 0
v 0 -7 0
v -1 -8 0
v -2 -8 0
v -2 -7 0
v -1 -7 0
v -2 -8 0
v -3 -8 0
v -3 -7 0
v -2 -7 0
v -3 -8 0
v -4 -8 0
v -4 -7 0
v -3 -7 0
v -4 -8 0
v -5 -8 0
v -5 -7 0
v -4 -7 0
v -5 -8 0
v -6 -8 0
v -6 -7 0
v -5 -7 0
v -9 -8 0
v -10 -8 0
v -10 -7 0
v -9 -7 0
v -10 -8 0
v -11 -8 0
v -11 -7 0
v -10 -7 0
v -9 -9 0
v -10 -9 0
v -10 -8 0
v -9 -8 0
v -10 -9 0
v -11 -9 0
v -11 -8 0
v -10 -8 0
v -12 -9 0
v -13 -9 0
v -13 -8 0
v -12 -8 0
v -9 -10 0
v -10 -10 0
v -10 -9 0
v -9 -9 0
v -10 -10 0
v -11 -10 0
v -11 -9 0
v -10 -9 0
v -9 -11 0
v -10 -11 0
v -10 -10 0
v -9 -10 0
v -10 -11 0
v -11 -11 0
v -11 -10 0
v -10 -10 0
v -9 -12 0
v -10 -12 0
v -10 -11 0
v -9 -11 0
v -10 -12 0
v -11 -12 0
v -11 -11 0
v -10 -11 0
v -9 -13 0
v -10 -13 0
v -10 -12 0
v -9 -12 0
v -10 -13 0
v -11 -13 0
v -11 -12 0
v -10 -12 0
v -9 -14 0
v -10 -14 0
v -10 -13 0
v -9 -13 0
v -10 -14 0
v -11 -14 0
v -11 -13 0
v -10 -13 0

# Texture cooridinates (Count = 39)
vt 0.25 0.631068
vt 0.296875 0.631068
vt 0.296875 0.6893204
vt 0.25 0.6893204
vt 0.34375 0.631068
vt 0.34375 0.6893204
vt 0.390625 0.631068
vt 0.390625 0.6893204
vt 0.0625 0.9223301
vt 0.109375 0.9223301
vt 0.109375 0.9805825
vt 0.0625 0.9805825
vt 0.15625 0.9223301
vt 0.15625 0.9805825
vt 0.4375 0.631068
vt 0.4375 0.6893204
vt 0.484375 0.631068
vt 0.484375 0.6893204
vt 0.203125 0.9223301
vt 0.203125 0.9805825
vt 0.765625 0.2815534
vt 0.8125 0.2815534
vt 0.8125 0.3398058
vt 0.765625 0.3398058
vt 0.859375 0.2815534
vt 0.859375 0.3398058
vt 0.765625 0.223301
vt 0.8125 0.223301
vt 0.859375 0.223301
vt 0.765625 0.1650485
vt 0.8125 0.1650485
vt 0.859375 0.1650485
vt 0.0625 0.1067961
vt 0.109375 0.1067961
vt 0.109375 0.1650485
vt 0.0625 0.1650485
vt 0.765625 0.1067961
vt 0.8125 0.1067961
vt 0.859375 0.1067961

# Normal
vn 0 0 -1

# Mesh description
g FlyPowder_mesh_0021

# Faces
f 1/1/1 2/2/1 3/3/1 4/4/1
f 5/2/1 6/5/1 7/6/1 8/3/1
f 9/5/1 10/7/1 11/8/1 12/6/1
f 13/1/1 14/2/1 15/3/1 16/4/1
f 17/2/1 18/5/1 19/6/1 20/3/1
f 21/5/1 22/7/1 23/8/1 24/6/1
f 25/2/1 26/5/1 27/6/1 28/3/1
f 29/9/1 30/10/1 31/11/1 32/12/1
f 33/10/1 34/13/1 35/14/1 36/11/1
f 37/1/1 38/2/1 39/3/1 40/4/1
f 41/2/1 42/5/1 43/6/1 44/3/1
f 45/5/1 46/7/1 47/8/1 48/6/1
f 49/7/1 50/15/1 51/16/1 52/8/1
f 53/15/1 54/17/1 55/18/1 56/16/1
f 57/5/1 58/7/1 59/8/1 60/6/1
f 61/7/1 62/15/1 63/16/1 64/8/1
f 65/15/1 66/17/1 67/18/1 68/16/1
f 69/7/1 70/15/1 71/16/1 72/8/1
f 73/15/1 74/17/1 75/18/1 76/16/1
f 77/10/1 78/13/1 79/14/1 80/11/1
f 81/13/1 82/19/1 83/20/1 84/14/1
f 85/21/1 86/22/1 87/23/1 88/24/1
f 89/22/1 90/25/1 91/26/1 92/23/1
f 93/7/1 94/15/1 95/16/1 96/8/1
f 97/10/1 98/13/1 99/14/1 100/11/1
f 101/10/1 102/13/1 103/14/1 104/11/1
f 105/10/1 106/13/1 107/14/1 108/11/1
f 109/10/1 110/13/1 111/14/1 112/11/1
f 113/13/1 114/19/1 115/20/1 116/14/1
f 117/27/1 118/28/1 119/22/1 120/21/1
f 121/28/1 122/29/1 123/25/1 124/22/1
f 125/30/1 126/31/1 127/28/1 128/27/1
f 129/31/1 130/32/1 131/29/1 132/28/1
f 133/33/1 134/34/1 135/35/1 136/36/1
f 137/37/1 138/38/1 139/31/1 140/30/1
f 141/38/1 142/39/1 143/32/1 144/31/1
f 145/21/1 146/22/1 147/23/1 148/24/1
f 149/22/1 150/25/1 151/26/1 152/23/1
f 153/27/1 154/28/1 155/22/1 156/21/1
f 157/28/1 158/29/1 159/25/1 160/22/1
f 161/30/1 162/31/1 163/28/1 164/27/1
f 165/31/1 166/32/1 167/29/1 168/28/1
f 169/37/1 170/38/1 171/31/1 172/30/1
f 173/38/1 174/39/1 175/32/1 176/31/1

