# Tiled2Unity generated file. Do not modify by hand.
# Wavefront file for 'FlyPowder_mesh_0012.obj'

# Vertices (Count = 232)
v 0 -1 0
v -1 -1 0
v -1 0 0
v 0 0 0
v -1 -1 0
v -2 -1 0
v -2 0 0
v -1 0 0
v -2 -1 0
v -3 -1 0
v -3 0 0
v -2 0 0
v -3 -1 0
v -4 -1 0
v -4 0 0
v -3 0 0
v -8 -1 0
v -9 -1 0
v -9 0 0
v -8 0 0
v -9 -1 0
v -10 -1 0
v -10 0 0
v -9 0 0
v -10 -1 0
v -11 -1 0
v -11 0 0
v -10 0 0
v -11 -1 0
v -12 -1 0
v -12 0 0
v -11 0 0
v -12 -1 0
v -13 -1 0
v -13 0 0
v -12 0 0
v -13 -1 0
v -14 -1 0
v -14 0 0
v -13 0 0
v -14 -1 0
v -15 -1 0
v -15 0 0
v -14 0 0
v -15 -1 0
v -16 -1 0
v -16 0 0
v -15 0 0
v 0 -2 0
v -1 -2 0
v -1 -1 0
v 0 -1 0
v -1 -2 0
v -2 -2 0
v -2 -1 0
v -1 -1 0
v -2 -2 0
v -3 -2 0
v -3 -1 0
v -2 -1 0
v -3 -2 0
v -4 -2 0
v -4 -1 0
v -3 -1 0
v -8 -2 0
v -9 -2 0
v -9 -1 0
v -8 -1 0
v -9 -2 0
v -10 -2 0
v -10 -1 0
v -9 -1 0
v -10 -2 0
v -11 -2 0
v -11 -1 0
v -10 -1 0
v -11 -2 0
v -12 -2 0
v -12 -1 0
v -11 -1 0
v -12 -2 0
v -13 -2 0
v -13 -1 0
v -12 -1 0
v -13 -2 0
v -14 -2 0
v -14 -1 0
v -13 -1 0
v -14 -2 0
v -15 -2 0
v -15 -1 0
v -14 -1 0
v -15 -2 0
v -16 -2 0
v -16 -1 0
v -15 -1 0
v 0 -3 0
v -1 -3 0
v -1 -2 0
v 0 -2 0
v -1 -3 0
v -2 -3 0
v -2 -2 0
v -1 -2 0
v -2 -3 0
v -3 -3 0
v -3 -2 0
v -2 -2 0
v -3 -3 0
v -4 -3 0
v -4 -2 0
v -3 -2 0
v -8 -3 0
v -9 -3 0
v -9 -2 0
v -8 -2 0
v -9 -3 0
v -10 -3 0
v -10 -2 0
v -9 -2 0
v -10 -3 0
v -11 -3 0
v -11 -2 0
v -10 -2 0
v -11 -3 0
v -12 -3 0
v -12 -2 0
v -11 -2 0
v -12 -3 0
v -13 -3 0
v -13 -2 0
v -12 -2 0
v -13 -3 0
v -14 -3 0
v -14 -2 0
v -13 -2 0
v -14 -3 0
v -15 -3 0
v -15 -2 0
v -14 -2 0
v -15 -3 0
v -16 -3 0
v -16 -2 0
v -15 -2 0
v 0 -4 0
v -1 -4 0
v -1 -3 0
v 0 -3 0
v -1 -4 0
v -2 -4 0
v -2 -3 0
v -1 -3 0
v -2 -4 0
v -3 -4 0
v -3 -3 0
v -2 -3 0
v -8 -4 0
v -9 -4 0
v -9 -3 0
v -8 -3 0
v -9 -4 0
v -10 -4 0
v -10 -3 0
v -9 -3 0
v -10 -4 0
v -11 -4 0
v -11 -3 0
v -10 -3 0
v -11 -4 0
v -12 -4 0
v -12 -3 0
v -11 -3 0
v -12 -4 0
v -13 -4 0
v -13 -3 0
v -12 -3 0
v -13 -4 0
v -14 -4 0
v -14 -3 0
v -13 -3 0
v -14 -4 0
v -15 -4 0
v -15 -3 0
v -14 -3 0
v -15 -4 0
v -16 -4 0
v -16 -3 0
v -15 -3 0
v 0 -5 0
v -1 -5 0
v -1 -4 0
v 0 -4 0
v -1 -5 0
v -2 -5 0
v -2 -4 0
v -1 -4 0
v -2 -5 0
v -3 -5 0
v -3 -4 0
v -2 -4 0
v -8 -5 0
v -9 -5 0
v -9 -4 0
v -8 -4 0
v -9 -5 0
v -10 -5 0
v -10 -4 0
v -9 -4 0
v -10 -5 0
v -11 -5 0
v -11 -4 0
v -10 -4 0
v -11 -5 0
v -12 -5 0
v -12 -4 0
v -11 -4 0
v -12 -5 0
v -13 -5 0
v -13 -4 0
v -12 -4 0
v -13 -5 0
v -14 -5 0
v -14 -4 0
v -13 -4 0
v -14 -5 0
v -15 -5 0
v -15 -4 0
v -14 -4 0
v -15 -5 0
v -16 -5 0
v -16 -4 0
v -15 -4 0

# Texture cooridinates (Count = 22)
vt 0.34375 0.223301
vt 0.390625 0.223301
vt 0.390625 0.2815534
vt 0.34375 0.2815534
vt 0.15625 0.1650485
vt 0.203125 0.1650485
vt 0.203125 0.223301
vt 0.15625 0.223301
vt 0.203125 0.2815534
vt 0.15625 0.2815534
vt 0.109375 0.1650485
vt 0.109375 0.223301
vt 0.484375 0.1650485
vt 0.53125 0.1650485
vt 0.53125 0.223301
vt 0.484375 0.223301
vt 0.296875 0.223301
vt 0.296875 0.2815534
vt 0.25 0.1650485
vt 0.25 0.223301
vt 0.109375 0.1067961
vt 0.15625 0.1067961

# Normal
vn 0 0 -1

# Mesh description
g FlyPowder_mesh_0012

# Faces
f 1/1/1 2/2/1 3/3/1 4/4/1
f 5/1/1 6/2/1 7/3/1 8/4/1
f 9/1/1 10/2/1 11/3/1 12/4/1
f 13/5/1 14/6/1 15/7/1 16/8/1
f 17/8/1 18/7/1 19/9/1 20/10/1
f 21/11/1 22/5/1 23/8/1 24/12/1
f 25/5/1 26/6/1 27/7/1 28/8/1
f 29/13/1 30/14/1 31/15/1 32/16/1
f 33/17/1 34/1/1 35/4/1 36/18/1
f 37/1/1 38/2/1 39/3/1 40/4/1
f 41/13/1 42/14/1 43/15/1 44/16/1
f 45/6/1 46/19/1 47/20/1 48/7/1
f 49/6/1 50/19/1 51/20/1 52/7/1
f 53/5/1 54/6/1 55/7/1 56/8/1
f 57/1/1 58/2/1 59/3/1 60/4/1
f 61/6/1 62/19/1 63/20/1 64/7/1
f 65/13/1 66/14/1 67/15/1 68/16/1
f 69/17/1 70/1/1 71/4/1 72/18/1
f 73/1/1 74/2/1 75/3/1 76/4/1
f 77/13/1 78/14/1 79/15/1 80/16/1
f 81/17/1 82/1/1 83/4/1 84/18/1
f 85/1/1 86/2/1 87/3/1 88/4/1
f 89/13/1 90/14/1 91/15/1 92/16/1
f 93/13/1 94/14/1 95/15/1 96/16/1
f 97/6/1 98/19/1 99/20/1 100/7/1
f 101/5/1 102/6/1 103/7/1 104/8/1
f 105/1/1 106/2/1 107/3/1 108/4/1
f 109/6/1 110/19/1 111/20/1 112/7/1
f 113/8/1 114/7/1 115/9/1 116/10/1
f 117/11/1 118/5/1 119/8/1 120/12/1
f 121/5/1 122/6/1 123/7/1 124/8/1
f 125/8/1 126/7/1 127/9/1 128/10/1
f 129/11/1 130/5/1 131/8/1 132/12/1
f 133/5/1 134/6/1 135/7/1 136/8/1
f 137/6/1 138/19/1 139/20/1 140/7/1
f 141/13/1 142/14/1 143/15/1 144/16/1
f 145/5/1 146/6/1 147/7/1 148/8/1
f 149/5/1 150/6/1 151/7/1 152/8/1
f 153/5/1 154/6/1 155/7/1 156/8/1
f 157/13/1 158/14/1 159/15/1 160/16/1
f 161/17/1 162/1/1 163/4/1 164/18/1
f 165/1/1 166/2/1 167/3/1 168/4/1
f 169/17/1 170/1/1 171/4/1 172/18/1
f 173/1/1 174/2/1 175/3/1 176/4/1
f 177/1/1 178/2/1 179/3/1 180/4/1
f 181/6/1 182/19/1 183/20/1 184/7/1
f 185/13/1 186/14/1 187/15/1 188/16/1
f 189/21/1 190/22/1 191/5/1 192/11/1
f 193/21/1 194/22/1 195/5/1 196/11/1
f 197/21/1 198/22/1 199/5/1 200/11/1
f 201/1/1 202/2/1 203/3/1 204/4/1
f 205/13/1 206/14/1 207/15/1 208/16/1
f 209/13/1 210/14/1 211/15/1 212/16/1
f 213/17/1 214/1/1 215/4/1 216/18/1
f 217/8/1 218/7/1 219/9/1 220/10/1
f 221/11/1 222/5/1 223/8/1 224/12/1
f 225/13/1 226/14/1 227/15/1 228/16/1
f 229/13/1 230/14/1 231/15/1 232/16/1

