# Tiled2Unity generated file. Do not modify by hand.
# Wavefront file for 'mapa_3_mesh_0043.obj'

# Vertices (Count = 32)
v 0 -16 0
v -1 -16 0
v -1 -15 0
v 0 -15 0
v -1 -16 0
v -2 -16 0
v -2 -15 0
v -1 -15 0
v -2 -16 0
v -3 -16 0
v -3 -15 0
v -2 -15 0
v -3 -16 0
v -4 -16 0
v -4 -15 0
v -3 -15 0
v -4 -16 0
v -5 -16 0
v -5 -15 0
v -4 -15 0
v -5 -16 0
v -6 -16 0
v -6 -15 0
v -5 -15 0
v -6 -16 0
v -7 -16 0
v -7 -15 0
v -6 -15 0
v -7 -16 0
v -8 -16 0
v -8 -15 0
v -7 -15 0

# Texture cooridinates (Count = 12)
vt 0.4375 0.631068
vt 0.484375 0.631068
vt 0.484375 0.6893204
vt 0.4375 0.6893204
vt 0.34375 0.631068
vt 0.390625 0.631068
vt 0.390625 0.6893204
vt 0.34375 0.6893204
vt 0.0625 0.3980582
vt 0.109375 0.3980582
vt 0.109375 0.4563107
vt 0.0625 0.4563107

# Normal
vn 0 0 -1

# Mesh description
g mapa_3_mesh_0043

# Faces
f 1/1/1 2/2/1 3/3/1 4/4/1
f 5/5/1 6/6/1 7/7/1 8/8/1
f 9/9/1 10/10/1 11/11/1 12/12/1
f 13/9/1 14/10/1 15/11/1 16/12/1
f 17/1/1 18/2/1 19/3/1 20/4/1
f 21/5/1 22/6/1 23/7/1 24/8/1
f 25/9/1 26/10/1 27/11/1 28/12/1
f 29/9/1 30/10/1 31/11/1 32/12/1

