# Tiled2Unity generated file. Do not modify by hand.
# Wavefront file for 'mapa_3_mesh_0044.obj'

# Vertices (Count = 256)
v -12 -1 0
v -13 -1 0
v -13 0 0
v -12 0 0
v -13 -1 0
v -14 -1 0
v -14 0 0
v -13 0 0
v -14 -1 0
v -15 -1 0
v -15 0 0
v -14 0 0
v -15 -1 0
v -16 -1 0
v -16 0 0
v -15 0 0
v -12 -2 0
v -13 -2 0
v -13 -1 0
v -12 -1 0
v -13 -2 0
v -14 -2 0
v -14 -1 0
v -13 -1 0
v -14 -2 0
v -15 -2 0
v -15 -1 0
v -14 -1 0
v -15 -2 0
v -16 -2 0
v -16 -1 0
v -15 -1 0
v -12 -3 0
v -13 -3 0
v -13 -2 0
v -12 -2 0
v -13 -3 0
v -14 -3 0
v -14 -2 0
v -13 -2 0
v -14 -3 0
v -15 -3 0
v -15 -2 0
v -14 -2 0
v -15 -3 0
v -16 -3 0
v -16 -2 0
v -15 -2 0
v -12 -4 0
v -13 -4 0
v -13 -3 0
v -12 -3 0
v -13 -4 0
v -14 -4 0
v -14 -3 0
v -13 -3 0
v -14 -4 0
v -15 -4 0
v -15 -3 0
v -14 -3 0
v -15 -4 0
v -16 -4 0
v -16 -3 0
v -15 -3 0
v -12 -5 0
v -13 -5 0
v -13 -4 0
v -12 -4 0
v -13 -5 0
v -14 -5 0
v -14 -4 0
v -13 -4 0
v -14 -5 0
v -15 -5 0
v -15 -4 0
v -14 -4 0
v -15 -5 0
v -16 -5 0
v -16 -4 0
v -15 -4 0
v -12 -6 0
v -13 -6 0
v -13 -5 0
v -12 -5 0
v -13 -6 0
v -14 -6 0
v -14 -5 0
v -13 -5 0
v -14 -6 0
v -15 -6 0
v -15 -5 0
v -14 -5 0
v -15 -6 0
v -16 -6 0
v -16 -5 0
v -15 -5 0
v -12 -7 0
v -13 -7 0
v -13 -6 0
v -12 -6 0
v -13 -7 0
v -14 -7 0
v -14 -6 0
v -13 -6 0
v -14 -7 0
v -15 -7 0
v -15 -6 0
v -14 -6 0
v -15 -7 0
v -16 -7 0
v -16 -6 0
v -15 -6 0
v -12 -8 0
v -13 -8 0
v -13 -7 0
v -12 -7 0
v -13 -8 0
v -14 -8 0
v -14 -7 0
v -13 -7 0
v -14 -8 0
v -15 -8 0
v -15 -7 0
v -14 -7 0
v -15 -8 0
v -16 -8 0
v -16 -7 0
v -15 -7 0
v -12 -9 0
v -13 -9 0
v -13 -8 0
v -12 -8 0
v -13 -9 0
v -14 -9 0
v -14 -8 0
v -13 -8 0
v -14 -9 0
v -15 -9 0
v -15 -8 0
v -14 -8 0
v -15 -9 0
v -16 -9 0
v -16 -8 0
v -15 -8 0
v -12 -10 0
v -13 -10 0
v -13 -9 0
v -12 -9 0
v -13 -10 0
v -14 -10 0
v -14 -9 0
v -13 -9 0
v -14 -10 0
v -15 -10 0
v -15 -9 0
v -14 -9 0
v -15 -10 0
v -16 -10 0
v -16 -9 0
v -15 -9 0
v -12 -11 0
v -13 -11 0
v -13 -10 0
v -12 -10 0
v -13 -11 0
v -14 -11 0
v -14 -10 0
v -13 -10 0
v -14 -11 0
v -15 -11 0
v -15 -10 0
v -14 -10 0
v -15 -11 0
v -16 -11 0
v -16 -10 0
v -15 -10 0
v -12 -12 0
v -13 -12 0
v -13 -11 0
v -12 -11 0
v -13 -12 0
v -14 -12 0
v -14 -11 0
v -13 -11 0
v -14 -12 0
v -15 -12 0
v -15 -11 0
v -14 -11 0
v -15 -12 0
v -16 -12 0
v -16 -11 0
v -15 -11 0
v -12 -13 0
v -13 -13 0
v -13 -12 0
v -12 -12 0
v -13 -13 0
v -14 -13 0
v -14 -12 0
v -13 -12 0
v -14 -13 0
v -15 -13 0
v -15 -12 0
v -14 -12 0
v -15 -13 0
v -16 -13 0
v -16 -12 0
v -15 -12 0
v -12 -14 0
v -13 -14 0
v -13 -13 0
v -12 -13 0
v -13 -14 0
v -14 -14 0
v -14 -13 0
v -13 -13 0
v -14 -14 0
v -15 -14 0
v -15 -13 0
v -14 -13 0
v -15 -14 0
v -16 -14 0
v -16 -13 0
v -15 -13 0
v -12 -15 0
v -13 -15 0
v -13 -14 0
v -12 -14 0
v -13 -15 0
v -14 -15 0
v -14 -14 0
v -13 -14 0
v -14 -15 0
v -15 -15 0
v -15 -14 0
v -14 -14 0
v -15 -15 0
v -16 -15 0
v -16 -14 0
v -15 -14 0
v -12 -16 0
v -13 -16 0
v -13 -15 0
v -12 -15 0
v -13 -16 0
v -14 -16 0
v -14 -15 0
v -13 -15 0
v -14 -16 0
v -15 -16 0
v -15 -15 0
v -14 -15 0
v -15 -16 0
v -16 -16 0
v -16 -15 0
v -15 -15 0

# Texture cooridinates (Count = 34)
vt 0.296875 0.631068
vt 0.34375 0.631068
vt 0.34375 0.6893204
vt 0.296875 0.6893204
vt 0.0625 0.3980582
vt 0.109375 0.3980582
vt 0.109375 0.4563107
vt 0.0625 0.4563107
vt 0.15625 0.9223301
vt 0.203125 0.9223301
vt 0.203125 0.9805825
vt 0.15625 0.9805825
vt 0.015625 0.8058252
vt 0.0625 0.8058252
vt 0.0625 0.8640777
vt 0.015625 0.8640777
vt 0.390625 0.631068
vt 0.390625 0.6893204
vt 0.015625 0.7475728
vt 0.0625 0.7475728
vt 0.015625 0.6893204
vt 0.0625 0.6893204
vt 0.25 0.9223301
vt 0.296875 0.9223301
vt 0.296875 0.9805825
vt 0.25 0.9805825
vt 0.4375 0.631068
vt 0.484375 0.631068
vt 0.484375 0.6893204
vt 0.4375 0.6893204
vt 0.15625 0.1650485
vt 0.203125 0.1650485
vt 0.203125 0.223301
vt 0.15625 0.223301

# Normal
vn 0 0 -1

# Mesh description
g mapa_3_mesh_0044

# Faces
f 1/1/1 2/2/1 3/3/1 4/4/1
f 5/5/1 6/6/1 7/7/1 8/8/1
f 9/9/1 10/10/1 11/11/1 12/12/1
f 13/13/1 14/14/1 15/15/1 16/16/1
f 17/2/1 18/17/1 19/18/1 20/3/1
f 21/5/1 22/6/1 23/7/1 24/8/1
f 25/5/1 26/6/1 27/7/1 28/8/1
f 29/13/1 30/14/1 31/15/1 32/16/1
f 33/2/1 34/17/1 35/18/1 36/3/1
f 37/5/1 38/6/1 39/7/1 40/8/1
f 41/5/1 42/6/1 43/7/1 44/8/1
f 45/19/1 46/20/1 47/14/1 48/13/1
f 49/2/1 50/17/1 51/18/1 52/3/1
f 53/5/1 54/6/1 55/7/1 56/8/1
f 57/5/1 58/6/1 59/7/1 60/8/1
f 61/21/1 62/22/1 63/20/1 64/19/1
f 65/2/1 66/17/1 67/18/1 68/3/1
f 69/5/1 70/6/1 71/7/1 72/8/1
f 73/5/1 74/6/1 75/7/1 76/8/1
f 77/13/1 78/14/1 79/15/1 80/16/1
f 81/2/1 82/17/1 83/18/1 84/3/1
f 85/5/1 86/6/1 87/7/1 88/8/1
f 89/5/1 90/6/1 91/7/1 92/8/1
f 93/19/1 94/20/1 95/14/1 96/13/1
f 97/1/1 98/2/1 99/3/1 100/4/1
f 101/5/1 102/6/1 103/7/1 104/8/1
f 105/9/1 106/10/1 107/11/1 108/12/1
f 109/21/1 110/22/1 111/20/1 112/19/1
f 113/2/1 114/17/1 115/18/1 116/3/1
f 117/23/1 118/24/1 119/25/1 120/26/1
f 121/2/1 122/17/1 123/18/1 124/3/1
f 125/5/1 126/6/1 127/7/1 128/8/1
f 129/5/1 130/6/1 131/7/1 132/8/1
f 133/1/1 134/2/1 135/3/1 136/4/1
f 137/27/1 138/28/1 139/29/1 140/30/1
f 141/2/1 142/17/1 143/18/1 144/3/1
f 145/9/1 146/10/1 147/11/1 148/12/1
f 149/2/1 150/17/1 151/18/1 152/3/1
f 153/5/1 154/6/1 155/7/1 156/8/1
f 157/1/1 158/2/1 159/3/1 160/4/1
f 161/9/1 162/10/1 163/11/1 164/12/1
f 165/2/1 166/17/1 167/18/1 168/3/1
f 169/9/1 170/10/1 171/11/1 172/12/1
f 173/2/1 174/17/1 175/18/1 176/3/1
f 177/9/1 178/10/1 179/11/1 180/12/1
f 181/2/1 182/17/1 183/18/1 184/3/1
f 185/9/1 186/10/1 187/11/1 188/12/1
f 189/2/1 190/17/1 191/18/1 192/3/1
f 193/27/1 194/28/1 195/29/1 196/30/1
f 197/2/1 198/17/1 199/18/1 200/3/1
f 201/5/1 202/6/1 203/7/1 204/8/1
f 205/5/1 206/6/1 207/7/1 208/8/1
f 209/5/1 210/6/1 211/7/1 212/8/1
f 213/27/1 214/28/1 215/29/1 216/30/1
f 217/2/1 218/17/1 219/18/1 220/3/1
f 221/5/1 222/6/1 223/7/1 224/8/1
f 225/9/1 226/10/1 227/11/1 228/12/1
f 229/5/1 230/6/1 231/7/1 232/8/1
f 233/1/1 234/2/1 235/3/1 236/4/1
f 237/5/1 238/6/1 239/7/1 240/8/1
f 241/31/1 242/32/1 243/33/1 244/34/1
f 245/9/1 246/10/1 247/11/1 248/12/1
f 249/2/1 250/17/1 251/18/1 252/3/1
f 253/23/1 254/24/1 255/25/1 256/26/1

