# Tiled2Unity generated file. Do not modify by hand.
# Wavefront file for 'mapa_3_mesh_0051.obj'

# Vertices (Count = 356)
v 0 -1 0
v -1 -1 0
v -1 0 0
v 0 0 0
v -1 -1 0
v -2 -1 0
v -2 0 0
v -1 0 0
v -2 -1 0
v -3 -1 0
v -3 0 0
v -2 0 0
v -3 -1 0
v -4 -1 0
v -4 0 0
v -3 0 0
v -4 -1 0
v -5 -1 0
v -5 0 0
v -4 0 0
v -5 -1 0
v -6 -1 0
v -6 0 0
v -5 0 0
v -6 -1 0
v -7 -1 0
v -7 0 0
v -6 0 0
v -7 -1 0
v -8 -1 0
v -8 0 0
v -7 0 0
v -8 -1 0
v -9 -1 0
v -9 0 0
v -8 0 0
v -9 -1 0
v -10 -1 0
v -10 0 0
v -9 0 0
v -10 -1 0
v -11 -1 0
v -11 0 0
v -10 0 0
v -11 -1 0
v -12 -1 0
v -12 0 0
v -11 0 0
v -12 -1 0
v -13 -1 0
v -13 0 0
v -12 0 0
v -13 -1 0
v -14 -1 0
v -14 0 0
v -13 0 0
v -14 -1 0
v -15 -1 0
v -15 0 0
v -14 0 0
v -15 -1 0
v -16 -1 0
v -16 0 0
v -15 0 0
v 0 -2 0
v -1 -2 0
v -1 -1 0
v 0 -1 0
v -1 -2 0
v -2 -2 0
v -2 -1 0
v -1 -1 0
v -2 -2 0
v -3 -2 0
v -3 -1 0
v -2 -1 0
v -3 -2 0
v -4 -2 0
v -4 -1 0
v -3 -1 0
v -4 -2 0
v -5 -2 0
v -5 -1 0
v -4 -1 0
v -5 -2 0
v -6 -2 0
v -6 -1 0
v -5 -1 0
v -6 -2 0
v -7 -2 0
v -7 -1 0
v -6 -1 0
v -7 -2 0
v -8 -2 0
v -8 -1 0
v -7 -1 0
v -8 -2 0
v -9 -2 0
v -9 -1 0
v -8 -1 0
v -9 -2 0
v -10 -2 0
v -10 -1 0
v -9 -1 0
v -10 -2 0
v -11 -2 0
v -11 -1 0
v -10 -1 0
v -11 -2 0
v -12 -2 0
v -12 -1 0
v -11 -1 0
v -12 -2 0
v -13 -2 0
v -13 -1 0
v -12 -1 0
v -13 -2 0
v -14 -2 0
v -14 -1 0
v -13 -1 0
v -14 -2 0
v -15 -2 0
v -15 -1 0
v -14 -1 0
v -15 -2 0
v -16 -2 0
v -16 -1 0
v -15 -1 0
v 0 -3 0
v -1 -3 0
v -1 -2 0
v 0 -2 0
v -1 -3 0
v -2 -3 0
v -2 -2 0
v -1 -2 0
v -2 -3 0
v -3 -3 0
v -3 -2 0
v -2 -2 0
v -3 -3 0
v -4 -3 0
v -4 -2 0
v -3 -2 0
v -4 -3 0
v -5 -3 0
v -5 -2 0
v -4 -2 0
v -5 -3 0
v -6 -3 0
v -6 -2 0
v -5 -2 0
v -6 -3 0
v -7 -3 0
v -7 -2 0
v -6 -2 0
v -7 -3 0
v -8 -3 0
v -8 -2 0
v -7 -2 0
v -8 -3 0
v -9 -3 0
v -9 -2 0
v -8 -2 0
v -9 -3 0
v -10 -3 0
v -10 -2 0
v -9 -2 0
v -10 -3 0
v -11 -3 0
v -11 -2 0
v -10 -2 0
v -11 -3 0
v -12 -3 0
v -12 -2 0
v -11 -2 0
v -12 -3 0
v -13 -3 0
v -13 -2 0
v -12 -2 0
v -13 -3 0
v -14 -3 0
v -14 -2 0
v -13 -2 0
v -14 -3 0
v -15 -3 0
v -15 -2 0
v -14 -2 0
v -15 -3 0
v -16 -3 0
v -16 -2 0
v -15 -2 0
v 0 -11 0
v -1 -11 0
v -1 -10 0
v 0 -10 0
v -1 -11 0
v -2 -11 0
v -2 -10 0
v -1 -10 0
v -2 -11 0
v -3 -11 0
v -3 -10 0
v -2 -10 0
v 0 -12 0
v -1 -12 0
v -1 -11 0
v 0 -11 0
v -1 -12 0
v -2 -12 0
v -2 -11 0
v -1 -11 0
v -2 -12 0
v -3 -12 0
v -3 -11 0
v -2 -11 0
v -3 -12 0
v -4 -12 0
v -4 -11 0
v -3 -11 0
v -4 -12 0
v -5 -12 0
v -5 -11 0
v -4 -11 0
v -5 -12 0
v -6 -12 0
v -6 -11 0
v -5 -11 0
v 0 -13 0
v -1 -13 0
v -1 -12 0
v 0 -12 0
v -1 -13 0
v -2 -13 0
v -2 -12 0
v -1 -12 0
v -2 -13 0
v -3 -13 0
v -3 -12 0
v -2 -12 0
v -3 -13 0
v -4 -13 0
v -4 -12 0
v -3 -12 0
v -4 -13 0
v -5 -13 0
v -5 -12 0
v -4 -12 0
v -5 -13 0
v -6 -13 0
v -6 -12 0
v -5 -12 0
v -6 -13 0
v -7 -13 0
v -7 -12 0
v -6 -12 0
v -7 -13 0
v -8 -13 0
v -8 -12 0
v -7 -12 0
v 0 -14 0
v -1 -14 0
v -1 -13 0
v 0 -13 0
v -1 -14 0
v -2 -14 0
v -2 -13 0
v -1 -13 0
v -2 -14 0
v -3 -14 0
v -3 -13 0
v -2 -13 0
v -3 -14 0
v -4 -14 0
v -4 -13 0
v -3 -13 0
v -4 -14 0
v -5 -14 0
v -5 -13 0
v -4 -13 0
v -5 -14 0
v -6 -14 0
v -6 -13 0
v -5 -13 0
v -6 -14 0
v -7 -14 0
v -7 -13 0
v -6 -13 0
v -7 -14 0
v -8 -14 0
v -8 -13 0
v -7 -13 0
v 0 -15 0
v -1 -15 0
v -1 -14 0
v 0 -14 0
v -1 -15 0
v -2 -15 0
v -2 -14 0
v -1 -14 0
v -2 -15 0
v -3 -15 0
v -3 -14 0
v -2 -14 0
v -3 -15 0
v -4 -15 0
v -4 -14 0
v -3 -14 0
v -4 -15 0
v -5 -15 0
v -5 -14 0
v -4 -14 0
v -5 -15 0
v -6 -15 0
v -6 -14 0
v -5 -14 0
v -6 -15 0
v -7 -15 0
v -7 -14 0
v -6 -14 0
v -7 -15 0
v -8 -15 0
v -8 -14 0
v -7 -14 0
v 0 -16 0
v -1 -16 0
v -1 -15 0
v 0 -15 0
v -1 -16 0
v -2 -16 0
v -2 -15 0
v -1 -15 0
v -2 -16 0
v -3 -16 0
v -3 -15 0
v -2 -15 0
v -3 -16 0
v -4 -16 0
v -4 -15 0
v -3 -15 0
v -4 -16 0
v -5 -16 0
v -5 -15 0
v -4 -15 0
v -5 -16 0
v -6 -16 0
v -6 -15 0
v -5 -15 0
v -6 -16 0
v -7 -16 0
v -7 -15 0
v -6 -15 0
v -7 -16 0
v -8 -16 0
v -8 -15 0
v -7 -15 0

# Texture cooridinates (Count = 41)
vt 0.0625 0.3980582
vt 0.109375 0.3980582
vt 0.109375 0.4563107
vt 0.0625 0.4563107
vt 0.296875 0.631068
vt 0.34375 0.631068
vt 0.34375 0.6893204
vt 0.296875 0.6893204
vt 0.15625 0.9223301
vt 0.203125 0.9223301
vt 0.203125 0.9805825
vt 0.15625 0.9805825
vt 0.390625 0.631068
vt 0.390625 0.6893204
vt 0.25 0.9223301
vt 0.296875 0.9223301
vt 0.296875 0.9805825
vt 0.25 0.9805825
vt 0.0625 0.8640777
vt 0.109375 0.8640777
vt 0.109375 0.9223301
vt 0.0625 0.9223301
vt 0.4375 0.6893204
vt 0.4375 0.7475728
vt 0.390625 0.7475728
vt 0.484375 0.6893204
vt 0.484375 0.7475728
vt 0.53125 0.6893204
vt 0.53125 0.7475728
vt 0.484375 0.631068
vt 0.53125 0.631068
vt 0.15625 0.1650485
vt 0.203125 0.1650485
vt 0.203125 0.223301
vt 0.15625 0.223301
vt 0.109375 0.5145631
vt 0.0625 0.5145631
vt 0.15625 0.4563107
vt 0.15625 0.5145631
vt 0.15625 0.3980582
vt 0.4375 0.631068

# Normal
vn 0 0 -1

# Mesh description
g mapa_3_mesh_0051

# Faces
f 1/1/1 2/2/1 3/3/1 4/4/1
f 5/5/1 6/6/1 7/7/1 8/8/1
f 9/1/1 10/2/1 11/3/1 12/4/1
f 13/9/1 14/10/1 15/11/1 16/12/1
f 17/5/1 18/6/1 19/7/1 20/8/1
f 21/1/1 22/2/1 23/3/1 24/4/1
f 25/9/1 26/10/1 27/11/1 28/12/1
f 29/5/1 30/6/1 31/7/1 32/8/1
f 33/1/1 34/2/1 35/3/1 36/4/1
f 37/1/1 38/2/1 39/3/1 40/4/1
f 41/5/1 42/6/1 43/7/1 44/8/1
f 45/1/1 46/2/1 47/3/1 48/4/1
f 49/9/1 50/10/1 51/11/1 52/12/1
f 53/9/1 54/10/1 55/11/1 56/12/1
f 57/5/1 58/6/1 59/7/1 60/8/1
f 61/1/1 62/2/1 63/3/1 64/4/1
f 65/9/1 66/10/1 67/11/1 68/12/1
f 69/6/1 70/13/1 71/14/1 72/7/1
f 73/15/1 74/16/1 75/17/1 76/18/1
f 77/6/1 78/13/1 79/14/1 80/7/1
f 81/6/1 82/13/1 83/14/1 84/7/1
f 85/15/1 86/16/1 87/17/1 88/18/1
f 89/6/1 90/13/1 91/14/1 92/7/1
f 93/6/1 94/13/1 95/14/1 96/7/1
f 97/15/1 98/16/1 99/17/1 100/18/1
f 101/9/1 102/10/1 103/11/1 104/12/1
f 105/6/1 106/13/1 107/14/1 108/7/1
f 109/15/1 110/16/1 111/17/1 112/18/1
f 113/6/1 114/13/1 115/14/1 116/7/1
f 117/6/1 118/13/1 119/14/1 120/7/1
f 121/6/1 122/13/1 123/14/1 124/7/1
f 125/15/1 126/16/1 127/17/1 128/18/1
f 129/19/1 130/20/1 131/21/1 132/22/1
f 133/19/1 134/20/1 135/21/1 136/22/1
f 137/19/1 138/20/1 139/21/1 140/22/1
f 141/19/1 142/20/1 143/21/1 144/22/1
f 145/19/1 146/20/1 147/21/1 148/22/1
f 149/19/1 150/20/1 151/21/1 152/22/1
f 153/19/1 154/20/1 155/21/1 156/22/1
f 157/19/1 158/20/1 159/21/1 160/22/1
f 161/19/1 162/20/1 163/21/1 164/22/1
f 165/19/1 166/20/1 167/21/1 168/22/1
f 169/19/1 170/20/1 171/21/1 172/22/1
f 173/19/1 174/20/1 175/21/1 176/22/1
f 177/19/1 178/20/1 179/21/1 180/22/1
f 181/19/1 182/20/1 183/21/1 184/22/1
f 185/19/1 186/20/1 187/21/1 188/22/1
f 189/19/1 190/20/1 191/21/1 192/22/1
f 193/14/1 194/23/1 195/24/1 196/25/1
f 197/23/1 198/26/1 199/27/1 200/24/1
f 201/26/1 202/28/1 203/29/1 204/27/1
f 205/1/1 206/2/1 207/3/1 208/4/1
f 209/1/1 210/2/1 211/3/1 212/4/1
f 213/30/1 214/31/1 215/28/1 216/26/1
f 217/14/1 218/23/1 219/24/1 220/25/1
f 221/23/1 222/26/1 223/27/1 224/24/1
f 225/26/1 226/28/1 227/29/1 228/27/1
f 229/1/1 230/2/1 231/3/1 232/4/1
f 233/9/1 234/10/1 235/11/1 236/12/1
f 237/1/1 238/2/1 239/3/1 240/4/1
f 241/1/1 242/2/1 243/3/1 244/4/1
f 245/32/1 246/33/1 247/34/1 248/35/1
f 249/30/1 250/31/1 251/28/1 252/26/1
f 253/4/1 254/3/1 255/36/1 256/37/1
f 257/3/1 258/38/1 259/39/1 260/36/1
f 261/15/1 262/16/1 263/17/1 264/18/1
f 265/6/1 266/13/1 267/14/1 268/7/1
f 269/1/1 270/2/1 271/3/1 272/4/1
f 273/9/1 274/10/1 275/11/1 276/12/1
f 277/32/1 278/33/1 279/34/1 280/35/1
f 281/32/1 282/33/1 283/34/1 284/35/1
f 285/32/1 286/33/1 287/34/1 288/35/1
f 289/2/1 290/40/1 291/38/1 292/3/1
f 293/5/1 294/6/1 295/7/1 296/8/1
f 297/1/1 298/2/1 299/3/1 300/4/1
f 301/41/1 302/30/1 303/26/1 304/23/1
f 305/6/1 306/13/1 307/14/1 308/7/1
f 309/1/1 310/2/1 311/3/1 312/4/1
f 313/1/1 314/2/1 315/3/1 316/4/1
f 317/32/1 318/33/1 319/34/1 320/35/1
f 321/2/1 322/40/1 323/38/1 324/3/1
f 325/6/1 326/13/1 327/14/1 328/7/1
f 329/15/1 330/16/1 331/17/1 332/18/1
f 333/41/1 334/30/1 335/26/1 336/23/1
f 337/6/1 338/13/1 339/14/1 340/7/1
f 341/1/1 342/2/1 343/3/1 344/4/1
f 345/1/1 346/2/1 347/3/1 348/4/1
f 349/32/1 350/33/1 351/34/1 352/35/1
f 353/2/1 354/40/1 355/38/1 356/3/1

