# Tiled2Unity generated file. Do not modify by hand.
# Wavefront file for 'mapa_3_mesh_0050.obj'

# Vertices (Count = 732)
v 0 -1 0
v -1 -1 0
v -1 0 0
v 0 0 0
v -1 -1 0
v -2 -1 0
v -2 0 0
v -1 0 0
v -2 -1 0
v -3 -1 0
v -3 0 0
v -2 0 0
v -3 -1 0
v -4 -1 0
v -4 0 0
v -3 0 0
v -4 -1 0
v -5 -1 0
v -5 0 0
v -4 0 0
v -5 -1 0
v -6 -1 0
v -6 0 0
v -5 0 0
v -6 -1 0
v -7 -1 0
v -7 0 0
v -6 0 0
v -7 -1 0
v -8 -1 0
v -8 0 0
v -7 0 0
v -8 -1 0
v -9 -1 0
v -9 0 0
v -8 0 0
v -9 -1 0
v -10 -1 0
v -10 0 0
v -9 0 0
v -10 -1 0
v -11 -1 0
v -11 0 0
v -10 0 0
v -11 -1 0
v -12 -1 0
v -12 0 0
v -11 0 0
v -12 -1 0
v -13 -1 0
v -13 0 0
v -12 0 0
v -13 -1 0
v -14 -1 0
v -14 0 0
v -13 0 0
v -14 -1 0
v -15 -1 0
v -15 0 0
v -14 0 0
v -15 -1 0
v -16 -1 0
v -16 0 0
v -15 0 0
v 0 -2 0
v -1 -2 0
v -1 -1 0
v 0 -1 0
v -1 -2 0
v -2 -2 0
v -2 -1 0
v -1 -1 0
v -2 -2 0
v -3 -2 0
v -3 -1 0
v -2 -1 0
v -3 -2 0
v -4 -2 0
v -4 -1 0
v -3 -1 0
v -4 -2 0
v -5 -2 0
v -5 -1 0
v -4 -1 0
v -5 -2 0
v -6 -2 0
v -6 -1 0
v -5 -1 0
v -6 -2 0
v -7 -2 0
v -7 -1 0
v -6 -1 0
v -7 -2 0
v -8 -2 0
v -8 -1 0
v -7 -1 0
v -8 -2 0
v -9 -2 0
v -9 -1 0
v -8 -1 0
v -9 -2 0
v -10 -2 0
v -10 -1 0
v -9 -1 0
v -10 -2 0
v -11 -2 0
v -11 -1 0
v -10 -1 0
v -11 -2 0
v -12 -2 0
v -12 -1 0
v -11 -1 0
v -12 -2 0
v -13 -2 0
v -13 -1 0
v -12 -1 0
v -13 -2 0
v -14 -2 0
v -14 -1 0
v -13 -1 0
v -14 -2 0
v -15 -2 0
v -15 -1 0
v -14 -1 0
v -15 -2 0
v -16 -2 0
v -16 -1 0
v -15 -1 0
v 0 -3 0
v -1 -3 0
v -1 -2 0
v 0 -2 0
v -1 -3 0
v -2 -3 0
v -2 -2 0
v -1 -2 0
v -2 -3 0
v -3 -3 0
v -3 -2 0
v -2 -2 0
v -3 -3 0
v -4 -3 0
v -4 -2 0
v -3 -2 0
v -4 -3 0
v -5 -3 0
v -5 -2 0
v -4 -2 0
v -5 -3 0
v -6 -3 0
v -6 -2 0
v -5 -2 0
v -6 -3 0
v -7 -3 0
v -7 -2 0
v -6 -2 0
v -7 -3 0
v -8 -3 0
v -8 -2 0
v -7 -2 0
v -8 -3 0
v -9 -3 0
v -9 -2 0
v -8 -2 0
v -9 -3 0
v -10 -3 0
v -10 -2 0
v -9 -2 0
v -10 -3 0
v -11 -3 0
v -11 -2 0
v -10 -2 0
v -11 -3 0
v -12 -3 0
v -12 -2 0
v -11 -2 0
v -12 -3 0
v -13 -3 0
v -13 -2 0
v -12 -2 0
v -13 -3 0
v -14 -3 0
v -14 -2 0
v -13 -2 0
v -14 -3 0
v -15 -3 0
v -15 -2 0
v -14 -2 0
v -15 -3 0
v -16 -3 0
v -16 -2 0
v -15 -2 0
v 0 -4 0
v -1 -4 0
v -1 -3 0
v 0 -3 0
v -1 -4 0
v -2 -4 0
v -2 -3 0
v -1 -3 0
v -2 -4 0
v -3 -4 0
v -3 -3 0
v -2 -3 0
v -3 -4 0
v -4 -4 0
v -4 -3 0
v -3 -3 0
v -4 -4 0
v -5 -4 0
v -5 -3 0
v -4 -3 0
v -5 -4 0
v -6 -4 0
v -6 -3 0
v -5 -3 0
v -6 -4 0
v -7 -4 0
v -7 -3 0
v -6 -3 0
v -7 -4 0
v -8 -4 0
v -8 -3 0
v -7 -3 0
v -8 -4 0
v -9 -4 0
v -9 -3 0
v -8 -3 0
v -9 -4 0
v -10 -4 0
v -10 -3 0
v -9 -3 0
v -10 -4 0
v -11 -4 0
v -11 -3 0
v -10 -3 0
v -11 -4 0
v -12 -4 0
v -12 -3 0
v -11 -3 0
v -12 -4 0
v -13 -4 0
v -13 -3 0
v -12 -3 0
v 0 -5 0
v -1 -5 0
v -1 -4 0
v 0 -4 0
v -1 -5 0
v -2 -5 0
v -2 -4 0
v -1 -4 0
v -2 -5 0
v -3 -5 0
v -3 -4 0
v -2 -4 0
v -3 -5 0
v -4 -5 0
v -4 -4 0
v -3 -4 0
v -4 -5 0
v -5 -5 0
v -5 -4 0
v -4 -4 0
v -5 -5 0
v -6 -5 0
v -6 -4 0
v -5 -4 0
v -6 -5 0
v -7 -5 0
v -7 -4 0
v -6 -4 0
v -7 -5 0
v -8 -5 0
v -8 -4 0
v -7 -4 0
v -8 -5 0
v -9 -5 0
v -9 -4 0
v -8 -4 0
v -9 -5 0
v -10 -5 0
v -10 -4 0
v -9 -4 0
v 0 -10 0
v -1 -10 0
v -1 -9 0
v 0 -9 0
v -1 -10 0
v -2 -10 0
v -2 -9 0
v -1 -9 0
v -2 -10 0
v -3 -10 0
v -3 -9 0
v -2 -9 0
v -3 -10 0
v -4 -10 0
v -4 -9 0
v -3 -9 0
v -4 -10 0
v -5 -10 0
v -5 -9 0
v -4 -9 0
v -5 -10 0
v -6 -10 0
v -6 -9 0
v -5 -9 0
v -6 -10 0
v -7 -10 0
v -7 -9 0
v -6 -9 0
v -7 -10 0
v -8 -10 0
v -8 -9 0
v -7 -9 0
v -8 -10 0
v -9 -10 0
v -9 -9 0
v -8 -9 0
v -9 -10 0
v -10 -10 0
v -10 -9 0
v -9 -9 0
v -10 -10 0
v -11 -10 0
v -11 -9 0
v -10 -9 0
v -11 -10 0
v -12 -10 0
v -12 -9 0
v -11 -9 0
v -12 -10 0
v -13 -10 0
v -13 -9 0
v -12 -9 0
v -13 -10 0
v -14 -10 0
v -14 -9 0
v -13 -9 0
v -14 -10 0
v -15 -10 0
v -15 -9 0
v -14 -9 0
v -15 -10 0
v -16 -10 0
v -16 -9 0
v -15 -9 0
v 0 -11 0
v -1 -11 0
v -1 -10 0
v 0 -10 0
v -1 -11 0
v -2 -11 0
v -2 -10 0
v -1 -10 0
v -2 -11 0
v -3 -11 0
v -3 -10 0
v -2 -10 0
v -3 -11 0
v -4 -11 0
v -4 -10 0
v -3 -10 0
v -4 -11 0
v -5 -11 0
v -5 -10 0
v -4 -10 0
v -5 -11 0
v -6 -11 0
v -6 -10 0
v -5 -10 0
v -6 -11 0
v -7 -11 0
v -7 -10 0
v -6 -10 0
v -7 -11 0
v -8 -11 0
v -8 -10 0
v -7 -10 0
v -8 -11 0
v -9 -11 0
v -9 -10 0
v -8 -10 0
v -9 -11 0
v -10 -11 0
v -10 -10 0
v -9 -10 0
v -10 -11 0
v -11 -11 0
v -11 -10 0
v -10 -10 0
v -11 -11 0
v -12 -11 0
v -12 -10 0
v -11 -10 0
v -12 -11 0
v -13 -11 0
v -13 -10 0
v -12 -10 0
v -13 -11 0
v -14 -11 0
v -14 -10 0
v -13 -10 0
v -14 -11 0
v -15 -11 0
v -15 -10 0
v -14 -10 0
v -15 -11 0
v -16 -11 0
v -16 -10 0
v -15 -10 0
v 0 -12 0
v -1 -12 0
v -1 -11 0
v 0 -11 0
v -1 -12 0
v -2 -12 0
v -2 -11 0
v -1 -11 0
v -2 -12 0
v -3 -12 0
v -3 -11 0
v -2 -11 0
v -3 -12 0
v -4 -12 0
v -4 -11 0
v -3 -11 0
v -4 -12 0
v -5 -12 0
v -5 -11 0
v -4 -11 0
v -5 -12 0
v -6 -12 0
v -6 -11 0
v -5 -11 0
v -6 -12 0
v -7 -12 0
v -7 -11 0
v -6 -11 0
v -7 -12 0
v -8 -12 0
v -8 -11 0
v -7 -11 0
v -8 -12 0
v -9 -12 0
v -9 -11 0
v -8 -11 0
v -9 -12 0
v -10 -12 0
v -10 -11 0
v -9 -11 0
v -10 -12 0
v -11 -12 0
v -11 -11 0
v -10 -11 0
v -11 -12 0
v -12 -12 0
v -12 -11 0
v -11 -11 0
v -12 -12 0
v -13 -12 0
v -13 -11 0
v -12 -11 0
v -13 -12 0
v -14 -12 0
v -14 -11 0
v -13 -11 0
v -14 -12 0
v -15 -12 0
v -15 -11 0
v -14 -11 0
v -15 -12 0
v -16 -12 0
v -16 -11 0
v -15 -11 0
v 0 -13 0
v -1 -13 0
v -1 -12 0
v 0 -12 0
v -1 -13 0
v -2 -13 0
v -2 -12 0
v -1 -12 0
v -2 -13 0
v -3 -13 0
v -3 -12 0
v -2 -12 0
v -3 -13 0
v -4 -13 0
v -4 -12 0
v -3 -12 0
v -4 -13 0
v -5 -13 0
v -5 -12 0
v -4 -12 0
v -5 -13 0
v -6 -13 0
v -6 -12 0
v -5 -12 0
v -6 -13 0
v -7 -13 0
v -7 -12 0
v -6 -12 0
v -7 -13 0
v -8 -13 0
v -8 -12 0
v -7 -12 0
v -8 -13 0
v -9 -13 0
v -9 -12 0
v -8 -12 0
v -9 -13 0
v -10 -13 0
v -10 -12 0
v -9 -12 0
v -10 -13 0
v -11 -13 0
v -11 -12 0
v -10 -12 0
v -11 -13 0
v -12 -13 0
v -12 -12 0
v -11 -12 0
v -12 -13 0
v -13 -13 0
v -13 -12 0
v -12 -12 0
v -13 -13 0
v -14 -13 0
v -14 -12 0
v -13 -12 0
v -14 -13 0
v -15 -13 0
v -15 -12 0
v -14 -12 0
v -15 -13 0
v -16 -13 0
v -16 -12 0
v -15 -12 0
v 0 -14 0
v -1 -14 0
v -1 -13 0
v 0 -13 0
v -1 -14 0
v -2 -14 0
v -2 -13 0
v -1 -13 0
v -2 -14 0
v -3 -14 0
v -3 -13 0
v -2 -13 0
v -3 -14 0
v -4 -14 0
v -4 -13 0
v -3 -13 0
v -4 -14 0
v -5 -14 0
v -5 -13 0
v -4 -13 0
v -5 -14 0
v -6 -14 0
v -6 -13 0
v -5 -13 0
v -6 -14 0
v -7 -14 0
v -7 -13 0
v -6 -13 0
v -7 -14 0
v -8 -14 0
v -8 -13 0
v -7 -13 0
v -8 -14 0
v -9 -14 0
v -9 -13 0
v -8 -13 0
v -9 -14 0
v -10 -14 0
v -10 -13 0
v -9 -13 0
v -10 -14 0
v -11 -14 0
v -11 -13 0
v -10 -13 0
v -11 -14 0
v -12 -14 0
v -12 -13 0
v -11 -13 0
v -12 -14 0
v -13 -14 0
v -13 -13 0
v -12 -13 0
v -13 -14 0
v -14 -14 0
v -14 -13 0
v -13 -13 0
v -14 -14 0
v -15 -14 0
v -15 -13 0
v -14 -13 0
v -15 -14 0
v -16 -14 0
v -16 -13 0
v -15 -13 0
v 0 -15 0
v -1 -15 0
v -1 -14 0
v 0 -14 0
v -1 -15 0
v -2 -15 0
v -2 -14 0
v -1 -14 0
v -2 -15 0
v -3 -15 0
v -3 -14 0
v -2 -14 0
v -3 -15 0
v -4 -15 0
v -4 -14 0
v -3 -14 0
v -4 -15 0
v -5 -15 0
v -5 -14 0
v -4 -14 0
v -5 -15 0
v -6 -15 0
v -6 -14 0
v -5 -14 0
v -6 -15 0
v -7 -15 0
v -7 -14 0
v -6 -14 0
v -7 -15 0
v -8 -15 0
v -8 -14 0
v -7 -14 0
v -8 -15 0
v -9 -15 0
v -9 -14 0
v -8 -14 0
v -9 -15 0
v -10 -15 0
v -10 -14 0
v -9 -14 0
v -10 -15 0
v -11 -15 0
v -11 -14 0
v -10 -14 0
v -11 -15 0
v -12 -15 0
v -12 -14 0
v -11 -14 0
v -12 -15 0
v -13 -15 0
v -13 -14 0
v -12 -14 0
v -13 -15 0
v -14 -15 0
v -14 -14 0
v -13 -14 0
v -14 -15 0
v -15 -15 0
v -15 -14 0
v -14 -14 0
v -15 -15 0
v -16 -15 0
v -16 -14 0
v -15 -14 0
v 0 -16 0
v -1 -16 0
v -1 -15 0
v 0 -15 0
v -1 -16 0
v -2 -16 0
v -2 -15 0
v -1 -15 0
v -2 -16 0
v -3 -16 0
v -3 -15 0
v -2 -15 0
v -3 -16 0
v -4 -16 0
v -4 -15 0
v -3 -15 0
v -4 -16 0
v -5 -16 0
v -5 -15 0
v -4 -15 0
v -5 -16 0
v -6 -16 0
v -6 -15 0
v -5 -15 0
v -6 -16 0
v -7 -16 0
v -7 -15 0
v -6 -15 0
v -7 -16 0
v -8 -16 0
v -8 -15 0
v -7 -15 0
v -8 -16 0
v -9 -16 0
v -9 -15 0
v -8 -15 0
v -9 -16 0
v -10 -16 0
v -10 -15 0
v -9 -15 0
v -10 -16 0
v -11 -16 0
v -11 -15 0
v -10 -15 0
v -11 -16 0
v -12 -16 0
v -12 -15 0
v -11 -15 0
v -12 -16 0
v -13 -16 0
v -13 -15 0
v -12 -15 0
v -13 -16 0
v -14 -16 0
v -14 -15 0
v -13 -15 0
v -14 -16 0
v -15 -16 0
v -15 -15 0
v -14 -15 0
v -15 -16 0
v -16 -16 0
v -16 -15 0
v -15 -15 0

# Texture cooridinates (Count = 53)
vt 0.0625 0.3980582
vt 0.109375 0.3980582
vt 0.109375 0.4563107
vt 0.0625 0.4563107
vt 0.296875 0.631068
vt 0.34375 0.631068
vt 0.34375 0.6893204
vt 0.296875 0.6893204
vt 0.15625 0.9223301
vt 0.203125 0.9223301
vt 0.203125 0.9805825
vt 0.15625 0.9805825
vt 0.390625 0.631068
vt 0.390625 0.6893204
vt 0.25 0.9223301
vt 0.296875 0.9223301
vt 0.296875 0.9805825
vt 0.25 0.9805825
vt 0.15625 0.1650485
vt 0.203125 0.1650485
vt 0.203125 0.223301
vt 0.15625 0.223301
vt 0.34375 0.9223301
vt 0.34375 0.9805825
vt 0.0625 0.8640777
vt 0.109375 0.8640777
vt 0.109375 0.9223301
vt 0.0625 0.9223301
vt 0.203125 0.8640777
vt 0.25 0.8640777
vt 0.296875 0.8640777
vt 0.34375 0.8640777
vt 0.0625 0.631068
vt 0.109375 0.631068
vt 0.109375 0.6893204
vt 0.0625 0.6893204
vt 0.15625 0.5728155
vt 0.203125 0.5728155
vt 0.203125 0.631068
vt 0.15625 0.631068
vt 0.109375 0.5145631
vt 0.0625 0.5145631
vt 0.390625 0.7475728
vt 0.34375 0.7475728
vt 0.4375 0.6893204
vt 0.4375 0.7475728
vt 0.484375 0.6893204
vt 0.484375 0.7475728
vt 0.53125 0.6893204
vt 0.53125 0.7475728
vt 0.4375 0.631068
vt 0.484375 0.631068
vt 0.53125 0.631068

# Normal
vn 0 0 -1

# Mesh description
g mapa_3_mesh_0050

# Faces
f 1/1/1 2/2/1 3/3/1 4/4/1
f 5/1/1 6/2/1 7/3/1 8/4/1
f 9/5/1 10/6/1 11/7/1 12/8/1
f 13/1/1 14/2/1 15/3/1 16/4/1
f 17/9/1 18/10/1 19/11/1 20/12/1
f 21/1/1 22/2/1 23/3/1 24/4/1
f 25/1/1 26/2/1 27/3/1 28/4/1
f 29/1/1 30/2/1 31/3/1 32/4/1
f 33/1/1 34/2/1 35/3/1 36/4/1
f 37/1/1 38/2/1 39/3/1 40/4/1
f 41/1/1 42/2/1 43/3/1 44/4/1
f 45/9/1 46/10/1 47/11/1 48/12/1
f 49/9/1 50/10/1 51/11/1 52/12/1
f 53/9/1 54/10/1 55/11/1 56/12/1
f 57/9/1 58/10/1 59/11/1 60/12/1
f 61/9/1 62/10/1 63/11/1 64/12/1
f 65/1/1 66/2/1 67/3/1 68/4/1
f 69/9/1 70/10/1 71/11/1 72/12/1
f 73/6/1 74/13/1 75/14/1 76/7/1
f 77/1/1 78/2/1 79/3/1 80/4/1
f 81/1/1 82/2/1 83/3/1 84/4/1
f 85/9/1 86/10/1 87/11/1 88/12/1
f 89/9/1 90/10/1 91/11/1 92/12/1
f 93/9/1 94/10/1 95/11/1 96/12/1
f 97/9/1 98/10/1 99/11/1 100/12/1
f 101/1/1 102/2/1 103/3/1 104/4/1
f 105/9/1 106/10/1 107/11/1 108/12/1
f 109/6/1 110/13/1 111/14/1 112/7/1
f 113/6/1 114/13/1 115/14/1 116/7/1
f 117/6/1 118/13/1 119/14/1 120/7/1
f 121/6/1 122/13/1 123/14/1 124/7/1
f 125/6/1 126/13/1 127/14/1 128/7/1
f 129/9/1 130/10/1 131/11/1 132/12/1
f 133/6/1 134/13/1 135/14/1 136/7/1
f 137/5/1 138/6/1 139/7/1 140/8/1
f 141/1/1 142/2/1 143/3/1 144/4/1
f 145/9/1 146/10/1 147/11/1 148/12/1
f 149/6/1 150/13/1 151/14/1 152/7/1
f 153/6/1 154/13/1 155/14/1 156/7/1
f 157/6/1 158/13/1 159/14/1 160/7/1
f 161/6/1 162/13/1 163/14/1 164/7/1
f 165/15/1 166/16/1 167/17/1 168/18/1
f 169/6/1 170/13/1 171/14/1 172/7/1
f 173/19/1 174/20/1 175/21/1 176/22/1
f 177/16/1 178/23/1 179/24/1 180/17/1
f 181/25/1 182/26/1 183/27/1 184/28/1
f 185/25/1 186/26/1 187/27/1 188/28/1
f 189/25/1 190/26/1 191/27/1 192/28/1
f 193/6/1 194/13/1 195/14/1 196/7/1
f 197/9/1 198/10/1 199/11/1 200/12/1
f 201/6/1 202/13/1 203/14/1 204/7/1
f 205/15/1 206/16/1 207/17/1 208/18/1
f 209/6/1 210/13/1 211/14/1 212/7/1
f 213/19/1 214/20/1 215/21/1 216/22/1
f 217/19/1 218/20/1 219/21/1 220/22/1
f 221/19/1 222/20/1 223/21/1 224/22/1
f 225/19/1 226/20/1 227/21/1 228/22/1
f 229/16/1 230/23/1 231/24/1 232/17/1
f 233/29/1 234/30/1 235/15/1 236/10/1
f 237/30/1 238/31/1 239/16/1 240/15/1
f 241/31/1 242/32/1 243/23/1 244/16/1
f 245/25/1 246/26/1 247/27/1 248/28/1
f 249/25/1 250/26/1 251/27/1 252/28/1
f 253/25/1 254/26/1 255/27/1 256/28/1
f 257/25/1 258/26/1 259/27/1 260/28/1
f 261/25/1 262/26/1 263/27/1 264/28/1
f 265/25/1 266/26/1 267/27/1 268/28/1
f 269/25/1 270/26/1 271/27/1 272/28/1
f 273/29/1 274/30/1 275/15/1 276/10/1
f 277/30/1 278/31/1 279/16/1 280/15/1
f 281/31/1 282/32/1 283/23/1 284/16/1
f 285/33/1 286/34/1 287/35/1 288/36/1
f 289/33/1 290/34/1 291/35/1 292/36/1
f 293/37/1 294/38/1 295/39/1 296/40/1
f 297/4/1 298/3/1 299/41/1 300/42/1
f 301/4/1 302/3/1 303/41/1 304/42/1
f 305/4/1 306/3/1 307/41/1 308/42/1
f 309/4/1 310/3/1 311/41/1 312/42/1
f 313/7/1 314/14/1 315/43/1 316/44/1
f 317/7/1 318/14/1 319/43/1 320/44/1
f 321/7/1 322/14/1 323/43/1 324/44/1
f 325/7/1 326/14/1 327/43/1 328/44/1
f 329/7/1 330/14/1 331/43/1 332/44/1
f 333/7/1 334/14/1 335/43/1 336/44/1
f 337/14/1 338/45/1 339/46/1 340/43/1
f 341/45/1 342/47/1 343/48/1 344/46/1
f 345/47/1 346/49/1 347/50/1 348/48/1
f 349/51/1 350/52/1 351/47/1 352/45/1
f 353/6/1 354/13/1 355/14/1 356/7/1
f 357/1/1 358/2/1 359/3/1 360/4/1
f 361/1/1 362/2/1 363/3/1 364/4/1
f 365/19/1 366/20/1 367/21/1 368/22/1
f 369/19/1 370/20/1 371/21/1 372/22/1
f 373/19/1 374/20/1 375/21/1 376/22/1
f 377/51/1 378/52/1 379/47/1 380/45/1
f 381/6/1 382/13/1 383/14/1 384/7/1
f 385/1/1 386/2/1 387/3/1 388/4/1
f 389/1/1 390/2/1 391/3/1 392/4/1
f 393/51/1 394/52/1 395/47/1 396/45/1
f 397/6/1 398/13/1 399/14/1 400/7/1
f 401/1/1 402/2/1 403/3/1 404/4/1
f 405/1/1 406/2/1 407/3/1 408/4/1
f 409/52/1 410/53/1 411/49/1 412/47/1
f 413/51/1 414/52/1 415/47/1 416/45/1
f 417/6/1 418/13/1 419/14/1 420/7/1
f 421/1/1 422/2/1 423/3/1 424/4/1
f 425/1/1 426/2/1 427/3/1 428/4/1
f 429/51/1 430/52/1 431/47/1 432/45/1
f 433/6/1 434/13/1 435/14/1 436/7/1
f 437/1/1 438/2/1 439/3/1 440/4/1
f 441/1/1 442/2/1 443/3/1 444/4/1
f 445/5/1 446/6/1 447/7/1 448/8/1
f 449/1/1 450/2/1 451/3/1 452/4/1
f 453/9/1 454/10/1 455/11/1 456/12/1
f 457/1/1 458/2/1 459/3/1 460/4/1
f 461/5/1 462/6/1 463/7/1 464/8/1
f 465/1/1 466/2/1 467/3/1 468/4/1
f 469/9/1 470/10/1 471/11/1 472/12/1
f 473/6/1 474/13/1 475/14/1 476/7/1
f 477/1/1 478/2/1 479/3/1 480/4/1
f 481/5/1 482/6/1 483/7/1 484/8/1
f 485/1/1 486/2/1 487/3/1 488/4/1
f 489/9/1 490/10/1 491/11/1 492/12/1
f 493/1/1 494/2/1 495/3/1 496/4/1
f 497/5/1 498/6/1 499/7/1 500/8/1
f 501/1/1 502/2/1 503/3/1 504/4/1
f 505/9/1 506/10/1 507/11/1 508/12/1
f 509/6/1 510/13/1 511/14/1 512/7/1
f 513/15/1 514/16/1 515/17/1 516/18/1
f 517/6/1 518/13/1 519/14/1 520/7/1
f 521/9/1 522/10/1 523/11/1 524/12/1
f 525/6/1 526/13/1 527/14/1 528/7/1
f 529/15/1 530/16/1 531/17/1 532/18/1
f 533/6/1 534/13/1 535/14/1 536/7/1
f 537/5/1 538/6/1 539/7/1 540/8/1
f 541/9/1 542/10/1 543/11/1 544/12/1
f 545/6/1 546/13/1 547/14/1 548/7/1
f 549/15/1 550/16/1 551/17/1 552/18/1
f 553/6/1 554/13/1 555/14/1 556/7/1
f 557/9/1 558/10/1 559/11/1 560/12/1
f 561/6/1 562/13/1 563/14/1 564/7/1
f 565/15/1 566/16/1 567/17/1 568/18/1
f 569/6/1 570/13/1 571/14/1 572/7/1
f 573/1/1 574/2/1 575/3/1 576/4/1
f 577/9/1 578/10/1 579/11/1 580/12/1
f 581/19/1 582/20/1 583/21/1 584/22/1
f 585/9/1 586/10/1 587/11/1 588/12/1
f 589/6/1 590/13/1 591/14/1 592/7/1
f 593/9/1 594/10/1 595/11/1 596/12/1
f 597/9/1 598/10/1 599/11/1 600/12/1
f 601/6/1 602/13/1 603/14/1 604/7/1
f 605/1/1 606/2/1 607/3/1 608/4/1
f 609/1/1 610/2/1 611/3/1 612/4/1
f 613/51/1 614/52/1 615/47/1 616/45/1
f 617/6/1 618/13/1 619/14/1 620/7/1
f 621/1/1 622/2/1 623/3/1 624/4/1
f 625/1/1 626/2/1 627/3/1 628/4/1
f 629/9/1 630/10/1 631/11/1 632/12/1
f 633/6/1 634/13/1 635/14/1 636/7/1
f 637/15/1 638/16/1 639/17/1 640/18/1
f 641/6/1 642/13/1 643/14/1 644/7/1
f 645/19/1 646/20/1 647/21/1 648/22/1
f 649/9/1 650/10/1 651/11/1 652/12/1
f 653/6/1 654/13/1 655/14/1 656/7/1
f 657/15/1 658/16/1 659/17/1 660/18/1
f 661/6/1 662/13/1 663/14/1 664/7/1
f 665/1/1 666/2/1 667/3/1 668/4/1
f 669/1/1 670/2/1 671/3/1 672/4/1
f 673/1/1 674/2/1 675/3/1 676/4/1
f 677/1/1 678/2/1 679/3/1 680/4/1
f 681/5/1 682/6/1 683/7/1 684/8/1
f 685/1/1 686/2/1 687/3/1 688/4/1
f 689/9/1 690/10/1 691/11/1 692/12/1
f 693/19/1 694/20/1 695/21/1 696/22/1
f 697/19/1 698/20/1 699/21/1 700/22/1
f 701/19/1 702/20/1 703/21/1 704/22/1
f 705/19/1 706/20/1 707/21/1 708/22/1
f 709/19/1 710/20/1 711/21/1 712/22/1
f 713/9/1 714/10/1 715/11/1 716/12/1
f 717/6/1 718/13/1 719/14/1 720/7/1
f 721/15/1 722/16/1 723/17/1 724/18/1
f 725/6/1 726/13/1 727/14/1 728/7/1
f 729/9/1 730/10/1 731/11/1 732/12/1

