# Tiled2Unity generated file. Do not modify by hand.
# Wavefront file for 'mapa_3_mesh_0059.obj'

# Vertices (Count = 560)
v -13 -1 0
v -14 -1 0
v -14 0 0
v -13 0 0
v -14 -1 0
v -15 -1 0
v -15 0 0
v -14 0 0
v -15 -1 0
v -16 -1 0
v -16 0 0
v -15 0 0
v -13 -2 0
v -14 -2 0
v -14 -1 0
v -13 -1 0
v -14 -2 0
v -15 -2 0
v -15 -1 0
v -14 -1 0
v -15 -2 0
v -16 -2 0
v -16 -1 0
v -15 -1 0
v -13 -3 0
v -14 -3 0
v -14 -2 0
v -13 -2 0
v -14 -3 0
v -15 -3 0
v -15 -2 0
v -14 -2 0
v -15 -3 0
v -16 -3 0
v -16 -2 0
v -15 -2 0
v -13 -4 0
v -14 -4 0
v -14 -3 0
v -13 -3 0
v -14 -4 0
v -15 -4 0
v -15 -3 0
v -14 -3 0
v -15 -4 0
v -16 -4 0
v -16 -3 0
v -15 -3 0
v 0 -5 0
v -1 -5 0
v -1 -4 0
v 0 -4 0
v -1 -5 0
v -2 -5 0
v -2 -4 0
v -1 -4 0
v -2 -5 0
v -3 -5 0
v -3 -4 0
v -2 -4 0
v -3 -5 0
v -4 -5 0
v -4 -4 0
v -3 -4 0
v -4 -5 0
v -5 -5 0
v -5 -4 0
v -4 -4 0
v -5 -5 0
v -6 -5 0
v -6 -4 0
v -5 -4 0
v -6 -5 0
v -7 -5 0
v -7 -4 0
v -6 -4 0
v -7 -5 0
v -8 -5 0
v -8 -4 0
v -7 -4 0
v -8 -5 0
v -9 -5 0
v -9 -4 0
v -8 -4 0
v -9 -5 0
v -10 -5 0
v -10 -4 0
v -9 -4 0
v -10 -5 0
v -11 -5 0
v -11 -4 0
v -10 -4 0
v -11 -5 0
v -12 -5 0
v -12 -4 0
v -11 -4 0
v -12 -5 0
v -13 -5 0
v -13 -4 0
v -12 -4 0
v -13 -5 0
v -14 -5 0
v -14 -4 0
v -13 -4 0
v -14 -5 0
v -15 -5 0
v -15 -4 0
v -14 -4 0
v -15 -5 0
v -16 -5 0
v -16 -4 0
v -15 -4 0
v 0 -6 0
v -1 -6 0
v -1 -5 0
v 0 -5 0
v -1 -6 0
v -2 -6 0
v -2 -5 0
v -1 -5 0
v -2 -6 0
v -3 -6 0
v -3 -5 0
v -2 -5 0
v -3 -6 0
v -4 -6 0
v -4 -5 0
v -3 -5 0
v -4 -6 0
v -5 -6 0
v -5 -5 0
v -4 -5 0
v -5 -6 0
v -6 -6 0
v -6 -5 0
v -5 -5 0
v -6 -6 0
v -7 -6 0
v -7 -5 0
v -6 -5 0
v -7 -6 0
v -8 -6 0
v -8 -5 0
v -7 -5 0
v -8 -6 0
v -9 -6 0
v -9 -5 0
v -8 -5 0
v -9 -6 0
v -10 -6 0
v -10 -5 0
v -9 -5 0
v -10 -6 0
v -11 -6 0
v -11 -5 0
v -10 -5 0
v -11 -6 0
v -12 -6 0
v -12 -5 0
v -11 -5 0
v -12 -6 0
v -13 -6 0
v -13 -5 0
v -12 -5 0
v -13 -6 0
v -14 -6 0
v -14 -5 0
v -13 -5 0
v -14 -6 0
v -15 -6 0
v -15 -5 0
v -14 -5 0
v -15 -6 0
v -16 -6 0
v -16 -5 0
v -15 -5 0
v 0 -7 0
v -1 -7 0
v -1 -6 0
v 0 -6 0
v -1 -7 0
v -2 -7 0
v -2 -6 0
v -1 -6 0
v -2 -7 0
v -3 -7 0
v -3 -6 0
v -2 -6 0
v -3 -7 0
v -4 -7 0
v -4 -6 0
v -3 -6 0
v -4 -7 0
v -5 -7 0
v -5 -6 0
v -4 -6 0
v -5 -7 0
v -6 -7 0
v -6 -6 0
v -5 -6 0
v -6 -7 0
v -7 -7 0
v -7 -6 0
v -6 -6 0
v -7 -7 0
v -8 -7 0
v -8 -6 0
v -7 -6 0
v -8 -7 0
v -9 -7 0
v -9 -6 0
v -8 -6 0
v -9 -7 0
v -10 -7 0
v -10 -6 0
v -9 -6 0
v -10 -7 0
v -11 -7 0
v -11 -6 0
v -10 -6 0
v -11 -7 0
v -12 -7 0
v -12 -6 0
v -11 -6 0
v -12 -7 0
v -13 -7 0
v -13 -6 0
v -12 -6 0
v -13 -7 0
v -14 -7 0
v -14 -6 0
v -13 -6 0
v -14 -7 0
v -15 -7 0
v -15 -6 0
v -14 -6 0
v -15 -7 0
v -16 -7 0
v -16 -6 0
v -15 -6 0
v 0 -8 0
v -1 -8 0
v -1 -7 0
v 0 -7 0
v -1 -8 0
v -2 -8 0
v -2 -7 0
v -1 -7 0
v -2 -8 0
v -3 -8 0
v -3 -7 0
v -2 -7 0
v -3 -8 0
v -4 -8 0
v -4 -7 0
v -3 -7 0
v -4 -8 0
v -5 -8 0
v -5 -7 0
v -4 -7 0
v -5 -8 0
v -6 -8 0
v -6 -7 0
v -5 -7 0
v -6 -8 0
v -7 -8 0
v -7 -7 0
v -6 -7 0
v -7 -8 0
v -8 -8 0
v -8 -7 0
v -7 -7 0
v -8 -8 0
v -9 -8 0
v -9 -7 0
v -8 -7 0
v -9 -8 0
v -10 -8 0
v -10 -7 0
v -9 -7 0
v -10 -8 0
v -11 -8 0
v -11 -7 0
v -10 -7 0
v -11 -8 0
v -12 -8 0
v -12 -7 0
v -11 -7 0
v -12 -8 0
v -13 -8 0
v -13 -7 0
v -12 -7 0
v -13 -8 0
v -14 -8 0
v -14 -7 0
v -13 -7 0
v -14 -8 0
v -15 -8 0
v -15 -7 0
v -14 -7 0
v -15 -8 0
v -16 -8 0
v -16 -7 0
v -15 -7 0
v 0 -9 0
v -1 -9 0
v -1 -8 0
v 0 -8 0
v -1 -9 0
v -2 -9 0
v -2 -8 0
v -1 -8 0
v -2 -9 0
v -3 -9 0
v -3 -8 0
v -2 -8 0
v -3 -9 0
v -4 -9 0
v -4 -8 0
v -3 -8 0
v -4 -9 0
v -5 -9 0
v -5 -8 0
v -4 -8 0
v -5 -9 0
v -6 -9 0
v -6 -8 0
v -5 -8 0
v -6 -9 0
v -7 -9 0
v -7 -8 0
v -6 -8 0
v -7 -9 0
v -8 -9 0
v -8 -8 0
v -7 -8 0
v -8 -9 0
v -9 -9 0
v -9 -8 0
v -8 -8 0
v -9 -9 0
v -10 -9 0
v -10 -8 0
v -9 -8 0
v -10 -9 0
v -11 -9 0
v -11 -8 0
v -10 -8 0
v -11 -9 0
v -12 -9 0
v -12 -8 0
v -11 -8 0
v -12 -9 0
v -13 -9 0
v -13 -8 0
v -12 -8 0
v -13 -9 0
v -14 -9 0
v -14 -8 0
v -13 -8 0
v -14 -9 0
v -15 -9 0
v -15 -8 0
v -14 -8 0
v -15 -9 0
v -16 -9 0
v -16 -8 0
v -15 -8 0
v 0 -10 0
v -1 -10 0
v -1 -9 0
v 0 -9 0
v -1 -10 0
v -2 -10 0
v -2 -9 0
v -1 -9 0
v -2 -10 0
v -3 -10 0
v -3 -9 0
v -2 -9 0
v -3 -10 0
v -4 -10 0
v -4 -9 0
v -3 -9 0
v -4 -10 0
v -5 -10 0
v -5 -9 0
v -4 -9 0
v -5 -10 0
v -6 -10 0
v -6 -9 0
v -5 -9 0
v -6 -10 0
v -7 -10 0
v -7 -9 0
v -6 -9 0
v -7 -10 0
v -8 -10 0
v -8 -9 0
v -7 -9 0
v -8 -10 0
v -9 -10 0
v -9 -9 0
v -8 -9 0
v -9 -10 0
v -10 -10 0
v -10 -9 0
v -9 -9 0
v -10 -10 0
v -11 -10 0
v -11 -9 0
v -10 -9 0
v -11 -10 0
v -12 -10 0
v -12 -9 0
v -11 -9 0
v -12 -10 0
v -13 -10 0
v -13 -9 0
v -12 -9 0
v -13 -10 0
v -14 -10 0
v -14 -9 0
v -13 -9 0
v -14 -10 0
v -15 -10 0
v -15 -9 0
v -14 -9 0
v -15 -10 0
v -16 -10 0
v -16 -9 0
v -15 -9 0
v 0 -11 0
v -1 -11 0
v -1 -10 0
v 0 -10 0
v -1 -11 0
v -2 -11 0
v -2 -10 0
v -1 -10 0
v -2 -11 0
v -3 -11 0
v -3 -10 0
v -2 -10 0
v -3 -11 0
v -4 -11 0
v -4 -10 0
v -3 -10 0
v -4 -11 0
v -5 -11 0
v -5 -10 0
v -4 -10 0
v -5 -11 0
v -6 -11 0
v -6 -10 0
v -5 -10 0
v -6 -11 0
v -7 -11 0
v -7 -10 0
v -6 -10 0
v -7 -11 0
v -8 -11 0
v -8 -10 0
v -7 -10 0
v -8 -11 0
v -9 -11 0
v -9 -10 0
v -8 -10 0
v -9 -11 0
v -10 -11 0
v -10 -10 0
v -9 -10 0
v -10 -11 0
v -11 -11 0
v -11 -10 0
v -10 -10 0
v -11 -11 0
v -12 -11 0
v -12 -10 0
v -11 -10 0
v -12 -11 0
v -13 -11 0
v -13 -10 0
v -12 -10 0
v -13 -11 0
v -14 -11 0
v -14 -10 0
v -13 -10 0
v -14 -11 0
v -15 -11 0
v -15 -10 0
v -14 -10 0
v -15 -11 0
v -16 -11 0
v -16 -10 0
v -15 -10 0
v 0 -12 0
v -1 -12 0
v -1 -11 0
v 0 -11 0
v -1 -12 0
v -2 -12 0
v -2 -11 0
v -1 -11 0
v -2 -12 0
v -3 -12 0
v -3 -11 0
v -2 -11 0
v -3 -12 0
v -4 -12 0
v -4 -11 0
v -3 -11 0
v -4 -12 0
v -5 -12 0
v -5 -11 0
v -4 -11 0
v -5 -12 0
v -6 -12 0
v -6 -11 0
v -5 -11 0
v -6 -12 0
v -7 -12 0
v -7 -11 0
v -6 -11 0
v -7 -12 0
v -8 -12 0
v -8 -11 0
v -7 -11 0
v -8 -12 0
v -9 -12 0
v -9 -11 0
v -8 -11 0
v -9 -12 0
v -10 -12 0
v -10 -11 0
v -9 -11 0
v -10 -12 0
v -11 -12 0
v -11 -11 0
v -10 -11 0
v -11 -12 0
v -12 -12 0
v -12 -11 0
v -11 -11 0
v -12 -12 0
v -13 -12 0
v -13 -11 0
v -12 -11 0
v -13 -12 0
v -14 -12 0
v -14 -11 0
v -13 -11 0
v -14 -12 0
v -15 -12 0
v -15 -11 0
v -14 -11 0
v -15 -12 0
v -16 -12 0
v -16 -11 0
v -15 -11 0

# Texture cooridinates (Count = 34)
vt 0.015625 0.3980582
vt 0.0625 0.3980582
vt 0.0625 0.4563107
vt 0.015625 0.4563107
vt 0.109375 0.3980582
vt 0.109375 0.4563107
vt 0.296875 0.631068
vt 0.34375 0.631068
vt 0.34375 0.6893204
vt 0.296875 0.6893204
vt 0.15625 0.9223301
vt 0.203125 0.9223301
vt 0.203125 0.9805825
vt 0.15625 0.9805825
vt 0.390625 0.631068
vt 0.390625 0.6893204
vt 0.015625 0.3398058
vt 0.0625 0.3398058
vt 0.53125 0.631068
vt 0.578125 0.631068
vt 0.578125 0.6893204
vt 0.53125 0.6893204
vt 0.15625 0.1650485
vt 0.203125 0.1650485
vt 0.203125 0.223301
vt 0.15625 0.223301
vt 0.4375 0.631068
vt 0.484375 0.631068
vt 0.484375 0.6893204
vt 0.4375 0.6893204
vt 0.25 0.9223301
vt 0.296875 0.9223301
vt 0.296875 0.9805825
vt 0.25 0.9805825

# Normal
vn 0 0 -1

# Mesh description
g mapa_3_mesh_0059

# Faces
f 1/1/1 2/2/1 3/3/1 4/4/1
f 5/2/1 6/5/1 7/6/1 8/3/1
f 9/7/1 10/8/1 11/9/1 12/10/1
f 13/1/1 14/2/1 15/3/1 16/4/1
f 17/11/1 18/12/1 19/13/1 20/14/1
f 21/8/1 22/15/1 23/16/1 24/9/1
f 25/1/1 26/2/1 27/3/1 28/4/1
f 29/11/1 30/12/1 31/13/1 32/14/1
f 33/8/1 34/15/1 35/16/1 36/9/1
f 37/17/1 38/18/1 39/2/1 40/1/1
f 41/2/1 42/5/1 43/6/1 44/3/1
f 45/7/1 46/8/1 47/9/1 48/10/1
f 49/19/1 50/20/1 51/21/1 52/22/1
f 53/19/1 54/20/1 55/21/1 56/22/1
f 57/19/1 58/20/1 59/21/1 60/22/1
f 61/19/1 62/20/1 63/21/1 64/22/1
f 65/19/1 66/20/1 67/21/1 68/22/1
f 69/19/1 70/20/1 71/21/1 72/22/1
f 73/19/1 74/20/1 75/21/1 76/22/1
f 77/19/1 78/20/1 79/21/1 80/22/1
f 81/19/1 82/20/1 83/21/1 84/22/1
f 85/19/1 86/20/1 87/21/1 88/22/1
f 89/19/1 90/20/1 91/21/1 92/22/1
f 93/19/1 94/20/1 95/21/1 96/22/1
f 97/19/1 98/20/1 99/21/1 100/22/1
f 101/23/1 102/24/1 103/25/1 104/26/1
f 105/11/1 106/12/1 107/13/1 108/14/1
f 109/8/1 110/15/1 111/16/1 112/9/1
f 113/2/1 114/5/1 115/6/1 116/3/1
f 117/2/1 118/5/1 119/6/1 120/3/1
f 121/27/1 122/28/1 123/29/1 124/30/1
f 125/8/1 126/15/1 127/16/1 128/9/1
f 129/2/1 130/5/1 131/6/1 132/3/1
f 133/2/1 134/5/1 135/6/1 136/3/1
f 137/27/1 138/28/1 139/29/1 140/30/1
f 141/8/1 142/15/1 143/16/1 144/9/1
f 145/2/1 146/5/1 147/6/1 148/3/1
f 149/2/1 150/5/1 151/6/1 152/3/1
f 153/27/1 154/28/1 155/29/1 156/30/1
f 157/8/1 158/15/1 159/16/1 160/9/1
f 161/27/1 162/28/1 163/29/1 164/30/1
f 165/8/1 166/15/1 167/16/1 168/9/1
f 169/11/1 170/12/1 171/13/1 172/14/1
f 173/8/1 174/15/1 175/16/1 176/9/1
f 177/2/1 178/5/1 179/6/1 180/3/1
f 181/2/1 182/5/1 183/6/1 184/3/1
f 185/27/1 186/28/1 187/29/1 188/30/1
f 189/8/1 190/15/1 191/16/1 192/9/1
f 193/2/1 194/5/1 195/6/1 196/3/1
f 197/2/1 198/5/1 199/6/1 200/3/1
f 201/2/1 202/5/1 203/6/1 204/3/1
f 205/7/1 206/8/1 207/9/1 208/10/1
f 209/2/1 210/5/1 211/6/1 212/3/1
f 213/11/1 214/12/1 215/13/1 216/14/1
f 217/2/1 218/5/1 219/6/1 220/3/1
f 221/7/1 222/8/1 223/9/1 224/10/1
f 225/2/1 226/5/1 227/6/1 228/3/1
f 229/7/1 230/8/1 231/9/1 232/10/1
f 233/2/1 234/5/1 235/6/1 236/3/1
f 237/11/1 238/12/1 239/13/1 240/14/1
f 241/2/1 242/5/1 243/6/1 244/3/1
f 245/11/1 246/12/1 247/13/1 248/14/1
f 249/2/1 250/5/1 251/6/1 252/3/1
f 253/27/1 254/28/1 255/29/1 256/30/1
f 257/8/1 258/15/1 259/16/1 260/9/1
f 261/2/1 262/5/1 263/6/1 264/3/1
f 265/11/1 266/12/1 267/13/1 268/14/1
f 269/8/1 270/15/1 271/16/1 272/9/1
f 273/31/1 274/32/1 275/33/1 276/34/1
f 277/8/1 278/15/1 279/16/1 280/9/1
f 281/11/1 282/12/1 283/13/1 284/14/1
f 285/8/1 286/15/1 287/16/1 288/9/1
f 289/11/1 290/12/1 291/13/1 292/14/1
f 293/8/1 294/15/1 295/16/1 296/9/1
f 297/31/1 298/32/1 299/33/1 300/34/1
f 301/8/1 302/15/1 303/16/1 304/9/1
f 305/31/1 306/32/1 307/33/1 308/34/1
f 309/8/1 310/15/1 311/16/1 312/9/1
f 313/27/1 314/28/1 315/29/1 316/30/1
f 317/8/1 318/15/1 319/16/1 320/9/1
f 321/2/1 322/5/1 323/6/1 324/3/1
f 325/2/1 326/5/1 327/6/1 328/3/1
f 329/27/1 330/28/1 331/29/1 332/30/1
f 333/11/1 334/12/1 335/13/1 336/14/1
f 337/27/1 338/28/1 339/29/1 340/30/1
f 341/8/1 342/15/1 343/16/1 344/9/1
f 345/27/1 346/28/1 347/29/1 348/30/1
f 349/27/1 350/28/1 351/29/1 352/30/1
f 353/8/1 354/15/1 355/16/1 356/9/1
f 357/2/1 358/5/1 359/6/1 360/3/1
f 361/27/1 362/28/1 363/29/1 364/30/1
f 365/8/1 366/15/1 367/16/1 368/9/1
f 369/2/1 370/5/1 371/6/1 372/3/1
f 373/2/1 374/5/1 375/6/1 376/3/1
f 377/27/1 378/28/1 379/29/1 380/30/1
f 381/8/1 382/15/1 383/16/1 384/9/1
f 385/2/1 386/5/1 387/6/1 388/3/1
f 389/2/1 390/5/1 391/6/1 392/3/1
f 393/2/1 394/5/1 395/6/1 396/3/1
f 397/27/1 398/28/1 399/29/1 400/30/1
f 401/8/1 402/15/1 403/16/1 404/9/1
f 405/2/1 406/5/1 407/6/1 408/3/1
f 409/2/1 410/5/1 411/6/1 412/3/1
f 413/27/1 414/28/1 415/29/1 416/30/1
f 417/8/1 418/15/1 419/16/1 420/9/1
f 421/27/1 422/28/1 423/29/1 424/30/1
f 425/2/1 426/5/1 427/6/1 428/3/1
f 429/7/1 430/8/1 431/9/1 432/10/1
f 433/2/1 434/5/1 435/6/1 436/3/1
f 437/11/1 438/12/1 439/13/1 440/14/1
f 441/2/1 442/5/1 443/6/1 444/3/1
f 445/7/1 446/8/1 447/9/1 448/10/1
f 449/2/1 450/5/1 451/6/1 452/3/1
f 453/11/1 454/12/1 455/13/1 456/14/1
f 457/11/1 458/12/1 459/13/1 460/14/1
f 461/2/1 462/5/1 463/6/1 464/3/1
f 465/7/1 466/8/1 467/9/1 468/10/1
f 469/2/1 470/5/1 471/6/1 472/3/1
f 473/11/1 474/12/1 475/13/1 476/14/1
f 477/2/1 478/5/1 479/6/1 480/3/1
f 481/7/1 482/8/1 483/9/1 484/10/1
f 485/2/1 486/5/1 487/6/1 488/3/1
f 489/11/1 490/12/1 491/13/1 492/14/1
f 493/8/1 494/15/1 495/16/1 496/9/1
f 497/31/1 498/32/1 499/33/1 500/34/1
f 501/8/1 502/15/1 503/16/1 504/9/1
f 505/11/1 506/12/1 507/13/1 508/14/1
f 509/8/1 510/15/1 511/16/1 512/9/1
f 513/31/1 514/32/1 515/33/1 516/34/1
f 517/8/1 518/15/1 519/16/1 520/9/1
f 521/8/1 522/15/1 523/16/1 524/9/1
f 525/11/1 526/12/1 527/13/1 528/14/1
f 529/8/1 530/15/1 531/16/1 532/9/1
f 533/31/1 534/32/1 535/33/1 536/34/1
f 537/8/1 538/15/1 539/16/1 540/9/1
f 541/11/1 542/12/1 543/13/1 544/14/1
f 545/8/1 546/15/1 547/16/1 548/9/1
f 549/11/1 550/12/1 551/13/1 552/14/1
f 553/8/1 554/15/1 555/16/1 556/9/1
f 557/31/1 558/32/1 559/33/1 560/34/1

