# Tiled2Unity generated file. Do not modify by hand.
# Wavefront file for 'mapa_3_mesh_0045.obj'

# Vertices (Count = 352)
v 0 -8 0
v -1 -8 0
v -1 -7 0
v 0 -7 0
v -1 -8 0
v -2 -8 0
v -2 -7 0
v -1 -7 0
v -2 -8 0
v -3 -8 0
v -3 -7 0
v -2 -7 0
v -3 -8 0
v -4 -8 0
v -4 -7 0
v -3 -7 0
v -4 -8 0
v -5 -8 0
v -5 -7 0
v -4 -7 0
v -5 -8 0
v -6 -8 0
v -6 -7 0
v -5 -7 0
v -6 -8 0
v -7 -8 0
v -7 -7 0
v -6 -7 0
v -7 -8 0
v -8 -8 0
v -8 -7 0
v -7 -7 0
v 0 -9 0
v -1 -9 0
v -1 -8 0
v 0 -8 0
v -1 -9 0
v -2 -9 0
v -2 -8 0
v -1 -8 0
v -2 -9 0
v -3 -9 0
v -3 -8 0
v -2 -8 0
v -3 -9 0
v -4 -9 0
v -4 -8 0
v -3 -8 0
v -4 -9 0
v -5 -9 0
v -5 -8 0
v -4 -8 0
v -5 -9 0
v -6 -9 0
v -6 -8 0
v -5 -8 0
v -6 -9 0
v -7 -9 0
v -7 -8 0
v -6 -8 0
v -7 -9 0
v -8 -9 0
v -8 -8 0
v -7 -8 0
v 0 -10 0
v -1 -10 0
v -1 -9 0
v 0 -9 0
v -1 -10 0
v -2 -10 0
v -2 -9 0
v -1 -9 0
v -2 -10 0
v -3 -10 0
v -3 -9 0
v -2 -9 0
v -3 -10 0
v -4 -10 0
v -4 -9 0
v -3 -9 0
v -4 -10 0
v -5 -10 0
v -5 -9 0
v -4 -9 0
v -5 -10 0
v -6 -10 0
v -6 -9 0
v -5 -9 0
v -6 -10 0
v -7 -10 0
v -7 -9 0
v -6 -9 0
v -7 -10 0
v -8 -10 0
v -8 -9 0
v -7 -9 0
v 0 -11 0
v -1 -11 0
v -1 -10 0
v 0 -10 0
v -1 -11 0
v -2 -11 0
v -2 -10 0
v -1 -10 0
v -2 -11 0
v -3 -11 0
v -3 -10 0
v -2 -10 0
v -3 -11 0
v -4 -11 0
v -4 -10 0
v -3 -10 0
v -4 -11 0
v -5 -11 0
v -5 -10 0
v -4 -10 0
v -5 -11 0
v -6 -11 0
v -6 -10 0
v -5 -10 0
v -6 -11 0
v -7 -11 0
v -7 -10 0
v -6 -10 0
v -7 -11 0
v -8 -11 0
v -8 -10 0
v -7 -10 0
v 0 -12 0
v -1 -12 0
v -1 -11 0
v 0 -11 0
v -1 -12 0
v -2 -12 0
v -2 -11 0
v -1 -11 0
v -2 -12 0
v -3 -12 0
v -3 -11 0
v -2 -11 0
v -3 -12 0
v -4 -12 0
v -4 -11 0
v -3 -11 0
v -4 -12 0
v -5 -12 0
v -5 -11 0
v -4 -11 0
v -5 -12 0
v -6 -12 0
v -6 -11 0
v -5 -11 0
v -6 -12 0
v -7 -12 0
v -7 -11 0
v -6 -11 0
v -7 -12 0
v -8 -12 0
v -8 -11 0
v -7 -11 0
v 0 -13 0
v -1 -13 0
v -1 -12 0
v 0 -12 0
v -1 -13 0
v -2 -13 0
v -2 -12 0
v -1 -12 0
v -2 -13 0
v -3 -13 0
v -3 -12 0
v -2 -12 0
v -3 -13 0
v -4 -13 0
v -4 -12 0
v -3 -12 0
v -4 -13 0
v -5 -13 0
v -5 -12 0
v -4 -12 0
v -5 -13 0
v -6 -13 0
v -6 -12 0
v -5 -12 0
v -6 -13 0
v -7 -13 0
v -7 -12 0
v -6 -12 0
v -7 -13 0
v -8 -13 0
v -8 -12 0
v -7 -12 0
v 0 -14 0
v -1 -14 0
v -1 -13 0
v 0 -13 0
v -1 -14 0
v -2 -14 0
v -2 -13 0
v -1 -13 0
v -2 -14 0
v -3 -14 0
v -3 -13 0
v -2 -13 0
v -3 -14 0
v -4 -14 0
v -4 -13 0
v -3 -13 0
v -4 -14 0
v -5 -14 0
v -5 -13 0
v -4 -13 0
v -5 -14 0
v -6 -14 0
v -6 -13 0
v -5 -13 0
v -6 -14 0
v -7 -14 0
v -7 -13 0
v -6 -13 0
v -7 -14 0
v -8 -14 0
v -8 -13 0
v -7 -13 0
v 0 -15 0
v -1 -15 0
v -1 -14 0
v 0 -14 0
v -1 -15 0
v -2 -15 0
v -2 -14 0
v -1 -14 0
v -2 -15 0
v -3 -15 0
v -3 -14 0
v -2 -14 0
v -3 -15 0
v -4 -15 0
v -4 -14 0
v -3 -14 0
v -4 -15 0
v -5 -15 0
v -5 -14 0
v -4 -14 0
v -5 -15 0
v -6 -15 0
v -6 -14 0
v -5 -14 0
v -6 -15 0
v -7 -15 0
v -7 -14 0
v -6 -14 0
v -7 -15 0
v -8 -15 0
v -8 -14 0
v -7 -14 0
v -8 -15 0
v -9 -15 0
v -9 -14 0
v -8 -14 0
v -9 -15 0
v -10 -15 0
v -10 -14 0
v -9 -14 0
v -10 -15 0
v -11 -15 0
v -11 -14 0
v -10 -14 0
v -11 -15 0
v -12 -15 0
v -12 -14 0
v -11 -14 0
v -12 -15 0
v -13 -15 0
v -13 -14 0
v -12 -14 0
v -13 -15 0
v -14 -15 0
v -14 -14 0
v -13 -14 0
v -14 -15 0
v -15 -15 0
v -15 -14 0
v -14 -14 0
v -15 -15 0
v -16 -15 0
v -16 -14 0
v -15 -14 0
v 0 -16 0
v -1 -16 0
v -1 -15 0
v 0 -15 0
v -1 -16 0
v -2 -16 0
v -2 -15 0
v -1 -15 0
v -2 -16 0
v -3 -16 0
v -3 -15 0
v -2 -15 0
v -3 -16 0
v -4 -16 0
v -4 -15 0
v -3 -15 0
v -4 -16 0
v -5 -16 0
v -5 -15 0
v -4 -15 0
v -5 -16 0
v -6 -16 0
v -6 -15 0
v -5 -15 0
v -6 -16 0
v -7 -16 0
v -7 -15 0
v -6 -15 0
v -7 -16 0
v -8 -16 0
v -8 -15 0
v -7 -15 0
v -8 -16 0
v -9 -16 0
v -9 -15 0
v -8 -15 0
v -9 -16 0
v -10 -16 0
v -10 -15 0
v -9 -15 0
v -10 -16 0
v -11 -16 0
v -11 -15 0
v -10 -15 0
v -11 -16 0
v -12 -16 0
v -12 -15 0
v -11 -15 0
v -12 -16 0
v -13 -16 0
v -13 -15 0
v -12 -15 0
v -13 -16 0
v -14 -16 0
v -14 -15 0
v -13 -15 0
v -14 -16 0
v -15 -16 0
v -15 -15 0
v -14 -15 0
v -15 -16 0
v -16 -16 0
v -16 -15 0
v -15 -15 0

# Texture cooridinates (Count = 42)
vt 0.34375 0.6893204
vt 0.390625 0.6893204
vt 0.390625 0.7475728
vt 0.34375 0.7475728
vt 0.109375 0.4563107
vt 0.15625 0.4563107
vt 0.15625 0.5145631
vt 0.109375 0.5145631
vt 0.0625 0.3980582
vt 0.109375 0.3980582
vt 0.0625 0.4563107
vt 0.4375 0.631068
vt 0.484375 0.631068
vt 0.484375 0.6893204
vt 0.4375 0.6893204
vt 0.34375 0.631068
vt 0.390625 0.631068
vt 0.15625 0.3980582
vt 0.15625 0.9223301
vt 0.203125 0.9223301
vt 0.203125 0.9805825
vt 0.15625 0.9805825
vt 0.296875 0.631068
vt 0.296875 0.6893204
vt 0.25 0.9223301
vt 0.296875 0.9223301
vt 0.296875 0.9805825
vt 0.25 0.9805825
vt 0.109375 0.3398058
vt 0.15625 0.3398058
vt 0.578125 0.4563107
vt 0.625 0.4563107
vt 0.625 0.5145631
vt 0.578125 0.5145631
vt 0.15625 0.1650485
vt 0.203125 0.1650485
vt 0.203125 0.223301
vt 0.15625 0.223301
vt 0.53125 0.631068
vt 0.578125 0.631068
vt 0.578125 0.6893204
vt 0.53125 0.6893204

# Normal
vn 0 0 -1

# Mesh description
g mapa_3_mesh_0045

# Faces
f 1/1/1 2/2/1 3/3/1 4/4/1
f 5/1/1 6/2/1 7/3/1 8/4/1
f 9/1/1 10/2/1 11/3/1 12/4/1
f 13/1/1 14/2/1 15/3/1 16/4/1
f 17/1/1 18/2/1 19/3/1 20/4/1
f 21/1/1 22/2/1 23/3/1 24/4/1
f 25/1/1 26/2/1 27/3/1 28/4/1
f 29/5/1 30/6/1 31/7/1 32/8/1
f 33/9/1 34/10/1 35/5/1 36/11/1
f 37/9/1 38/10/1 39/5/1 40/11/1
f 41/12/1 42/13/1 43/14/1 44/15/1
f 45/12/1 46/13/1 47/14/1 48/15/1
f 49/16/1 50/17/1 51/2/1 52/1/1
f 53/9/1 54/10/1 55/5/1 56/11/1
f 57/9/1 58/10/1 59/5/1 60/11/1
f 61/10/1 62/18/1 63/6/1 64/5/1
f 65/9/1 66/10/1 67/5/1 68/11/1
f 69/19/1 70/20/1 71/21/1 72/22/1
f 73/9/1 74/10/1 75/5/1 76/11/1
f 77/9/1 78/10/1 79/5/1 80/11/1
f 81/23/1 82/16/1 83/1/1 84/24/1
f 85/9/1 86/10/1 87/5/1 88/11/1
f 89/19/1 90/20/1 91/21/1 92/22/1
f 93/10/1 94/18/1 95/6/1 96/5/1
f 97/25/1 98/26/1 99/27/1 100/28/1
f 101/16/1 102/17/1 103/2/1 104/1/1
f 105/19/1 106/20/1 107/21/1 108/22/1
f 109/19/1 110/20/1 111/21/1 112/22/1
f 113/16/1 114/17/1 115/2/1 116/1/1
f 117/25/1 118/26/1 119/27/1 120/28/1
f 121/16/1 122/17/1 123/2/1 124/1/1
f 125/10/1 126/18/1 127/6/1 128/5/1
f 129/25/1 130/26/1 131/27/1 132/28/1
f 133/16/1 134/17/1 135/2/1 136/1/1
f 137/12/1 138/13/1 139/14/1 140/15/1
f 141/12/1 142/13/1 143/14/1 144/15/1
f 145/16/1 146/17/1 147/2/1 148/1/1
f 149/9/1 150/10/1 151/5/1 152/11/1
f 153/9/1 154/10/1 155/5/1 156/11/1
f 157/10/1 158/18/1 159/6/1 160/5/1
f 161/19/1 162/20/1 163/21/1 164/22/1
f 165/19/1 166/20/1 167/21/1 168/22/1
f 169/9/1 170/10/1 171/5/1 172/11/1
f 173/9/1 174/10/1 175/5/1 176/11/1
f 177/23/1 178/16/1 179/1/1 180/24/1
f 181/9/1 182/10/1 183/5/1 184/11/1
f 185/19/1 186/20/1 187/21/1 188/22/1
f 189/10/1 190/18/1 191/6/1 192/5/1
f 193/9/1 194/10/1 195/5/1 196/11/1
f 197/16/1 198/17/1 199/2/1 200/1/1
f 201/19/1 202/20/1 203/21/1 204/22/1
f 205/12/1 206/13/1 207/14/1 208/15/1
f 209/16/1 210/17/1 211/2/1 212/1/1
f 213/9/1 214/10/1 215/5/1 216/11/1
f 217/9/1 218/10/1 219/5/1 220/11/1
f 221/10/1 222/18/1 223/6/1 224/5/1
f 225/19/1 226/20/1 227/21/1 228/22/1
f 229/25/1 230/26/1 231/27/1 232/28/1
f 233/16/1 234/17/1 235/2/1 236/1/1
f 237/12/1 238/13/1 239/14/1 240/15/1
f 241/16/1 242/17/1 243/2/1 244/1/1
f 245/9/1 246/10/1 247/5/1 248/11/1
f 249/9/1 250/10/1 251/5/1 252/11/1
f 253/29/1 254/30/1 255/18/1 256/10/1
f 257/31/1 258/32/1 259/33/1 260/34/1
f 261/31/1 262/32/1 263/33/1 264/34/1
f 265/31/1 266/32/1 267/33/1 268/34/1
f 269/31/1 270/32/1 271/33/1 272/34/1
f 273/31/1 274/32/1 275/33/1 276/34/1
f 277/31/1 278/32/1 279/33/1 280/34/1
f 281/31/1 282/32/1 283/33/1 284/34/1
f 285/31/1 286/32/1 287/33/1 288/34/1
f 289/16/1 290/17/1 291/2/1 292/1/1
f 293/25/1 294/26/1 295/27/1 296/28/1
f 297/16/1 298/17/1 299/2/1 300/1/1
f 301/9/1 302/10/1 303/5/1 304/11/1
f 305/23/1 306/16/1 307/1/1 308/24/1
f 309/9/1 310/10/1 311/5/1 312/11/1
f 313/19/1 314/20/1 315/21/1 316/22/1
f 317/35/1 318/36/1 319/37/1 320/38/1
f 321/39/1 322/40/1 323/41/1 324/42/1
f 325/39/1 326/40/1 327/41/1 328/42/1
f 329/39/1 330/40/1 331/41/1 332/42/1
f 333/39/1 334/40/1 335/41/1 336/42/1
f 337/39/1 338/40/1 339/41/1 340/42/1
f 341/39/1 342/40/1 343/41/1 344/42/1
f 345/39/1 346/40/1 347/41/1 348/42/1
f 349/39/1 350/40/1 351/41/1 352/42/1

