# Tiled2Unity generated file. Do not modify by hand.
# Wavefront file for 'Mapa_2_mesh_0061.obj'

# Vertices (Count = 384)
v 0 -4 0
v -1 -4 0
v -1 -3 0
v 0 -3 0
v -1 -4 0
v -2 -4 0
v -2 -3 0
v -1 -3 0
v -2 -4 0
v -3 -4 0
v -3 -3 0
v -2 -3 0
v -3 -4 0
v -4 -4 0
v -4 -3 0
v -3 -3 0
v -4 -4 0
v -5 -4 0
v -5 -3 0
v -4 -3 0
v -5 -4 0
v -6 -4 0
v -6 -3 0
v -5 -3 0
v -6 -4 0
v -7 -4 0
v -7 -3 0
v -6 -3 0
v -7 -4 0
v -8 -4 0
v -8 -3 0
v -7 -3 0
v -8 -4 0
v -9 -4 0
v -9 -3 0
v -8 -3 0
v -9 -4 0
v -10 -4 0
v -10 -3 0
v -9 -3 0
v -10 -4 0
v -11 -4 0
v -11 -3 0
v -10 -3 0
v -11 -4 0
v -12 -4 0
v -12 -3 0
v -11 -3 0
v -12 -4 0
v -13 -4 0
v -13 -3 0
v -12 -3 0
v -13 -4 0
v -14 -4 0
v -14 -3 0
v -13 -3 0
v -14 -4 0
v -15 -4 0
v -15 -3 0
v -14 -3 0
v -15 -4 0
v -16 -4 0
v -16 -3 0
v -15 -3 0
v 0 -5 0
v -1 -5 0
v -1 -4 0
v 0 -4 0
v -1 -5 0
v -2 -5 0
v -2 -4 0
v -1 -4 0
v -2 -5 0
v -3 -5 0
v -3 -4 0
v -2 -4 0
v -3 -5 0
v -4 -5 0
v -4 -4 0
v -3 -4 0
v -4 -5 0
v -5 -5 0
v -5 -4 0
v -4 -4 0
v -5 -5 0
v -6 -5 0
v -6 -4 0
v -5 -4 0
v -6 -5 0
v -7 -5 0
v -7 -4 0
v -6 -4 0
v -7 -5 0
v -8 -5 0
v -8 -4 0
v -7 -4 0
v -8 -5 0
v -9 -5 0
v -9 -4 0
v -8 -4 0
v -9 -5 0
v -10 -5 0
v -10 -4 0
v -9 -4 0
v -10 -5 0
v -11 -5 0
v -11 -4 0
v -10 -4 0
v -11 -5 0
v -12 -5 0
v -12 -4 0
v -11 -4 0
v -12 -5 0
v -13 -5 0
v -13 -4 0
v -12 -4 0
v -13 -5 0
v -14 -5 0
v -14 -4 0
v -13 -4 0
v -14 -5 0
v -15 -5 0
v -15 -4 0
v -14 -4 0
v -15 -5 0
v -16 -5 0
v -16 -4 0
v -15 -4 0
v 0 -6 0
v -1 -6 0
v -1 -5 0
v 0 -5 0
v -1 -6 0
v -2 -6 0
v -2 -5 0
v -1 -5 0
v -2 -6 0
v -3 -6 0
v -3 -5 0
v -2 -5 0
v -3 -6 0
v -4 -6 0
v -4 -5 0
v -3 -5 0
v -4 -6 0
v -5 -6 0
v -5 -5 0
v -4 -5 0
v -5 -6 0
v -6 -6 0
v -6 -5 0
v -5 -5 0
v -6 -6 0
v -7 -6 0
v -7 -5 0
v -6 -5 0
v -7 -6 0
v -8 -6 0
v -8 -5 0
v -7 -5 0
v -8 -6 0
v -9 -6 0
v -9 -5 0
v -8 -5 0
v -9 -6 0
v -10 -6 0
v -10 -5 0
v -9 -5 0
v -10 -6 0
v -11 -6 0
v -11 -5 0
v -10 -5 0
v -11 -6 0
v -12 -6 0
v -12 -5 0
v -11 -5 0
v -12 -6 0
v -13 -6 0
v -13 -5 0
v -12 -5 0
v -13 -6 0
v -14 -6 0
v -14 -5 0
v -13 -5 0
v -14 -6 0
v -15 -6 0
v -15 -5 0
v -14 -5 0
v -15 -6 0
v -16 -6 0
v -16 -5 0
v -15 -5 0
v 0 -7 0
v -1 -7 0
v -1 -6 0
v 0 -6 0
v -1 -7 0
v -2 -7 0
v -2 -6 0
v -1 -6 0
v -2 -7 0
v -3 -7 0
v -3 -6 0
v -2 -6 0
v -3 -7 0
v -4 -7 0
v -4 -6 0
v -3 -6 0
v -4 -7 0
v -5 -7 0
v -5 -6 0
v -4 -6 0
v -5 -7 0
v -6 -7 0
v -6 -6 0
v -5 -6 0
v -6 -7 0
v -7 -7 0
v -7 -6 0
v -6 -6 0
v -7 -7 0
v -8 -7 0
v -8 -6 0
v -7 -6 0
v -8 -7 0
v -9 -7 0
v -9 -6 0
v -8 -6 0
v -9 -7 0
v -10 -7 0
v -10 -6 0
v -9 -6 0
v -10 -7 0
v -11 -7 0
v -11 -6 0
v -10 -6 0
v -11 -7 0
v -12 -7 0
v -12 -6 0
v -11 -6 0
v -12 -7 0
v -13 -7 0
v -13 -6 0
v -12 -6 0
v -13 -7 0
v -14 -7 0
v -14 -6 0
v -13 -6 0
v -14 -7 0
v -15 -7 0
v -15 -6 0
v -14 -6 0
v -15 -7 0
v -16 -7 0
v -16 -6 0
v -15 -6 0
v 0 -8 0
v -1 -8 0
v -1 -7 0
v 0 -7 0
v -1 -8 0
v -2 -8 0
v -2 -7 0
v -1 -7 0
v -2 -8 0
v -3 -8 0
v -3 -7 0
v -2 -7 0
v -3 -8 0
v -4 -8 0
v -4 -7 0
v -3 -7 0
v -4 -8 0
v -5 -8 0
v -5 -7 0
v -4 -7 0
v -5 -8 0
v -6 -8 0
v -6 -7 0
v -5 -7 0
v -6 -8 0
v -7 -8 0
v -7 -7 0
v -6 -7 0
v -7 -8 0
v -8 -8 0
v -8 -7 0
v -7 -7 0
v -8 -8 0
v -9 -8 0
v -9 -7 0
v -8 -7 0
v -9 -8 0
v -10 -8 0
v -10 -7 0
v -9 -7 0
v -10 -8 0
v -11 -8 0
v -11 -7 0
v -10 -7 0
v -11 -8 0
v -12 -8 0
v -12 -7 0
v -11 -7 0
v -12 -8 0
v -13 -8 0
v -13 -7 0
v -12 -7 0
v -13 -8 0
v -14 -8 0
v -14 -7 0
v -13 -7 0
v -14 -8 0
v -15 -8 0
v -15 -7 0
v -14 -7 0
v -15 -8 0
v -16 -8 0
v -16 -7 0
v -15 -7 0
v 0 -9 0
v -1 -9 0
v -1 -8 0
v 0 -8 0
v -1 -9 0
v -2 -9 0
v -2 -8 0
v -1 -8 0
v -2 -9 0
v -3 -9 0
v -3 -8 0
v -2 -8 0
v -3 -9 0
v -4 -9 0
v -4 -8 0
v -3 -8 0
v -4 -9 0
v -5 -9 0
v -5 -8 0
v -4 -8 0
v -5 -9 0
v -6 -9 0
v -6 -8 0
v -5 -8 0
v -6 -9 0
v -7 -9 0
v -7 -8 0
v -6 -8 0
v -7 -9 0
v -8 -9 0
v -8 -8 0
v -7 -8 0
v -8 -9 0
v -9 -9 0
v -9 -8 0
v -8 -8 0
v -9 -9 0
v -10 -9 0
v -10 -8 0
v -9 -8 0
v -10 -9 0
v -11 -9 0
v -11 -8 0
v -10 -8 0
v -11 -9 0
v -12 -9 0
v -12 -8 0
v -11 -8 0
v -12 -9 0
v -13 -9 0
v -13 -8 0
v -12 -8 0
v -13 -9 0
v -14 -9 0
v -14 -8 0
v -13 -8 0
v -14 -9 0
v -15 -9 0
v -15 -8 0
v -14 -8 0
v -15 -9 0
v -16 -9 0
v -16 -8 0
v -15 -8 0

# Texture cooridinates (Count = 40)
vt 0.015625 0.5728155
vt 0.0625 0.5728155
vt 0.0625 0.631068
vt 0.015625 0.631068
vt 0.109375 0.5728155
vt 0.15625 0.5728155
vt 0.15625 0.631068
vt 0.109375 0.631068
vt 0.203125 0.5728155
vt 0.203125 0.631068
vt 0.34375 0.6893204
vt 0.390625 0.6893204
vt 0.390625 0.7475728
vt 0.34375 0.7475728
vt 0.203125 0.9223301
vt 0.25 0.9223301
vt 0.25 0.9805825
vt 0.203125 0.9805825
vt 0.296875 0.9223301
vt 0.296875 0.9805825
vt 0.0625 0.9223301
vt 0.109375 0.9223301
vt 0.109375 0.9805825
vt 0.0625 0.9805825
vt 0.25 0.631068
vt 0.296875 0.631068
vt 0.296875 0.6893204
vt 0.25 0.6893204
vt 0.34375 0.631068
vt 0.390625 0.631068
vt 0.4375 0.631068
vt 0.484375 0.631068
vt 0.484375 0.6893204
vt 0.4375 0.6893204
vt 0.15625 0.9223301
vt 0.15625 0.9805825
vt 0.15625 0.1650485
vt 0.203125 0.1650485
vt 0.203125 0.223301
vt 0.15625 0.223301

# Normal
vn 0 0 -1

# Mesh description
g Mapa_2_mesh_0061

# Faces
f 1/1/1 2/2/1 3/3/1 4/4/1
f 5/5/1 6/6/1 7/7/1 8/8/1
f 9/6/1 10/9/1 11/10/1 12/7/1
f 13/1/1 14/2/1 15/3/1 16/4/1
f 17/11/1 18/12/1 19/13/1 20/14/1
f 21/11/1 22/12/1 23/13/1 24/14/1
f 25/11/1 26/12/1 27/13/1 28/14/1
f 29/2/1 30/5/1 31/8/1 32/3/1
f 33/5/1 34/6/1 35/7/1 36/8/1
f 37/6/1 38/9/1 39/10/1 40/7/1
f 41/2/1 42/5/1 43/8/1 44/3/1
f 45/5/1 46/6/1 47/7/1 48/8/1
f 49/6/1 50/9/1 51/10/1 52/7/1
f 53/1/1 54/2/1 55/3/1 56/4/1
f 57/11/1 58/12/1 59/13/1 60/14/1
f 61/2/1 62/5/1 63/8/1 64/3/1
f 65/15/1 66/16/1 67/17/1 68/18/1
f 69/16/1 70/19/1 71/20/1 72/17/1
f 73/21/1 74/22/1 75/23/1 76/24/1
f 77/25/1 78/26/1 79/27/1 80/28/1
f 81/26/1 82/29/1 83/11/1 84/27/1
f 85/21/1 86/22/1 87/23/1 88/24/1
f 89/26/1 90/29/1 91/11/1 92/27/1
f 93/29/1 94/30/1 95/12/1 96/11/1
f 97/15/1 98/16/1 99/17/1 100/18/1
f 101/16/1 102/19/1 103/20/1 104/17/1
f 105/21/1 106/22/1 107/23/1 108/24/1
f 109/25/1 110/26/1 111/27/1 112/28/1
f 113/26/1 114/29/1 115/11/1 116/27/1
f 117/21/1 118/22/1 119/23/1 120/24/1
f 121/26/1 122/29/1 123/11/1 124/27/1
f 125/29/1 126/30/1 127/12/1 128/11/1
f 129/15/1 130/16/1 131/17/1 132/18/1
f 133/31/1 134/32/1 135/33/1 136/34/1
f 137/25/1 138/26/1 139/27/1 140/28/1
f 141/21/1 142/22/1 143/23/1 144/24/1
f 145/22/1 146/35/1 147/36/1 148/23/1
f 149/25/1 150/26/1 151/27/1 152/28/1
f 153/26/1 154/29/1 155/11/1 156/27/1
f 157/29/1 158/30/1 159/12/1 160/11/1
f 161/15/1 162/16/1 163/17/1 164/18/1
f 165/31/1 166/32/1 167/33/1 168/34/1
f 169/25/1 170/26/1 171/27/1 172/28/1
f 173/21/1 174/22/1 175/23/1 176/24/1
f 177/22/1 178/35/1 179/36/1 180/23/1
f 181/25/1 182/26/1 183/27/1 184/28/1
f 185/26/1 186/29/1 187/11/1 188/27/1
f 189/29/1 190/30/1 191/12/1 192/11/1
f 193/21/1 194/22/1 195/23/1 196/24/1
f 197/25/1 198/26/1 199/27/1 200/28/1
f 201/26/1 202/29/1 203/11/1 204/27/1
f 205/21/1 206/22/1 207/23/1 208/24/1
f 209/26/1 210/29/1 211/11/1 212/27/1
f 213/29/1 214/30/1 215/12/1 216/11/1
f 217/15/1 218/16/1 219/17/1 220/18/1
f 221/21/1 222/22/1 223/23/1 224/24/1
f 225/25/1 226/26/1 227/27/1 228/28/1
f 229/26/1 230/29/1 231/11/1 232/27/1
f 233/21/1 234/22/1 235/23/1 236/24/1
f 237/26/1 238/29/1 239/11/1 240/27/1
f 241/29/1 242/30/1 243/12/1 244/11/1
f 245/15/1 246/16/1 247/17/1 248/18/1
f 249/16/1 250/19/1 251/20/1 252/17/1
f 253/37/1 254/38/1 255/39/1 256/40/1
f 257/25/1 258/26/1 259/27/1 260/28/1
f 261/21/1 262/22/1 263/23/1 264/24/1
f 265/25/1 266/26/1 267/27/1 268/28/1
f 269/26/1 270/29/1 271/11/1 272/27/1
f 273/21/1 274/22/1 275/23/1 276/24/1
f 277/26/1 278/29/1 279/11/1 280/27/1
f 281/29/1 282/30/1 283/12/1 284/11/1
f 285/25/1 286/26/1 287/27/1 288/28/1
f 289/21/1 290/22/1 291/23/1 292/24/1
f 293/22/1 294/35/1 295/36/1 296/23/1
f 297/25/1 298/26/1 299/27/1 300/28/1
f 301/26/1 302/29/1 303/11/1 304/27/1
f 305/29/1 306/30/1 307/12/1 308/11/1
f 309/15/1 310/16/1 311/17/1 312/18/1
f 313/31/1 314/32/1 315/33/1 316/34/1
f 317/37/1 318/38/1 319/39/1 320/40/1
f 321/15/1 322/16/1 323/17/1 324/18/1
f 325/25/1 326/26/1 327/27/1 328/28/1
f 329/21/1 330/22/1 331/23/1 332/24/1
f 333/25/1 334/26/1 335/27/1 336/28/1
f 337/26/1 338/29/1 339/11/1 340/27/1
f 341/21/1 342/22/1 343/23/1 344/24/1
f 345/26/1 346/29/1 347/11/1 348/27/1
f 349/29/1 350/30/1 351/12/1 352/11/1
f 353/15/1 354/16/1 355/17/1 356/18/1
f 357/16/1 358/19/1 359/20/1 360/17/1
f 361/37/1 362/38/1 363/39/1 364/40/1
f 365/21/1 366/22/1 367/23/1 368/24/1
f 369/25/1 370/26/1 371/27/1 372/28/1
f 373/26/1 374/29/1 375/11/1 376/27/1
f 377/21/1 378/22/1 379/23/1 380/24/1
f 381/26/1 382/29/1 383/11/1 384/27/1

