# Tiled2Unity generated file. Do not modify by hand.
# Wavefront file for 'Mapa_2_mesh_0012.obj'

# Vertices (Count = 184)
v -1 -9 0
v -2 -9 0
v -2 -8 0
v -1 -8 0
v -2 -9 0
v -3 -9 0
v -3 -8 0
v -2 -8 0
v 0 -10 0
v -1 -10 0
v -1 -9 0
v 0 -9 0
v -1 -10 0
v -2 -10 0
v -2 -9 0
v -1 -9 0
v -2 -10 0
v -3 -10 0
v -3 -9 0
v -2 -9 0
v -3 -10 0
v -4 -10 0
v -4 -9 0
v -3 -9 0
v -4 -10 0
v -5 -10 0
v -5 -9 0
v -4 -9 0
v -5 -10 0
v -6 -10 0
v -6 -9 0
v -5 -9 0
v 0 -11 0
v -1 -11 0
v -1 -10 0
v 0 -10 0
v -1 -11 0
v -2 -11 0
v -2 -10 0
v -1 -10 0
v -2 -11 0
v -3 -11 0
v -3 -10 0
v -2 -10 0
v -3 -11 0
v -4 -11 0
v -4 -10 0
v -3 -10 0
v -4 -11 0
v -5 -11 0
v -5 -10 0
v -4 -10 0
v -5 -11 0
v -6 -11 0
v -6 -10 0
v -5 -10 0
v -6 -11 0
v -7 -11 0
v -7 -10 0
v -6 -10 0
v -7 -11 0
v -8 -11 0
v -8 -10 0
v -7 -10 0
v 0 -12 0
v -1 -12 0
v -1 -11 0
v 0 -11 0
v -1 -12 0
v -2 -12 0
v -2 -11 0
v -1 -11 0
v -2 -12 0
v -3 -12 0
v -3 -11 0
v -2 -11 0
v -3 -12 0
v -4 -12 0
v -4 -11 0
v -3 -11 0
v -4 -12 0
v -5 -12 0
v -5 -11 0
v -4 -11 0
v -5 -12 0
v -6 -12 0
v -6 -11 0
v -5 -11 0
v -6 -12 0
v -7 -12 0
v -7 -11 0
v -6 -11 0
v -7 -12 0
v -8 -12 0
v -8 -11 0
v -7 -11 0
v 0 -13 0
v -1 -13 0
v -1 -12 0
v 0 -12 0
v -1 -13 0
v -2 -13 0
v -2 -12 0
v -1 -12 0
v -2 -13 0
v -3 -13 0
v -3 -12 0
v -2 -12 0
v -3 -13 0
v -4 -13 0
v -4 -12 0
v -3 -12 0
v -4 -13 0
v -5 -13 0
v -5 -12 0
v -4 -12 0
v -5 -13 0
v -6 -13 0
v -6 -12 0
v -5 -12 0
v -6 -13 0
v -7 -13 0
v -7 -12 0
v -6 -12 0
v -7 -13 0
v -8 -13 0
v -8 -12 0
v -7 -12 0
v 0 -14 0
v -1 -14 0
v -1 -13 0
v 0 -13 0
v -1 -14 0
v -2 -14 0
v -2 -13 0
v -1 -13 0
v -2 -14 0
v -3 -14 0
v -3 -13 0
v -2 -13 0
v -3 -14 0
v -4 -14 0
v -4 -13 0
v -3 -13 0
v -4 -14 0
v -5 -14 0
v -5 -13 0
v -4 -13 0
v -5 -14 0
v -6 -14 0
v -6 -13 0
v -5 -13 0
v -6 -14 0
v -7 -14 0
v -7 -13 0
v -6 -13 0
v -7 -14 0
v -8 -14 0
v -8 -13 0
v -7 -13 0
v -8 -14 0
v -9 -14 0
v -9 -13 0
v -8 -13 0
v -9 -14 0
v -10 -14 0
v -10 -13 0
v -9 -13 0
v -2 -15 0
v -3 -15 0
v -3 -14 0
v -2 -14 0
v -7 -15 0
v -8 -15 0
v -8 -14 0
v -7 -14 0
v -1 -16 0
v -2 -16 0
v -2 -15 0
v -1 -15 0
v -2 -16 0
v -3 -16 0
v -3 -15 0
v -2 -15 0

# Texture cooridinates (Count = 21)
vt 0.296875 0.223301
vt 0.34375 0.223301
vt 0.34375 0.2815534
vt 0.296875 0.2815534
vt 0.484375 0.1650485
vt 0.53125 0.1650485
vt 0.53125 0.223301
vt 0.484375 0.223301
vt 0.390625 0.223301
vt 0.390625 0.2815534
vt 0.4375 0.223301
vt 0.4375 0.2815534
vt 0.203125 0.1650485
vt 0.25 0.1650485
vt 0.25 0.223301
vt 0.203125 0.223301
vt 0.109375 0.1067961
vt 0.15625 0.1067961
vt 0.15625 0.1650485
vt 0.109375 0.1650485
vt 0.15625 0.223301

# Normal
vn 0 0 -1

# Mesh description
g Mapa_2_mesh_0012

# Faces
f 1/1/1 2/2/1 3/3/1 4/4/1
f 5/1/1 6/2/1 7/3/1 8/4/1
f 9/5/1 10/6/1 11/7/1 12/8/1
f 13/1/1 14/2/1 15/3/1 16/4/1
f 17/1/1 18/2/1 19/3/1 20/4/1
f 21/2/1 22/9/1 23/10/1 24/3/1
f 25/9/1 26/11/1 27/12/1 28/10/1
f 29/13/1 30/14/1 31/15/1 32/16/1
f 33/13/1 34/14/1 35/15/1 36/16/1
f 37/17/1 38/18/1 39/19/1 40/20/1
f 41/1/1 42/2/1 43/3/1 44/4/1
f 45/17/1 46/18/1 47/19/1 48/20/1
f 49/17/1 50/18/1 51/19/1 52/20/1
f 53/17/1 54/18/1 55/19/1 56/20/1
f 57/17/1 58/18/1 59/19/1 60/20/1
f 61/17/1 62/18/1 63/19/1 64/20/1
f 65/5/1 66/6/1 67/7/1 68/8/1
f 69/19/1 70/13/1 71/16/1 72/21/1
f 73/1/1 74/2/1 75/3/1 76/4/1
f 77/2/1 78/9/1 79/10/1 80/3/1
f 81/9/1 82/11/1 83/12/1 84/10/1
f 85/19/1 86/13/1 87/16/1 88/21/1
f 89/19/1 90/13/1 91/16/1 92/21/1
f 93/19/1 94/13/1 95/16/1 96/21/1
f 97/19/1 98/13/1 99/16/1 100/21/1
f 101/1/1 102/2/1 103/3/1 104/4/1
f 105/1/1 106/2/1 107/3/1 108/4/1
f 109/19/1 110/13/1 111/16/1 112/21/1
f 113/19/1 114/13/1 115/16/1 116/21/1
f 117/19/1 118/13/1 119/16/1 120/21/1
f 121/1/1 122/2/1 123/3/1 124/4/1
f 125/1/1 126/2/1 127/3/1 128/4/1
f 129/17/1 130/18/1 131/19/1 132/20/1
f 133/17/1 134/18/1 135/19/1 136/20/1
f 137/17/1 138/18/1 139/19/1 140/20/1
f 141/17/1 142/18/1 143/19/1 144/20/1
f 145/17/1 146/18/1 147/19/1 148/20/1
f 149/17/1 150/18/1 151/19/1 152/20/1
f 153/17/1 154/18/1 155/19/1 156/20/1
f 157/17/1 158/18/1 159/19/1 160/20/1
f 161/17/1 162/18/1 163/19/1 164/20/1
f 165/17/1 166/18/1 167/19/1 168/20/1
f 169/1/1 170/2/1 171/3/1 172/4/1
f 173/1/1 174/2/1 175/3/1 176/4/1
f 177/1/1 178/2/1 179/3/1 180/4/1
f 181/1/1 182/2/1 183/3/1 184/4/1

