# Tiled2Unity generated file. Do not modify by hand.
# Wavefront file for 'Mapa_2_mesh_0062.obj'

# Vertices (Count = 384)
v 0 -4 0
v -1 -4 0
v -1 -3 0
v 0 -3 0
v -1 -4 0
v -2 -4 0
v -2 -3 0
v -1 -3 0
v -2 -4 0
v -3 -4 0
v -3 -3 0
v -2 -3 0
v -3 -4 0
v -4 -4 0
v -4 -3 0
v -3 -3 0
v -4 -4 0
v -5 -4 0
v -5 -3 0
v -4 -3 0
v -5 -4 0
v -6 -4 0
v -6 -3 0
v -5 -3 0
v -6 -4 0
v -7 -4 0
v -7 -3 0
v -6 -3 0
v -7 -4 0
v -8 -4 0
v -8 -3 0
v -7 -3 0
v -8 -4 0
v -9 -4 0
v -9 -3 0
v -8 -3 0
v -9 -4 0
v -10 -4 0
v -10 -3 0
v -9 -3 0
v -10 -4 0
v -11 -4 0
v -11 -3 0
v -10 -3 0
v -11 -4 0
v -12 -4 0
v -12 -3 0
v -11 -3 0
v -12 -4 0
v -13 -4 0
v -13 -3 0
v -12 -3 0
v -13 -4 0
v -14 -4 0
v -14 -3 0
v -13 -3 0
v -14 -4 0
v -15 -4 0
v -15 -3 0
v -14 -3 0
v -15 -4 0
v -16 -4 0
v -16 -3 0
v -15 -3 0
v 0 -5 0
v -1 -5 0
v -1 -4 0
v 0 -4 0
v -1 -5 0
v -2 -5 0
v -2 -4 0
v -1 -4 0
v -2 -5 0
v -3 -5 0
v -3 -4 0
v -2 -4 0
v -3 -5 0
v -4 -5 0
v -4 -4 0
v -3 -4 0
v -4 -5 0
v -5 -5 0
v -5 -4 0
v -4 -4 0
v -5 -5 0
v -6 -5 0
v -6 -4 0
v -5 -4 0
v -6 -5 0
v -7 -5 0
v -7 -4 0
v -6 -4 0
v -7 -5 0
v -8 -5 0
v -8 -4 0
v -7 -4 0
v -8 -5 0
v -9 -5 0
v -9 -4 0
v -8 -4 0
v -9 -5 0
v -10 -5 0
v -10 -4 0
v -9 -4 0
v -10 -5 0
v -11 -5 0
v -11 -4 0
v -10 -4 0
v -11 -5 0
v -12 -5 0
v -12 -4 0
v -11 -4 0
v -12 -5 0
v -13 -5 0
v -13 -4 0
v -12 -4 0
v -13 -5 0
v -14 -5 0
v -14 -4 0
v -13 -4 0
v -14 -5 0
v -15 -5 0
v -15 -4 0
v -14 -4 0
v -15 -5 0
v -16 -5 0
v -16 -4 0
v -15 -4 0
v 0 -6 0
v -1 -6 0
v -1 -5 0
v 0 -5 0
v -1 -6 0
v -2 -6 0
v -2 -5 0
v -1 -5 0
v -2 -6 0
v -3 -6 0
v -3 -5 0
v -2 -5 0
v -3 -6 0
v -4 -6 0
v -4 -5 0
v -3 -5 0
v -4 -6 0
v -5 -6 0
v -5 -5 0
v -4 -5 0
v -5 -6 0
v -6 -6 0
v -6 -5 0
v -5 -5 0
v -6 -6 0
v -7 -6 0
v -7 -5 0
v -6 -5 0
v -7 -6 0
v -8 -6 0
v -8 -5 0
v -7 -5 0
v -8 -6 0
v -9 -6 0
v -9 -5 0
v -8 -5 0
v -9 -6 0
v -10 -6 0
v -10 -5 0
v -9 -5 0
v -10 -6 0
v -11 -6 0
v -11 -5 0
v -10 -5 0
v -11 -6 0
v -12 -6 0
v -12 -5 0
v -11 -5 0
v -12 -6 0
v -13 -6 0
v -13 -5 0
v -12 -5 0
v -13 -6 0
v -14 -6 0
v -14 -5 0
v -13 -5 0
v -14 -6 0
v -15 -6 0
v -15 -5 0
v -14 -5 0
v -15 -6 0
v -16 -6 0
v -16 -5 0
v -15 -5 0
v 0 -7 0
v -1 -7 0
v -1 -6 0
v 0 -6 0
v -1 -7 0
v -2 -7 0
v -2 -6 0
v -1 -6 0
v -2 -7 0
v -3 -7 0
v -3 -6 0
v -2 -6 0
v -3 -7 0
v -4 -7 0
v -4 -6 0
v -3 -6 0
v -4 -7 0
v -5 -7 0
v -5 -6 0
v -4 -6 0
v -5 -7 0
v -6 -7 0
v -6 -6 0
v -5 -6 0
v -6 -7 0
v -7 -7 0
v -7 -6 0
v -6 -6 0
v -7 -7 0
v -8 -7 0
v -8 -6 0
v -7 -6 0
v -8 -7 0
v -9 -7 0
v -9 -6 0
v -8 -6 0
v -9 -7 0
v -10 -7 0
v -10 -6 0
v -9 -6 0
v -10 -7 0
v -11 -7 0
v -11 -6 0
v -10 -6 0
v -11 -7 0
v -12 -7 0
v -12 -6 0
v -11 -6 0
v -12 -7 0
v -13 -7 0
v -13 -6 0
v -12 -6 0
v -13 -7 0
v -14 -7 0
v -14 -6 0
v -13 -6 0
v -14 -7 0
v -15 -7 0
v -15 -6 0
v -14 -6 0
v -15 -7 0
v -16 -7 0
v -16 -6 0
v -15 -6 0
v 0 -8 0
v -1 -8 0
v -1 -7 0
v 0 -7 0
v -1 -8 0
v -2 -8 0
v -2 -7 0
v -1 -7 0
v -2 -8 0
v -3 -8 0
v -3 -7 0
v -2 -7 0
v -3 -8 0
v -4 -8 0
v -4 -7 0
v -3 -7 0
v -4 -8 0
v -5 -8 0
v -5 -7 0
v -4 -7 0
v -5 -8 0
v -6 -8 0
v -6 -7 0
v -5 -7 0
v -6 -8 0
v -7 -8 0
v -7 -7 0
v -6 -7 0
v -7 -8 0
v -8 -8 0
v -8 -7 0
v -7 -7 0
v -8 -8 0
v -9 -8 0
v -9 -7 0
v -8 -7 0
v -9 -8 0
v -10 -8 0
v -10 -7 0
v -9 -7 0
v -10 -8 0
v -11 -8 0
v -11 -7 0
v -10 -7 0
v -11 -8 0
v -12 -8 0
v -12 -7 0
v -11 -7 0
v -12 -8 0
v -13 -8 0
v -13 -7 0
v -12 -7 0
v -13 -8 0
v -14 -8 0
v -14 -7 0
v -13 -7 0
v -14 -8 0
v -15 -8 0
v -15 -7 0
v -14 -7 0
v -15 -8 0
v -16 -8 0
v -16 -7 0
v -15 -7 0
v 0 -9 0
v -1 -9 0
v -1 -8 0
v 0 -8 0
v -1 -9 0
v -2 -9 0
v -2 -8 0
v -1 -8 0
v -2 -9 0
v -3 -9 0
v -3 -8 0
v -2 -8 0
v -3 -9 0
v -4 -9 0
v -4 -8 0
v -3 -8 0
v -4 -9 0
v -5 -9 0
v -5 -8 0
v -4 -8 0
v -5 -9 0
v -6 -9 0
v -6 -8 0
v -5 -8 0
v -6 -9 0
v -7 -9 0
v -7 -8 0
v -6 -8 0
v -7 -9 0
v -8 -9 0
v -8 -8 0
v -7 -8 0
v -8 -9 0
v -9 -9 0
v -9 -8 0
v -8 -8 0
v -9 -9 0
v -10 -9 0
v -10 -8 0
v -9 -8 0
v -10 -9 0
v -11 -9 0
v -11 -8 0
v -10 -8 0
v -11 -9 0
v -12 -9 0
v -12 -8 0
v -11 -8 0
v -12 -9 0
v -13 -9 0
v -13 -8 0
v -12 -8 0
v -13 -9 0
v -14 -9 0
v -14 -8 0
v -13 -8 0
v -14 -9 0
v -15 -9 0
v -15 -8 0
v -14 -8 0
v -15 -9 0
v -16 -9 0
v -16 -8 0
v -15 -8 0

# Texture cooridinates (Count = 40)
vt 0.0625 0.5728155
vt 0.109375 0.5728155
vt 0.109375 0.631068
vt 0.0625 0.631068
vt 0.15625 0.5728155
vt 0.15625 0.631068
vt 0.203125 0.5728155
vt 0.203125 0.631068
vt 0.015625 0.5728155
vt 0.015625 0.631068
vt 0.34375 0.6893204
vt 0.390625 0.6893204
vt 0.390625 0.7475728
vt 0.34375 0.7475728
vt 0.203125 0.9223301
vt 0.25 0.9223301
vt 0.25 0.9805825
vt 0.203125 0.9805825
vt 0.296875 0.9223301
vt 0.296875 0.9805825
vt 0.0625 0.9223301
vt 0.109375 0.9223301
vt 0.109375 0.9805825
vt 0.0625 0.9805825
vt 0.25 0.631068
vt 0.296875 0.631068
vt 0.296875 0.6893204
vt 0.25 0.6893204
vt 0.34375 0.631068
vt 0.390625 0.631068
vt 0.15625 0.1650485
vt 0.203125 0.1650485
vt 0.203125 0.223301
vt 0.15625 0.223301
vt 0.4375 0.631068
vt 0.484375 0.631068
vt 0.484375 0.6893204
vt 0.4375 0.6893204
vt 0.15625 0.9223301
vt 0.15625 0.9805825

# Normal
vn 0 0 -1

# Mesh description
g Mapa_2_mesh_0062

# Faces
f 1/1/1 2/2/1 3/3/1 4/4/1
f 5/1/1 6/2/1 7/3/1 8/4/1
f 9/2/1 10/5/1 11/6/1 12/3/1
f 13/5/1 14/7/1 15/8/1 16/6/1
f 17/9/1 18/1/1 19/4/1 20/10/1
f 21/11/1 22/12/1 23/13/1 24/14/1
f 25/11/1 26/12/1 27/13/1 28/14/1
f 29/1/1 30/2/1 31/3/1 32/4/1
f 33/1/1 34/2/1 35/3/1 36/4/1
f 37/1/1 38/2/1 39/3/1 40/4/1
f 41/2/1 42/5/1 43/6/1 44/3/1
f 45/5/1 46/7/1 47/8/1 48/6/1
f 49/9/1 50/1/1 51/4/1 52/10/1
f 53/11/1 54/12/1 55/13/1 56/14/1
f 57/11/1 58/12/1 59/13/1 60/14/1
f 61/11/1 62/12/1 63/13/1 64/14/1
f 65/15/1 66/16/1 67/17/1 68/18/1
f 69/16/1 70/19/1 71/20/1 72/17/1
f 73/21/1 74/22/1 75/23/1 76/24/1
f 77/25/1 78/26/1 79/27/1 80/28/1
f 81/26/1 82/29/1 83/11/1 84/27/1
f 85/21/1 86/22/1 87/23/1 88/24/1
f 89/26/1 90/29/1 91/11/1 92/27/1
f 93/29/1 94/30/1 95/12/1 96/11/1
f 97/15/1 98/16/1 99/17/1 100/18/1
f 101/16/1 102/19/1 103/20/1 104/17/1
f 105/31/1 106/32/1 107/33/1 108/34/1
f 109/21/1 110/22/1 111/23/1 112/24/1
f 113/25/1 114/26/1 115/27/1 116/28/1
f 117/26/1 118/29/1 119/11/1 120/27/1
f 121/21/1 122/22/1 123/23/1 124/24/1
f 125/26/1 126/29/1 127/11/1 128/27/1
f 129/15/1 130/16/1 131/17/1 132/18/1
f 133/35/1 134/36/1 135/37/1 136/38/1
f 137/25/1 138/26/1 139/27/1 140/28/1
f 141/21/1 142/22/1 143/23/1 144/24/1
f 145/22/1 146/39/1 147/40/1 148/23/1
f 149/25/1 150/26/1 151/27/1 152/28/1
f 153/26/1 154/29/1 155/11/1 156/27/1
f 157/29/1 158/30/1 159/12/1 160/11/1
f 161/21/1 162/22/1 163/23/1 164/24/1
f 165/25/1 166/26/1 167/27/1 168/28/1
f 169/26/1 170/29/1 171/11/1 172/27/1
f 173/21/1 174/22/1 175/23/1 176/24/1
f 177/26/1 178/29/1 179/11/1 180/27/1
f 181/29/1 182/30/1 183/12/1 184/11/1
f 185/15/1 186/16/1 187/17/1 188/18/1
f 189/16/1 190/19/1 191/20/1 192/17/1
f 193/21/1 194/22/1 195/23/1 196/24/1
f 197/25/1 198/26/1 199/27/1 200/28/1
f 201/26/1 202/29/1 203/11/1 204/27/1
f 205/21/1 206/22/1 207/23/1 208/24/1
f 209/26/1 210/29/1 211/11/1 212/27/1
f 213/29/1 214/30/1 215/12/1 216/11/1
f 217/15/1 218/16/1 219/17/1 220/18/1
f 221/16/1 222/19/1 223/20/1 224/17/1
f 225/25/1 226/26/1 227/27/1 228/28/1
f 229/21/1 230/22/1 231/23/1 232/24/1
f 233/25/1 234/26/1 235/27/1 236/28/1
f 237/26/1 238/29/1 239/11/1 240/27/1
f 241/21/1 242/22/1 243/23/1 244/24/1
f 245/26/1 246/29/1 247/11/1 248/27/1
f 249/29/1 250/30/1 251/12/1 252/11/1
f 253/15/1 254/16/1 255/17/1 256/18/1
f 257/25/1 258/26/1 259/27/1 260/28/1
f 261/21/1 262/22/1 263/23/1 264/24/1
f 265/22/1 266/39/1 267/40/1 268/23/1
f 269/25/1 270/26/1 271/27/1 272/28/1
f 273/26/1 274/29/1 275/11/1 276/27/1
f 277/29/1 278/30/1 279/12/1 280/11/1
f 281/15/1 282/16/1 283/17/1 284/18/1
f 285/35/1 286/36/1 287/37/1 288/38/1
f 289/31/1 290/32/1 291/33/1 292/34/1
f 293/25/1 294/26/1 295/27/1 296/28/1
f 297/21/1 298/22/1 299/23/1 300/24/1
f 301/22/1 302/39/1 303/40/1 304/23/1
f 305/25/1 306/26/1 307/27/1 308/28/1
f 309/26/1 310/29/1 311/11/1 312/27/1
f 313/29/1 314/30/1 315/12/1 316/11/1
f 317/15/1 318/16/1 319/17/1 320/18/1
f 321/29/1 322/30/1 323/12/1 324/11/1
f 325/15/1 326/16/1 327/17/1 328/18/1
f 329/16/1 330/19/1 331/20/1 332/17/1
f 333/29/1 334/30/1 335/12/1 336/11/1
f 337/15/1 338/16/1 339/17/1 340/18/1
f 341/16/1 342/19/1 343/20/1 344/17/1
f 345/21/1 346/22/1 347/23/1 348/24/1
f 349/25/1 350/26/1 351/27/1 352/28/1
f 353/26/1 354/29/1 355/11/1 356/27/1
f 357/21/1 358/22/1 359/23/1 360/24/1
f 361/26/1 362/29/1 363/11/1 364/27/1
f 365/29/1 366/30/1 367/12/1 368/11/1
f 369/15/1 370/16/1 371/17/1 372/18/1
f 373/21/1 374/22/1 375/23/1 376/24/1
f 377/25/1 378/26/1 379/27/1 380/28/1
f 381/26/1 382/29/1 383/11/1 384/27/1

