# Tiled2Unity generated file. Do not modify by hand.
# Wavefront file for 'Mapa_2_mesh_0063.obj'

# Vertices (Count = 448)
v 0 -4 0
v -1 -4 0
v -1 -3 0
v 0 -3 0
v -1 -4 0
v -2 -4 0
v -2 -3 0
v -1 -3 0
v -2 -4 0
v -3 -4 0
v -3 -3 0
v -2 -3 0
v -3 -4 0
v -4 -4 0
v -4 -3 0
v -3 -3 0
v -4 -4 0
v -5 -4 0
v -5 -3 0
v -4 -3 0
v -5 -4 0
v -6 -4 0
v -6 -3 0
v -5 -3 0
v -6 -4 0
v -7 -4 0
v -7 -3 0
v -6 -3 0
v -7 -4 0
v -8 -4 0
v -8 -3 0
v -7 -3 0
v -8 -4 0
v -9 -4 0
v -9 -3 0
v -8 -3 0
v -9 -4 0
v -10 -4 0
v -10 -3 0
v -9 -3 0
v -10 -4 0
v -11 -4 0
v -11 -3 0
v -10 -3 0
v -11 -4 0
v -12 -4 0
v -12 -3 0
v -11 -3 0
v -12 -4 0
v -13 -4 0
v -13 -3 0
v -12 -3 0
v -13 -4 0
v -14 -4 0
v -14 -3 0
v -13 -3 0
v -14 -4 0
v -15 -4 0
v -15 -3 0
v -14 -3 0
v -15 -4 0
v -16 -4 0
v -16 -3 0
v -15 -3 0
v 0 -5 0
v -1 -5 0
v -1 -4 0
v 0 -4 0
v -1 -5 0
v -2 -5 0
v -2 -4 0
v -1 -4 0
v -2 -5 0
v -3 -5 0
v -3 -4 0
v -2 -4 0
v -3 -5 0
v -4 -5 0
v -4 -4 0
v -3 -4 0
v -4 -5 0
v -5 -5 0
v -5 -4 0
v -4 -4 0
v -5 -5 0
v -6 -5 0
v -6 -4 0
v -5 -4 0
v -6 -5 0
v -7 -5 0
v -7 -4 0
v -6 -4 0
v -7 -5 0
v -8 -5 0
v -8 -4 0
v -7 -4 0
v -8 -5 0
v -9 -5 0
v -9 -4 0
v -8 -4 0
v -9 -5 0
v -10 -5 0
v -10 -4 0
v -9 -4 0
v -10 -5 0
v -11 -5 0
v -11 -4 0
v -10 -4 0
v -11 -5 0
v -12 -5 0
v -12 -4 0
v -11 -4 0
v -12 -5 0
v -13 -5 0
v -13 -4 0
v -12 -4 0
v -13 -5 0
v -14 -5 0
v -14 -4 0
v -13 -4 0
v -14 -5 0
v -15 -5 0
v -15 -4 0
v -14 -4 0
v -15 -5 0
v -16 -5 0
v -16 -4 0
v -15 -4 0
v 0 -6 0
v -1 -6 0
v -1 -5 0
v 0 -5 0
v -1 -6 0
v -2 -6 0
v -2 -5 0
v -1 -5 0
v -2 -6 0
v -3 -6 0
v -3 -5 0
v -2 -5 0
v -3 -6 0
v -4 -6 0
v -4 -5 0
v -3 -5 0
v -4 -6 0
v -5 -6 0
v -5 -5 0
v -4 -5 0
v -5 -6 0
v -6 -6 0
v -6 -5 0
v -5 -5 0
v -6 -6 0
v -7 -6 0
v -7 -5 0
v -6 -5 0
v -7 -6 0
v -8 -6 0
v -8 -5 0
v -7 -5 0
v -8 -6 0
v -9 -6 0
v -9 -5 0
v -8 -5 0
v -9 -6 0
v -10 -6 0
v -10 -5 0
v -9 -5 0
v -10 -6 0
v -11 -6 0
v -11 -5 0
v -10 -5 0
v -11 -6 0
v -12 -6 0
v -12 -5 0
v -11 -5 0
v -12 -6 0
v -13 -6 0
v -13 -5 0
v -12 -5 0
v -13 -6 0
v -14 -6 0
v -14 -5 0
v -13 -5 0
v -14 -6 0
v -15 -6 0
v -15 -5 0
v -14 -5 0
v -15 -6 0
v -16 -6 0
v -16 -5 0
v -15 -5 0
v 0 -7 0
v -1 -7 0
v -1 -6 0
v 0 -6 0
v -1 -7 0
v -2 -7 0
v -2 -6 0
v -1 -6 0
v -2 -7 0
v -3 -7 0
v -3 -6 0
v -2 -6 0
v -3 -7 0
v -4 -7 0
v -4 -6 0
v -3 -6 0
v -4 -7 0
v -5 -7 0
v -5 -6 0
v -4 -6 0
v -5 -7 0
v -6 -7 0
v -6 -6 0
v -5 -6 0
v -6 -7 0
v -7 -7 0
v -7 -6 0
v -6 -6 0
v -7 -7 0
v -8 -7 0
v -8 -6 0
v -7 -6 0
v -8 -7 0
v -9 -7 0
v -9 -6 0
v -8 -6 0
v -9 -7 0
v -10 -7 0
v -10 -6 0
v -9 -6 0
v -10 -7 0
v -11 -7 0
v -11 -6 0
v -10 -6 0
v -11 -7 0
v -12 -7 0
v -12 -6 0
v -11 -6 0
v -12 -7 0
v -13 -7 0
v -13 -6 0
v -12 -6 0
v -13 -7 0
v -14 -7 0
v -14 -6 0
v -13 -6 0
v -14 -7 0
v -15 -7 0
v -15 -6 0
v -14 -6 0
v -15 -7 0
v -16 -7 0
v -16 -6 0
v -15 -6 0
v 0 -8 0
v -1 -8 0
v -1 -7 0
v 0 -7 0
v -1 -8 0
v -2 -8 0
v -2 -7 0
v -1 -7 0
v -2 -8 0
v -3 -8 0
v -3 -7 0
v -2 -7 0
v -3 -8 0
v -4 -8 0
v -4 -7 0
v -3 -7 0
v -4 -8 0
v -5 -8 0
v -5 -7 0
v -4 -7 0
v -5 -8 0
v -6 -8 0
v -6 -7 0
v -5 -7 0
v -6 -8 0
v -7 -8 0
v -7 -7 0
v -6 -7 0
v -7 -8 0
v -8 -8 0
v -8 -7 0
v -7 -7 0
v -8 -8 0
v -9 -8 0
v -9 -7 0
v -8 -7 0
v -9 -8 0
v -10 -8 0
v -10 -7 0
v -9 -7 0
v -10 -8 0
v -11 -8 0
v -11 -7 0
v -10 -7 0
v -11 -8 0
v -12 -8 0
v -12 -7 0
v -11 -7 0
v -12 -8 0
v -13 -8 0
v -13 -7 0
v -12 -7 0
v -13 -8 0
v -14 -8 0
v -14 -7 0
v -13 -7 0
v -14 -8 0
v -15 -8 0
v -15 -7 0
v -14 -7 0
v -15 -8 0
v -16 -8 0
v -16 -7 0
v -15 -7 0
v 0 -9 0
v -1 -9 0
v -1 -8 0
v 0 -8 0
v -1 -9 0
v -2 -9 0
v -2 -8 0
v -1 -8 0
v -2 -9 0
v -3 -9 0
v -3 -8 0
v -2 -8 0
v -3 -9 0
v -4 -9 0
v -4 -8 0
v -3 -8 0
v -4 -9 0
v -5 -9 0
v -5 -8 0
v -4 -8 0
v -5 -9 0
v -6 -9 0
v -6 -8 0
v -5 -8 0
v -6 -9 0
v -7 -9 0
v -7 -8 0
v -6 -8 0
v -7 -9 0
v -8 -9 0
v -8 -8 0
v -7 -8 0
v -8 -9 0
v -9 -9 0
v -9 -8 0
v -8 -8 0
v -9 -9 0
v -10 -9 0
v -10 -8 0
v -9 -8 0
v -10 -9 0
v -11 -9 0
v -11 -8 0
v -10 -8 0
v -11 -9 0
v -12 -9 0
v -12 -8 0
v -11 -8 0
v -12 -9 0
v -13 -9 0
v -13 -8 0
v -12 -8 0
v -13 -9 0
v -14 -9 0
v -14 -8 0
v -13 -8 0
v -14 -9 0
v -15 -9 0
v -15 -8 0
v -14 -8 0
v -15 -9 0
v -16 -9 0
v -16 -8 0
v -15 -8 0
v -12 -10 0
v -13 -10 0
v -13 -9 0
v -12 -9 0
v -13 -10 0
v -14 -10 0
v -14 -9 0
v -13 -9 0
v -14 -10 0
v -15 -10 0
v -15 -9 0
v -14 -9 0
v -15 -10 0
v -16 -10 0
v -16 -9 0
v -15 -9 0
v -12 -11 0
v -13 -11 0
v -13 -10 0
v -12 -10 0
v -13 -11 0
v -14 -11 0
v -14 -10 0
v -13 -10 0
v -14 -11 0
v -15 -11 0
v -15 -10 0
v -14 -10 0
v -15 -11 0
v -16 -11 0
v -16 -10 0
v -15 -10 0
v -12 -12 0
v -13 -12 0
v -13 -11 0
v -12 -11 0
v -13 -12 0
v -14 -12 0
v -14 -11 0
v -13 -11 0
v -14 -12 0
v -15 -12 0
v -15 -11 0
v -14 -11 0
v -15 -12 0
v -16 -12 0
v -16 -11 0
v -15 -11 0
v -12 -13 0
v -13 -13 0
v -13 -12 0
v -12 -12 0
v -13 -13 0
v -14 -13 0
v -14 -12 0
v -13 -12 0
v -14 -13 0
v -15 -13 0
v -15 -12 0
v -14 -12 0
v -15 -13 0
v -16 -13 0
v -16 -12 0
v -15 -12 0

# Texture cooridinates (Count = 36)
vt 0.0625 0.5728155
vt 0.109375 0.5728155
vt 0.109375 0.631068
vt 0.0625 0.631068
vt 0.15625 0.5728155
vt 0.15625 0.631068
vt 0.203125 0.5728155
vt 0.203125 0.631068
vt 0.015625 0.5728155
vt 0.015625 0.631068
vt 0.34375 0.6893204
vt 0.390625 0.6893204
vt 0.390625 0.7475728
vt 0.34375 0.7475728
vt 0.34375 0.631068
vt 0.390625 0.631068
vt 0.203125 0.9223301
vt 0.25 0.9223301
vt 0.25 0.9805825
vt 0.203125 0.9805825
vt 0.0625 0.9223301
vt 0.109375 0.9223301
vt 0.109375 0.9805825
vt 0.0625 0.9805825
vt 0.25 0.631068
vt 0.296875 0.631068
vt 0.296875 0.6893204
vt 0.25 0.6893204
vt 0.296875 0.9223301
vt 0.296875 0.9805825
vt 0.15625 0.9223301
vt 0.15625 0.9805825
vt 0.4375 0.631068
vt 0.484375 0.631068
vt 0.484375 0.6893204
vt 0.4375 0.6893204

# Normal
vn 0 0 -1

# Mesh description
g Mapa_2_mesh_0063

# Faces
f 1/1/1 2/2/1 3/3/1 4/4/1
f 5/1/1 6/2/1 7/3/1 8/4/1
f 9/1/1 10/2/1 11/3/1 12/4/1
f 13/1/1 14/2/1 15/3/1 16/4/1
f 17/2/1 18/5/1 19/6/1 20/3/1
f 21/5/1 22/7/1 23/8/1 24/6/1
f 25/9/1 26/1/1 27/4/1 28/10/1
f 29/11/1 30/12/1 31/13/1 32/14/1
f 33/11/1 34/12/1 35/13/1 36/14/1
f 37/11/1 38/12/1 39/13/1 40/14/1
f 41/1/1 42/2/1 43/3/1 44/4/1
f 45/2/1 46/5/1 47/6/1 48/3/1
f 49/5/1 50/7/1 51/8/1 52/6/1
f 53/9/1 54/1/1 55/4/1 56/10/1
f 57/11/1 58/12/1 59/13/1 60/14/1
f 61/11/1 62/12/1 63/13/1 64/14/1
f 65/15/1 66/16/1 67/12/1 68/11/1
f 69/17/1 70/18/1 71/19/1 72/20/1
f 73/21/1 74/22/1 75/23/1 76/24/1
f 77/25/1 78/26/1 79/27/1 80/28/1
f 81/26/1 82/15/1 83/11/1 84/27/1
f 85/21/1 86/22/1 87/23/1 88/24/1
f 89/26/1 90/15/1 91/11/1 92/27/1
f 93/15/1 94/16/1 95/12/1 96/11/1
f 97/17/1 98/18/1 99/19/1 100/20/1
f 101/18/1 102/29/1 103/30/1 104/19/1
f 105/21/1 106/22/1 107/23/1 108/24/1
f 109/25/1 110/26/1 111/27/1 112/28/1
f 113/26/1 114/15/1 115/11/1 116/27/1
f 117/21/1 118/22/1 119/23/1 120/24/1
f 121/26/1 122/15/1 123/11/1 124/27/1
f 125/15/1 126/16/1 127/12/1 128/11/1
f 129/18/1 130/29/1 131/30/1 132/19/1
f 133/17/1 134/18/1 135/19/1 136/20/1
f 137/25/1 138/26/1 139/27/1 140/28/1
f 141/21/1 142/22/1 143/23/1 144/24/1
f 145/22/1 146/31/1 147/32/1 148/23/1
f 149/25/1 150/26/1 151/27/1 152/28/1
f 153/26/1 154/15/1 155/11/1 156/27/1
f 157/15/1 158/16/1 159/12/1 160/11/1
f 161/17/1 162/18/1 163/19/1 164/20/1
f 165/33/1 166/34/1 167/35/1 168/36/1
f 169/21/1 170/22/1 171/23/1 172/24/1
f 173/25/1 174/26/1 175/27/1 176/28/1
f 177/26/1 178/15/1 179/11/1 180/27/1
f 181/21/1 182/22/1 183/23/1 184/24/1
f 185/26/1 186/15/1 187/11/1 188/27/1
f 189/15/1 190/16/1 191/12/1 192/11/1
f 193/21/1 194/22/1 195/23/1 196/24/1
f 197/21/1 198/22/1 199/23/1 200/24/1
f 201/25/1 202/26/1 203/27/1 204/28/1
f 205/26/1 206/15/1 207/11/1 208/27/1
f 209/21/1 210/22/1 211/23/1 212/24/1
f 213/26/1 214/15/1 215/11/1 216/27/1
f 217/15/1 218/16/1 219/12/1 220/11/1
f 221/17/1 222/18/1 223/19/1 224/20/1
f 225/18/1 226/29/1 227/30/1 228/19/1
f 229/18/1 230/29/1 231/30/1 232/19/1
f 233/21/1 234/22/1 235/23/1 236/24/1
f 237/25/1 238/26/1 239/27/1 240/28/1
f 241/26/1 242/15/1 243/11/1 244/27/1
f 245/21/1 246/22/1 247/23/1 248/24/1
f 249/26/1 250/15/1 251/11/1 252/27/1
f 253/15/1 254/16/1 255/12/1 256/11/1
f 257/25/1 258/26/1 259/27/1 260/28/1
f 261/25/1 262/26/1 263/27/1 264/28/1
f 265/21/1 266/22/1 267/23/1 268/24/1
f 269/22/1 270/31/1 271/32/1 272/23/1
f 273/25/1 274/26/1 275/27/1 276/28/1
f 277/26/1 278/15/1 279/11/1 280/27/1
f 281/15/1 282/16/1 283/12/1 284/11/1
f 285/17/1 286/18/1 287/19/1 288/20/1
f 289/33/1 290/34/1 291/35/1 292/36/1
f 293/33/1 294/34/1 295/35/1 296/36/1
f 297/25/1 298/26/1 299/27/1 300/28/1
f 301/21/1 302/22/1 303/23/1 304/24/1
f 305/22/1 306/31/1 307/32/1 308/23/1
f 309/25/1 310/26/1 311/27/1 312/28/1
f 313/26/1 314/15/1 315/11/1 316/27/1
f 317/15/1 318/16/1 319/12/1 320/11/1
f 321/21/1 322/22/1 323/23/1 324/24/1
f 325/26/1 326/15/1 327/11/1 328/27/1
f 329/15/1 330/16/1 331/12/1 332/11/1
f 333/17/1 334/18/1 335/19/1 336/20/1
f 337/21/1 338/22/1 339/23/1 340/24/1
f 341/25/1 342/26/1 343/27/1 344/28/1
f 345/26/1 346/15/1 347/11/1 348/27/1
f 349/21/1 350/22/1 351/23/1 352/24/1
f 353/26/1 354/15/1 355/11/1 356/27/1
f 357/15/1 358/16/1 359/12/1 360/11/1
f 361/21/1 362/22/1 363/23/1 364/24/1
f 365/25/1 366/26/1 367/27/1 368/28/1
f 369/26/1 370/15/1 371/11/1 372/27/1
f 373/21/1 374/22/1 375/23/1 376/24/1
f 377/26/1 378/15/1 379/11/1 380/27/1
f 381/15/1 382/16/1 383/12/1 384/11/1
f 385/26/1 386/15/1 387/11/1 388/27/1
f 389/21/1 390/22/1 391/23/1 392/24/1
f 393/26/1 394/15/1 395/11/1 396/27/1
f 397/15/1 398/16/1 399/12/1 400/11/1
f 401/22/1 402/31/1 403/32/1 404/23/1
f 405/25/1 406/26/1 407/27/1 408/28/1
f 409/26/1 410/15/1 411/11/1 412/27/1
f 413/15/1 414/16/1 415/12/1 416/11/1
f 417/25/1 418/26/1 419/27/1 420/28/1
f 421/26/1 422/15/1 423/11/1 424/27/1
f 425/21/1 426/22/1 427/23/1 428/24/1
f 429/26/1 430/15/1 431/11/1 432/27/1
f 433/21/1 434/22/1 435/23/1 436/24/1
f 437/22/1 438/31/1 439/32/1 440/23/1
f 441/25/1 442/26/1 443/27/1 444/28/1
f 445/26/1 446/15/1 447/11/1 448/27/1

