# Tiled2Unity generated file. Do not modify by hand.
# Wavefront file for 'Mapa_2_mesh_0019.obj'

# Vertices (Count = 312)
v -7 -4 0
v -8 -4 0
v -8 -3 0
v -7 -3 0
v -8 -4 0
v -9 -4 0
v -9 -3 0
v -8 -3 0
v -9 -4 0
v -10 -4 0
v -10 -3 0
v -9 -3 0
v -10 -4 0
v -11 -4 0
v -11 -3 0
v -10 -3 0
v -11 -4 0
v -12 -4 0
v -12 -3 0
v -11 -3 0
v -12 -4 0
v -13 -4 0
v -13 -3 0
v -12 -3 0
v -13 -4 0
v -14 -4 0
v -14 -3 0
v -13 -3 0
v -14 -4 0
v -15 -4 0
v -15 -3 0
v -14 -3 0
v -15 -4 0
v -16 -4 0
v -16 -3 0
v -15 -3 0
v -7 -5 0
v -8 -5 0
v -8 -4 0
v -7 -4 0
v -8 -5 0
v -9 -5 0
v -9 -4 0
v -8 -4 0
v -9 -5 0
v -10 -5 0
v -10 -4 0
v -9 -4 0
v -10 -5 0
v -11 -5 0
v -11 -4 0
v -10 -4 0
v -11 -5 0
v -12 -5 0
v -12 -4 0
v -11 -4 0
v -12 -5 0
v -13 -5 0
v -13 -4 0
v -12 -4 0
v -13 -5 0
v -14 -5 0
v -14 -4 0
v -13 -4 0
v -14 -5 0
v -15 -5 0
v -15 -4 0
v -14 -4 0
v -15 -5 0
v -16 -5 0
v -16 -4 0
v -15 -4 0
v 0 -6 0
v -1 -6 0
v -1 -5 0
v 0 -5 0
v -1 -6 0
v -2 -6 0
v -2 -5 0
v -1 -5 0
v -2 -6 0
v -3 -6 0
v -3 -5 0
v -2 -5 0
v -3 -6 0
v -4 -6 0
v -4 -5 0
v -3 -5 0
v -4 -6 0
v -5 -6 0
v -5 -5 0
v -4 -5 0
v -5 -6 0
v -6 -6 0
v -6 -5 0
v -5 -5 0
v -6 -6 0
v -7 -6 0
v -7 -5 0
v -6 -5 0
v -7 -6 0
v -8 -6 0
v -8 -5 0
v -7 -5 0
v -8 -6 0
v -9 -6 0
v -9 -5 0
v -8 -5 0
v -9 -6 0
v -10 -6 0
v -10 -5 0
v -9 -5 0
v -10 -6 0
v -11 -6 0
v -11 -5 0
v -10 -5 0
v -11 -6 0
v -12 -6 0
v -12 -5 0
v -11 -5 0
v -12 -6 0
v -13 -6 0
v -13 -5 0
v -12 -5 0
v -13 -6 0
v -14 -6 0
v -14 -5 0
v -13 -5 0
v -14 -6 0
v -15 -6 0
v -15 -5 0
v -14 -5 0
v -15 -6 0
v -16 -6 0
v -16 -5 0
v -15 -5 0
v 0 -7 0
v -1 -7 0
v -1 -6 0
v 0 -6 0
v -1 -7 0
v -2 -7 0
v -2 -6 0
v -1 -6 0
v -2 -7 0
v -3 -7 0
v -3 -6 0
v -2 -6 0
v -3 -7 0
v -4 -7 0
v -4 -6 0
v -3 -6 0
v -4 -7 0
v -5 -7 0
v -5 -6 0
v -4 -6 0
v -5 -7 0
v -6 -7 0
v -6 -6 0
v -5 -6 0
v -6 -7 0
v -7 -7 0
v -7 -6 0
v -6 -6 0
v -7 -7 0
v -8 -7 0
v -8 -6 0
v -7 -6 0
v -8 -7 0
v -9 -7 0
v -9 -6 0
v -8 -6 0
v -9 -7 0
v -10 -7 0
v -10 -6 0
v -9 -6 0
v -10 -7 0
v -11 -7 0
v -11 -6 0
v -10 -6 0
v -11 -7 0
v -12 -7 0
v -12 -6 0
v -11 -6 0
v -12 -7 0
v -13 -7 0
v -13 -6 0
v -12 -6 0
v -13 -7 0
v -14 -7 0
v -14 -6 0
v -13 -6 0
v -14 -7 0
v -15 -7 0
v -15 -6 0
v -14 -6 0
v -15 -7 0
v -16 -7 0
v -16 -6 0
v -15 -6 0
v 0 -8 0
v -1 -8 0
v -1 -7 0
v 0 -7 0
v -1 -8 0
v -2 -8 0
v -2 -7 0
v -1 -7 0
v -2 -8 0
v -3 -8 0
v -3 -7 0
v -2 -7 0
v -3 -8 0
v -4 -8 0
v -4 -7 0
v -3 -7 0
v -4 -8 0
v -5 -8 0
v -5 -7 0
v -4 -7 0
v -5 -8 0
v -6 -8 0
v -6 -7 0
v -5 -7 0
v -6 -8 0
v -7 -8 0
v -7 -7 0
v -6 -7 0
v -7 -8 0
v -8 -8 0
v -8 -7 0
v -7 -7 0
v -8 -8 0
v -9 -8 0
v -9 -7 0
v -8 -7 0
v -9 -8 0
v -10 -8 0
v -10 -7 0
v -9 -7 0
v -10 -8 0
v -11 -8 0
v -11 -7 0
v -10 -7 0
v -11 -8 0
v -12 -8 0
v -12 -7 0
v -11 -7 0
v -12 -8 0
v -13 -8 0
v -13 -7 0
v -12 -7 0
v -13 -8 0
v -14 -8 0
v -14 -7 0
v -13 -7 0
v -14 -8 0
v -15 -8 0
v -15 -7 0
v -14 -7 0
v -15 -8 0
v -16 -8 0
v -16 -7 0
v -15 -7 0
v 0 -9 0
v -1 -9 0
v -1 -8 0
v 0 -8 0
v -1 -9 0
v -2 -9 0
v -2 -8 0
v -1 -8 0
v -2 -9 0
v -3 -9 0
v -3 -8 0
v -2 -8 0
v -3 -9 0
v -4 -9 0
v -4 -8 0
v -3 -8 0
v -4 -9 0
v -5 -9 0
v -5 -8 0
v -4 -8 0
v -5 -9 0
v -6 -9 0
v -6 -8 0
v -5 -8 0
v -6 -9 0
v -7 -9 0
v -7 -8 0
v -6 -8 0
v -7 -9 0
v -8 -9 0
v -8 -8 0
v -7 -8 0
v -8 -9 0
v -9 -9 0
v -9 -8 0
v -8 -8 0
v -9 -9 0
v -10 -9 0
v -10 -8 0
v -9 -8 0
v -10 -9 0
v -11 -9 0
v -11 -8 0
v -10 -8 0
v -11 -9 0
v -12 -9 0
v -12 -8 0
v -11 -8 0

# Texture cooridinates (Count = 19)
vt 0.578125 0.8058252
vt 0.625 0.8058252
vt 0.625 0.8640777
vt 0.578125 0.8640777
vt 0.34375 0.6893204
vt 0.390625 0.6893204
vt 0.390625 0.7475728
vt 0.34375 0.7475728
vt 0.578125 0.7475728
vt 0.625 0.7475728
vt 0.15625 0.1650485
vt 0.203125 0.1650485
vt 0.203125 0.223301
vt 0.15625 0.223301
vt 0.53125 0.631068
vt 0.578125 0.631068
vt 0.578125 0.6893204
vt 0.53125 0.6893204
vt 0.625 0.6893204

# Normal
vn 0 0 -1

# Mesh description
g Mapa_2_mesh_0019

# Faces
f 1/1/1 2/2/1 3/3/1 4/4/1
f 5/5/1 6/6/1 7/7/1 8/8/1
f 9/5/1 10/6/1 11/7/1 12/8/1
f 13/5/1 14/6/1 15/7/1 16/8/1
f 17/5/1 18/6/1 19/7/1 20/8/1
f 21/5/1 22/6/1 23/7/1 24/8/1
f 25/5/1 26/6/1 27/7/1 28/8/1
f 29/5/1 30/6/1 31/7/1 32/8/1
f 33/5/1 34/6/1 35/7/1 36/8/1
f 37/9/1 38/10/1 39/2/1 40/1/1
f 41/11/1 42/12/1 43/13/1 44/14/1
f 45/11/1 46/12/1 47/13/1 48/14/1
f 49/11/1 50/12/1 51/13/1 52/14/1
f 53/11/1 54/12/1 55/13/1 56/14/1
f 57/11/1 58/12/1 59/13/1 60/14/1
f 61/11/1 62/12/1 63/13/1 64/14/1
f 65/11/1 66/12/1 67/13/1 68/14/1
f 69/11/1 70/12/1 71/13/1 72/14/1
f 73/15/1 74/16/1 75/17/1 76/18/1
f 77/15/1 78/16/1 79/17/1 80/18/1
f 81/15/1 82/16/1 83/17/1 84/18/1
f 85/15/1 86/16/1 87/17/1 88/18/1
f 89/15/1 90/16/1 91/17/1 92/18/1
f 93/15/1 94/16/1 95/17/1 96/18/1
f 97/15/1 98/16/1 99/17/1 100/18/1
f 101/17/1 102/19/1 103/10/1 104/9/1
f 105/11/1 106/12/1 107/13/1 108/14/1
f 109/11/1 110/12/1 111/13/1 112/14/1
f 113/11/1 114/12/1 115/13/1 116/14/1
f 117/11/1 118/12/1 119/13/1 120/14/1
f 121/11/1 122/12/1 123/13/1 124/14/1
f 125/11/1 126/12/1 127/13/1 128/14/1
f 129/11/1 130/12/1 131/13/1 132/14/1
f 133/11/1 134/12/1 135/13/1 136/14/1
f 137/11/1 138/12/1 139/13/1 140/14/1
f 141/11/1 142/12/1 143/13/1 144/14/1
f 145/11/1 146/12/1 147/13/1 148/14/1
f 149/11/1 150/12/1 151/13/1 152/14/1
f 153/11/1 154/12/1 155/13/1 156/14/1
f 157/11/1 158/12/1 159/13/1 160/14/1
f 161/11/1 162/12/1 163/13/1 164/14/1
f 165/11/1 166/12/1 167/13/1 168/14/1
f 169/11/1 170/12/1 171/13/1 172/14/1
f 173/11/1 174/12/1 175/13/1 176/14/1
f 177/11/1 178/12/1 179/13/1 180/14/1
f 181/11/1 182/12/1 183/13/1 184/14/1
f 185/11/1 186/12/1 187/13/1 188/14/1
f 189/11/1 190/12/1 191/13/1 192/14/1
f 193/11/1 194/12/1 195/13/1 196/14/1
f 197/11/1 198/12/1 199/13/1 200/14/1
f 201/11/1 202/12/1 203/13/1 204/14/1
f 205/11/1 206/12/1 207/13/1 208/14/1
f 209/11/1 210/12/1 211/13/1 212/14/1
f 213/11/1 214/12/1 215/13/1 216/14/1
f 217/11/1 218/12/1 219/13/1 220/14/1
f 221/11/1 222/12/1 223/13/1 224/14/1
f 225/11/1 226/12/1 227/13/1 228/14/1
f 229/11/1 230/12/1 231/13/1 232/14/1
f 233/11/1 234/12/1 235/13/1 236/14/1
f 237/11/1 238/12/1 239/13/1 240/14/1
f 241/11/1 242/12/1 243/13/1 244/14/1
f 245/11/1 246/12/1 247/13/1 248/14/1
f 249/11/1 250/12/1 251/13/1 252/14/1
f 253/11/1 254/12/1 255/13/1 256/14/1
f 257/11/1 258/12/1 259/13/1 260/14/1
f 261/11/1 262/12/1 263/13/1 264/14/1
f 265/11/1 266/12/1 267/13/1 268/14/1
f 269/11/1 270/12/1 271/13/1 272/14/1
f 273/11/1 274/12/1 275/13/1 276/14/1
f 277/11/1 278/12/1 279/13/1 280/14/1
f 281/11/1 282/12/1 283/13/1 284/14/1
f 285/11/1 286/12/1 287/13/1 288/14/1
f 289/11/1 290/12/1 291/13/1 292/14/1
f 293/11/1 294/12/1 295/13/1 296/14/1
f 297/11/1 298/12/1 299/13/1 300/14/1
f 301/11/1 302/12/1 303/13/1 304/14/1
f 305/11/1 306/12/1 307/13/1 308/14/1
f 309/11/1 310/12/1 311/13/1 312/14/1

