# Tiled2Unity generated file. Do not modify by hand.
# Wavefront file for 'Mapa_2_mesh_0058.obj'

# Vertices (Count = 384)
v -2 -1 0
v -3 -1 0
v -3 0 0
v -2 0 0
v -3 -1 0
v -4 -1 0
v -4 0 0
v -3 0 0
v -4 -1 0
v -5 -1 0
v -5 0 0
v -4 0 0
v -5 -1 0
v -6 -1 0
v -6 0 0
v -5 0 0
v -6 -1 0
v -7 -1 0
v -7 0 0
v -6 0 0
v -7 -1 0
v -8 -1 0
v -8 0 0
v -7 0 0
v -8 -1 0
v -9 -1 0
v -9 0 0
v -8 0 0
v -9 -1 0
v -10 -1 0
v -10 0 0
v -9 0 0
v -10 -1 0
v -11 -1 0
v -11 0 0
v -10 0 0
v -2 -2 0
v -3 -2 0
v -3 -1 0
v -2 -1 0
v -3 -2 0
v -4 -2 0
v -4 -1 0
v -3 -1 0
v -4 -2 0
v -5 -2 0
v -5 -1 0
v -4 -1 0
v -5 -2 0
v -6 -2 0
v -6 -1 0
v -5 -1 0
v -6 -2 0
v -7 -2 0
v -7 -1 0
v -6 -1 0
v -7 -2 0
v -8 -2 0
v -8 -1 0
v -7 -1 0
v -8 -2 0
v -9 -2 0
v -9 -1 0
v -8 -1 0
v -9 -2 0
v -10 -2 0
v -10 -1 0
v -9 -1 0
v -10 -2 0
v -11 -2 0
v -11 -1 0
v -10 -1 0
v -2 -3 0
v -3 -3 0
v -3 -2 0
v -2 -2 0
v -3 -3 0
v -4 -3 0
v -4 -2 0
v -3 -2 0
v -4 -3 0
v -5 -3 0
v -5 -2 0
v -4 -2 0
v -5 -3 0
v -6 -3 0
v -6 -2 0
v -5 -2 0
v -6 -3 0
v -7 -3 0
v -7 -2 0
v -6 -2 0
v -7 -3 0
v -8 -3 0
v -8 -2 0
v -7 -2 0
v -8 -3 0
v -9 -3 0
v -9 -2 0
v -8 -2 0
v -9 -3 0
v -10 -3 0
v -10 -2 0
v -9 -2 0
v -10 -3 0
v -11 -3 0
v -11 -2 0
v -10 -2 0
v -2 -4 0
v -3 -4 0
v -3 -3 0
v -2 -3 0
v -3 -4 0
v -4 -4 0
v -4 -3 0
v -3 -3 0
v -4 -4 0
v -5 -4 0
v -5 -3 0
v -4 -3 0
v -5 -4 0
v -6 -4 0
v -6 -3 0
v -5 -3 0
v -6 -4 0
v -7 -4 0
v -7 -3 0
v -6 -3 0
v -7 -4 0
v -8 -4 0
v -8 -3 0
v -7 -3 0
v -8 -4 0
v -9 -4 0
v -9 -3 0
v -8 -3 0
v -9 -4 0
v -10 -4 0
v -10 -3 0
v -9 -3 0
v -10 -4 0
v -11 -4 0
v -11 -3 0
v -10 -3 0
v -2 -5 0
v -3 -5 0
v -3 -4 0
v -2 -4 0
v -3 -5 0
v -4 -5 0
v -4 -4 0
v -3 -4 0
v -4 -5 0
v -5 -5 0
v -5 -4 0
v -4 -4 0
v -5 -5 0
v -6 -5 0
v -6 -4 0
v -5 -4 0
v -6 -5 0
v -7 -5 0
v -7 -4 0
v -6 -4 0
v -7 -5 0
v -8 -5 0
v -8 -4 0
v -7 -4 0
v -8 -5 0
v -9 -5 0
v -9 -4 0
v -8 -4 0
v -9 -5 0
v -10 -5 0
v -10 -4 0
v -9 -4 0
v -10 -5 0
v -11 -5 0
v -11 -4 0
v -10 -4 0
v -2 -6 0
v -3 -6 0
v -3 -5 0
v -2 -5 0
v -3 -6 0
v -4 -6 0
v -4 -5 0
v -3 -5 0
v -4 -6 0
v -5 -6 0
v -5 -5 0
v -4 -5 0
v -5 -6 0
v -6 -6 0
v -6 -5 0
v -5 -5 0
v -6 -6 0
v -7 -6 0
v -7 -5 0
v -6 -5 0
v -7 -6 0
v -8 -6 0
v -8 -5 0
v -7 -5 0
v -8 -6 0
v -9 -6 0
v -9 -5 0
v -8 -5 0
v -9 -6 0
v -10 -6 0
v -10 -5 0
v -9 -5 0
v -10 -6 0
v -11 -6 0
v -11 -5 0
v -10 -5 0
v -2 -7 0
v -3 -7 0
v -3 -6 0
v -2 -6 0
v -3 -7 0
v -4 -7 0
v -4 -6 0
v -3 -6 0
v -4 -7 0
v -5 -7 0
v -5 -6 0
v -4 -6 0
v -5 -7 0
v -6 -7 0
v -6 -6 0
v -5 -6 0
v -6 -7 0
v -7 -7 0
v -7 -6 0
v -6 -6 0
v -7 -7 0
v -8 -7 0
v -8 -6 0
v -7 -6 0
v -8 -7 0
v -9 -7 0
v -9 -6 0
v -8 -6 0
v -9 -7 0
v -10 -7 0
v -10 -6 0
v -9 -6 0
v -10 -7 0
v -11 -7 0
v -11 -6 0
v -10 -6 0
v -11 -7 0
v -12 -7 0
v -12 -6 0
v -11 -6 0
v -12 -7 0
v -13 -7 0
v -13 -6 0
v -12 -6 0
v -13 -7 0
v -14 -7 0
v -14 -6 0
v -13 -6 0
v -14 -7 0
v -15 -7 0
v -15 -6 0
v -14 -6 0
v -15 -7 0
v -16 -7 0
v -16 -6 0
v -15 -6 0
v -2 -8 0
v -3 -8 0
v -3 -7 0
v -2 -7 0
v -3 -8 0
v -4 -8 0
v -4 -7 0
v -3 -7 0
v -4 -8 0
v -5 -8 0
v -5 -7 0
v -4 -7 0
v -5 -8 0
v -6 -8 0
v -6 -7 0
v -5 -7 0
v -6 -8 0
v -7 -8 0
v -7 -7 0
v -6 -7 0
v -7 -8 0
v -8 -8 0
v -8 -7 0
v -7 -7 0
v -8 -8 0
v -9 -8 0
v -9 -7 0
v -8 -7 0
v -9 -8 0
v -10 -8 0
v -10 -7 0
v -9 -7 0
v -10 -8 0
v -11 -8 0
v -11 -7 0
v -10 -7 0
v -11 -8 0
v -12 -8 0
v -12 -7 0
v -11 -7 0
v -12 -8 0
v -13 -8 0
v -13 -7 0
v -12 -7 0
v -13 -8 0
v -14 -8 0
v -14 -7 0
v -13 -7 0
v -14 -8 0
v -15 -8 0
v -15 -7 0
v -14 -7 0
v -15 -8 0
v -16 -8 0
v -16 -7 0
v -15 -7 0
v -2 -9 0
v -3 -9 0
v -3 -8 0
v -2 -8 0
v -3 -9 0
v -4 -9 0
v -4 -8 0
v -3 -8 0
v -4 -9 0
v -5 -9 0
v -5 -8 0
v -4 -8 0
v -5 -9 0
v -6 -9 0
v -6 -8 0
v -5 -8 0
v -6 -9 0
v -7 -9 0
v -7 -8 0
v -6 -8 0
v -7 -9 0
v -8 -9 0
v -8 -8 0
v -7 -8 0
v -8 -9 0
v -9 -9 0
v -9 -8 0
v -8 -8 0
v -9 -9 0
v -10 -9 0
v -10 -8 0
v -9 -8 0
v -10 -9 0
v -11 -9 0
v -11 -8 0
v -10 -8 0
v -11 -9 0
v -12 -9 0
v -12 -8 0
v -11 -8 0
v -12 -9 0
v -13 -9 0
v -13 -8 0
v -12 -8 0
v -13 -9 0
v -14 -9 0
v -14 -8 0
v -13 -8 0
v -14 -9 0
v -15 -9 0
v -15 -8 0
v -14 -8 0
v -15 -9 0
v -16 -9 0
v -16 -8 0
v -15 -8 0

# Texture cooridinates (Count = 42)
vt 0.25 0.631068
vt 0.296875 0.631068
vt 0.296875 0.6893204
vt 0.25 0.6893204
vt 0.0625 0.9223301
vt 0.109375 0.9223301
vt 0.109375 0.9805825
vt 0.0625 0.9805825
vt 0.15625 0.9223301
vt 0.15625 0.9805825
vt 0.34375 0.631068
vt 0.34375 0.6893204
vt 0.390625 0.631068
vt 0.390625 0.6893204
vt 0.203125 0.9223301
vt 0.25 0.9223301
vt 0.25 0.9805825
vt 0.203125 0.9805825
vt 0.4375 0.631068
vt 0.484375 0.631068
vt 0.484375 0.6893204
vt 0.4375 0.6893204
vt 0.109375 0.3980582
vt 0.15625 0.3980582
vt 0.15625 0.4563107
vt 0.109375 0.4563107
vt 0.296875 0.9223301
vt 0.296875 0.9805825
vt 0.109375 0.3398058
vt 0.15625 0.3398058
vt 0.578125 0.4563107
vt 0.625 0.4563107
vt 0.625 0.5145631
vt 0.578125 0.5145631
vt 0.15625 0.1650485
vt 0.203125 0.1650485
vt 0.203125 0.223301
vt 0.15625 0.223301
vt 0.53125 0.631068
vt 0.578125 0.631068
vt 0.578125 0.6893204
vt 0.53125 0.6893204

# Normal
vn 0 0 -1

# Mesh description
g Mapa_2_mesh_0058

# Faces
f 1/1/1 2/2/1 3/3/1 4/4/1
f 5/5/1 6/6/1 7/7/1 8/8/1
f 9/6/1 10/9/1 11/10/1 12/7/1
f 13/1/1 14/2/1 15/3/1 16/4/1
f 17/2/1 18/11/1 19/12/1 20/3/1
f 21/11/1 22/13/1 23/14/1 24/12/1
f 25/15/1 26/16/1 27/17/1 28/18/1
f 29/19/1 30/20/1 31/21/1 32/22/1
f 33/23/1 34/24/1 35/25/1 36/26/1
f 37/5/1 38/6/1 39/7/1 40/8/1
f 41/1/1 42/2/1 43/3/1 44/4/1
f 45/2/1 46/11/1 47/12/1 48/3/1
f 49/5/1 50/6/1 51/7/1 52/8/1
f 53/2/1 54/11/1 55/12/1 56/3/1
f 57/11/1 58/13/1 59/14/1 60/12/1
f 61/15/1 62/16/1 63/17/1 64/18/1
f 65/16/1 66/27/1 67/28/1 68/17/1
f 69/23/1 70/24/1 71/25/1 72/26/1
f 73/5/1 74/6/1 75/7/1 76/8/1
f 77/1/1 78/2/1 79/3/1 80/4/1
f 81/2/1 82/11/1 83/12/1 84/3/1
f 85/5/1 86/6/1 87/7/1 88/8/1
f 89/2/1 90/11/1 91/12/1 92/3/1
f 93/11/1 94/13/1 95/14/1 96/12/1
f 97/15/1 98/16/1 99/17/1 100/18/1
f 101/16/1 102/27/1 103/28/1 104/17/1
f 105/23/1 106/24/1 107/25/1 108/26/1
f 109/1/1 110/2/1 111/3/1 112/4/1
f 113/5/1 114/6/1 115/7/1 116/8/1
f 117/6/1 118/9/1 119/10/1 120/7/1
f 121/1/1 122/2/1 123/3/1 124/4/1
f 125/2/1 126/11/1 127/12/1 128/3/1
f 129/11/1 130/13/1 131/14/1 132/12/1
f 133/15/1 134/16/1 135/17/1 136/18/1
f 137/19/1 138/20/1 139/21/1 140/22/1
f 141/23/1 142/24/1 143/25/1 144/26/1
f 145/5/1 146/6/1 147/7/1 148/8/1
f 149/1/1 150/2/1 151/3/1 152/4/1
f 153/2/1 154/11/1 155/12/1 156/3/1
f 157/5/1 158/6/1 159/7/1 160/8/1
f 161/2/1 162/11/1 163/12/1 164/3/1
f 165/11/1 166/13/1 167/14/1 168/12/1
f 169/15/1 170/16/1 171/17/1 172/18/1
f 173/16/1 174/27/1 175/28/1 176/17/1
f 177/23/1 178/24/1 179/25/1 180/26/1
f 181/1/1 182/2/1 183/3/1 184/4/1
f 185/5/1 186/6/1 187/7/1 188/8/1
f 189/6/1 190/9/1 191/10/1 192/7/1
f 193/1/1 194/2/1 195/3/1 196/4/1
f 197/2/1 198/11/1 199/12/1 200/3/1
f 201/11/1 202/13/1 203/14/1 204/12/1
f 205/15/1 206/16/1 207/17/1 208/18/1
f 209/19/1 210/20/1 211/21/1 212/22/1
f 213/23/1 214/24/1 215/25/1 216/26/1
f 217/1/1 218/2/1 219/3/1 220/4/1
f 221/5/1 222/6/1 223/7/1 224/8/1
f 225/6/1 226/9/1 227/10/1 228/7/1
f 229/1/1 230/2/1 231/3/1 232/4/1
f 233/2/1 234/11/1 235/12/1 236/3/1
f 237/11/1 238/13/1 239/14/1 240/12/1
f 241/15/1 242/16/1 243/17/1 244/18/1
f 245/19/1 246/20/1 247/21/1 248/22/1
f 249/29/1 250/30/1 251/24/1 252/23/1
f 253/31/1 254/32/1 255/33/1 256/34/1
f 257/31/1 258/32/1 259/33/1 260/34/1
f 261/31/1 262/32/1 263/33/1 264/34/1
f 265/31/1 266/32/1 267/33/1 268/34/1
f 269/31/1 270/32/1 271/33/1 272/34/1
f 273/5/1 274/6/1 275/7/1 276/8/1
f 277/1/1 278/2/1 279/3/1 280/4/1
f 281/2/1 282/11/1 283/12/1 284/3/1
f 285/5/1 286/6/1 287/7/1 288/8/1
f 289/2/1 290/11/1 291/12/1 292/3/1
f 293/11/1 294/13/1 295/14/1 296/12/1
f 297/15/1 298/16/1 299/17/1 300/18/1
f 301/16/1 302/27/1 303/28/1 304/17/1
f 305/35/1 306/36/1 307/37/1 308/38/1
f 309/39/1 310/40/1 311/41/1 312/42/1
f 313/39/1 314/40/1 315/41/1 316/42/1
f 317/39/1 318/40/1 319/41/1 320/42/1
f 321/39/1 322/40/1 323/41/1 324/42/1
f 325/39/1 326/40/1 327/41/1 328/42/1
f 329/5/1 330/6/1 331/7/1 332/8/1
f 333/1/1 334/2/1 335/3/1 336/4/1
f 337/2/1 338/11/1 339/12/1 340/3/1
f 341/5/1 342/6/1 343/7/1 344/8/1
f 345/2/1 346/11/1 347/12/1 348/3/1
f 349/11/1 350/13/1 351/14/1 352/12/1
f 353/15/1 354/16/1 355/17/1 356/18/1
f 357/16/1 358/27/1 359/28/1 360/17/1
f 361/5/1 362/6/1 363/7/1 364/8/1
f 365/1/1 366/2/1 367/3/1 368/4/1
f 369/2/1 370/11/1 371/12/1 372/3/1
f 373/5/1 374/6/1 375/7/1 376/8/1
f 377/2/1 378/11/1 379/12/1 380/3/1
f 381/11/1 382/13/1 383/14/1 384/12/1

