# Tiled2Unity generated file. Do not modify by hand.
# Wavefront file for 'Mapa_2_mesh_0064.obj'

# Vertices (Count = 308)
v -12 -3 0
v -13 -3 0
v -13 -2 0
v -12 -2 0
v -13 -3 0
v -14 -3 0
v -14 -2 0
v -13 -2 0
v -14 -3 0
v -15 -3 0
v -15 -2 0
v -14 -2 0
v -15 -3 0
v -16 -3 0
v -16 -2 0
v -15 -2 0
v 0 -4 0
v -1 -4 0
v -1 -3 0
v 0 -3 0
v -1 -4 0
v -2 -4 0
v -2 -3 0
v -1 -3 0
v -2 -4 0
v -3 -4 0
v -3 -3 0
v -2 -3 0
v -5 -4 0
v -6 -4 0
v -6 -3 0
v -5 -3 0
v -6 -4 0
v -7 -4 0
v -7 -3 0
v -6 -3 0
v -7 -4 0
v -8 -4 0
v -8 -3 0
v -7 -3 0
v -8 -4 0
v -9 -4 0
v -9 -3 0
v -8 -3 0
v 0 -5 0
v -1 -5 0
v -1 -4 0
v 0 -4 0
v -1 -5 0
v -2 -5 0
v -2 -4 0
v -1 -4 0
v -2 -5 0
v -3 -5 0
v -3 -4 0
v -2 -4 0
v 0 -6 0
v -1 -6 0
v -1 -5 0
v 0 -5 0
v -1 -6 0
v -2 -6 0
v -2 -5 0
v -1 -5 0
v -2 -6 0
v -3 -6 0
v -3 -5 0
v -2 -5 0
v 0 -7 0
v -1 -7 0
v -1 -6 0
v 0 -6 0
v -1 -7 0
v -2 -7 0
v -2 -6 0
v -1 -6 0
v -2 -7 0
v -3 -7 0
v -3 -6 0
v -2 -6 0
v 0 -8 0
v -1 -8 0
v -1 -7 0
v 0 -7 0
v -1 -8 0
v -2 -8 0
v -2 -7 0
v -1 -7 0
v -2 -8 0
v -3 -8 0
v -3 -7 0
v -2 -7 0
v 0 -9 0
v -1 -9 0
v -1 -8 0
v 0 -8 0
v -1 -9 0
v -2 -9 0
v -2 -8 0
v -1 -8 0
v -2 -9 0
v -3 -9 0
v -3 -8 0
v -2 -8 0
v 0 -10 0
v -1 -10 0
v -1 -9 0
v 0 -9 0
v -1 -10 0
v -2 -10 0
v -2 -9 0
v -1 -9 0
v -2 -10 0
v -3 -10 0
v -3 -9 0
v -2 -9 0
v 0 -11 0
v -1 -11 0
v -1 -10 0
v 0 -10 0
v -1 -11 0
v -2 -11 0
v -2 -10 0
v -1 -10 0
v -2 -11 0
v -3 -11 0
v -3 -10 0
v -2 -10 0
v -3 -11 0
v -4 -11 0
v -4 -10 0
v -3 -10 0
v -4 -11 0
v -5 -11 0
v -5 -10 0
v -4 -10 0
v -5 -11 0
v -6 -11 0
v -6 -10 0
v -5 -10 0
v -6 -11 0
v -7 -11 0
v -7 -10 0
v -6 -10 0
v -7 -11 0
v -8 -11 0
v -8 -10 0
v -7 -10 0
v -8 -11 0
v -9 -11 0
v -9 -10 0
v -8 -10 0
v -9 -11 0
v -10 -11 0
v -10 -10 0
v -9 -10 0
v -10 -11 0
v -11 -11 0
v -11 -10 0
v -10 -10 0
v -11 -11 0
v -12 -11 0
v -12 -10 0
v -11 -10 0
v -12 -11 0
v -13 -11 0
v -13 -10 0
v -12 -10 0
v -13 -11 0
v -14 -11 0
v -14 -10 0
v -13 -10 0
v -14 -11 0
v -15 -11 0
v -15 -10 0
v -14 -10 0
v -15 -11 0
v -16 -11 0
v -16 -10 0
v -15 -10 0
v 0 -12 0
v -1 -12 0
v -1 -11 0
v 0 -11 0
v -1 -12 0
v -2 -12 0
v -2 -11 0
v -1 -11 0
v -2 -12 0
v -3 -12 0
v -3 -11 0
v -2 -11 0
v -3 -12 0
v -4 -12 0
v -4 -11 0
v -3 -11 0
v -4 -12 0
v -5 -12 0
v -5 -11 0
v -4 -11 0
v -5 -12 0
v -6 -12 0
v -6 -11 0
v -5 -11 0
v -6 -12 0
v -7 -12 0
v -7 -11 0
v -6 -11 0
v -7 -12 0
v -8 -12 0
v -8 -11 0
v -7 -11 0
v -8 -12 0
v -9 -12 0
v -9 -11 0
v -8 -11 0
v -9 -12 0
v -10 -12 0
v -10 -11 0
v -9 -11 0
v -10 -12 0
v -11 -12 0
v -11 -11 0
v -10 -11 0
v -11 -12 0
v -12 -12 0
v -12 -11 0
v -11 -11 0
v -12 -12 0
v -13 -12 0
v -13 -11 0
v -12 -11 0
v -13 -12 0
v -14 -12 0
v -14 -11 0
v -13 -11 0
v -14 -12 0
v -15 -12 0
v -15 -11 0
v -14 -11 0
v -15 -12 0
v -16 -12 0
v -16 -11 0
v -15 -11 0
v 0 -13 0
v -1 -13 0
v -1 -12 0
v 0 -12 0
v -1 -13 0
v -2 -13 0
v -2 -12 0
v -1 -12 0
v -2 -13 0
v -3 -13 0
v -3 -12 0
v -2 -12 0
v -3 -13 0
v -4 -13 0
v -4 -12 0
v -3 -12 0
v -4 -13 0
v -5 -13 0
v -5 -12 0
v -4 -12 0
v -5 -13 0
v -6 -13 0
v -6 -12 0
v -5 -12 0
v -6 -13 0
v -7 -13 0
v -7 -12 0
v -6 -12 0
v -7 -13 0
v -8 -13 0
v -8 -12 0
v -7 -12 0
v -8 -13 0
v -9 -13 0
v -9 -12 0
v -8 -12 0
v -9 -13 0
v -10 -13 0
v -10 -12 0
v -9 -12 0
v -10 -13 0
v -11 -13 0
v -11 -12 0
v -10 -12 0
v -11 -13 0
v -12 -13 0
v -12 -12 0
v -11 -12 0
v -12 -13 0
v -13 -13 0
v -13 -12 0
v -12 -12 0
v -13 -13 0
v -14 -13 0
v -14 -12 0
v -13 -12 0
v -14 -13 0
v -15 -13 0
v -15 -12 0
v -14 -12 0
v -15 -13 0
v -16 -13 0
v -16 -12 0
v -15 -12 0

# Texture cooridinates (Count = 44)
vt 0.34375 0.3398058
vt 0.390625 0.3398058
vt 0.390625 0.3980582
vt 0.34375 0.3980582
vt 0.34375 0.6893204
vt 0.390625 0.6893204
vt 0.390625 0.7475728
vt 0.34375 0.7475728
vt 0.109375 0.4563107
vt 0.15625 0.4563107
vt 0.15625 0.5145631
vt 0.109375 0.5145631
vt 0.203125 0.9223301
vt 0.25 0.9223301
vt 0.25 0.9805825
vt 0.203125 0.9805825
vt 0.296875 0.9223301
vt 0.296875 0.9805825
vt 0.109375 0.3980582
vt 0.15625 0.3980582
vt 0.4375 0.631068
vt 0.484375 0.631068
vt 0.484375 0.6893204
vt 0.4375 0.6893204
vt 0.109375 0.3398058
vt 0.15625 0.3398058
vt 0.578125 0.4563107
vt 0.625 0.4563107
vt 0.625 0.5145631
vt 0.578125 0.5145631
vt 0.34375 0.631068
vt 0.390625 0.631068
vt 0.53125 0.631068
vt 0.578125 0.631068
vt 0.578125 0.6893204
vt 0.53125 0.6893204
vt 0.0625 0.9223301
vt 0.109375 0.9223301
vt 0.109375 0.9805825
vt 0.0625 0.9805825
vt 0.25 0.631068
vt 0.296875 0.631068
vt 0.296875 0.6893204
vt 0.25 0.6893204

# Normal
vn 0 0 -1

# Mesh description
g Mapa_2_mesh_0064

# Faces
f 1/1/1 2/2/1 3/3/1 4/4/1
f 5/1/1 6/2/1 7/3/1 8/4/1
f 9/1/1 10/2/1 11/3/1 12/4/1
f 13/1/1 14/2/1 15/3/1 16/4/1
f 17/5/1 18/6/1 19/7/1 20/8/1
f 21/5/1 22/6/1 23/7/1 24/8/1
f 25/9/1 26/10/1 27/11/1 28/12/1
f 29/1/1 30/2/1 31/3/1 32/4/1
f 33/1/1 34/2/1 35/3/1 36/4/1
f 37/1/1 38/2/1 39/3/1 40/4/1
f 41/1/1 42/2/1 43/3/1 44/4/1
f 45/13/1 46/14/1 47/15/1 48/16/1
f 49/14/1 50/17/1 51/18/1 52/15/1
f 53/19/1 54/20/1 55/10/1 56/9/1
f 57/13/1 58/14/1 59/15/1 60/16/1
f 61/14/1 62/17/1 63/18/1 64/15/1
f 65/19/1 66/20/1 67/10/1 68/9/1
f 69/13/1 70/14/1 71/15/1 72/16/1
f 73/14/1 74/17/1 75/18/1 76/15/1
f 77/19/1 78/20/1 79/10/1 80/9/1
f 81/13/1 82/14/1 83/15/1 84/16/1
f 85/21/1 86/22/1 87/23/1 88/24/1
f 89/19/1 90/20/1 91/10/1 92/9/1
f 93/13/1 94/14/1 95/15/1 96/16/1
f 97/14/1 98/17/1 99/18/1 100/15/1
f 101/19/1 102/20/1 103/10/1 104/9/1
f 105/13/1 106/14/1 107/15/1 108/16/1
f 109/14/1 110/17/1 111/18/1 112/15/1
f 113/19/1 114/20/1 115/10/1 116/9/1
f 117/13/1 118/14/1 119/15/1 120/16/1
f 121/21/1 122/22/1 123/23/1 124/24/1
f 125/25/1 126/26/1 127/20/1 128/19/1
f 129/27/1 130/28/1 131/29/1 132/30/1
f 133/27/1 134/28/1 135/29/1 136/30/1
f 137/27/1 138/28/1 139/29/1 140/30/1
f 141/27/1 142/28/1 143/29/1 144/30/1
f 145/27/1 146/28/1 147/29/1 148/30/1
f 149/27/1 150/28/1 151/29/1 152/30/1
f 153/27/1 154/28/1 155/29/1 156/30/1
f 157/27/1 158/28/1 159/29/1 160/30/1
f 161/27/1 162/28/1 163/29/1 164/30/1
f 165/27/1 166/28/1 167/29/1 168/30/1
f 169/27/1 170/28/1 171/29/1 172/30/1
f 173/27/1 174/28/1 175/29/1 176/30/1
f 177/27/1 178/28/1 179/29/1 180/30/1
f 181/31/1 182/32/1 183/6/1 184/5/1
f 185/13/1 186/14/1 187/15/1 188/16/1
f 189/14/1 190/17/1 191/18/1 192/15/1
f 193/33/1 194/34/1 195/35/1 196/36/1
f 197/33/1 198/34/1 199/35/1 200/36/1
f 201/33/1 202/34/1 203/35/1 204/36/1
f 205/33/1 206/34/1 207/35/1 208/36/1
f 209/33/1 210/34/1 211/35/1 212/36/1
f 213/33/1 214/34/1 215/35/1 216/36/1
f 217/33/1 218/34/1 219/35/1 220/36/1
f 221/33/1 222/34/1 223/35/1 224/36/1
f 225/33/1 226/34/1 227/35/1 228/36/1
f 229/33/1 230/34/1 231/35/1 232/36/1
f 233/33/1 234/34/1 235/35/1 236/36/1
f 237/33/1 238/34/1 239/35/1 240/36/1
f 241/33/1 242/34/1 243/35/1 244/36/1
f 245/31/1 246/32/1 247/6/1 248/5/1
f 249/13/1 250/14/1 251/15/1 252/16/1
f 253/21/1 254/22/1 255/23/1 256/24/1
f 257/31/1 258/32/1 259/6/1 260/5/1
f 261/13/1 262/14/1 263/15/1 264/16/1
f 265/14/1 266/17/1 267/18/1 268/15/1
f 269/37/1 270/38/1 271/39/1 272/40/1
f 273/37/1 274/38/1 275/39/1 276/40/1
f 277/41/1 278/42/1 279/43/1 280/44/1
f 281/42/1 282/31/1 283/5/1 284/43/1
f 285/37/1 286/38/1 287/39/1 288/40/1
f 289/42/1 290/31/1 291/5/1 292/43/1
f 293/31/1 294/32/1 295/6/1 296/5/1
f 297/13/1 298/14/1 299/15/1 300/16/1
f 301/37/1 302/38/1 303/39/1 304/40/1
f 305/41/1 306/42/1 307/43/1 308/44/1

