# Tiled2Unity generated file. Do not modify by hand.
# Wavefront file for 'Mapa_2_mesh_0066.obj'

# Vertices (Count = 496)
v 0 -1 0
v -1 -1 0
v -1 0 0
v 0 0 0
v -1 -1 0
v -2 -1 0
v -2 0 0
v -1 0 0
v -2 -1 0
v -3 -1 0
v -3 0 0
v -2 0 0
v -3 -1 0
v -4 -1 0
v -4 0 0
v -3 0 0
v -4 -1 0
v -5 -1 0
v -5 0 0
v -4 0 0
v -5 -1 0
v -6 -1 0
v -6 0 0
v -5 0 0
v -6 -1 0
v -7 -1 0
v -7 0 0
v -6 0 0
v -7 -1 0
v -8 -1 0
v -8 0 0
v -7 0 0
v -11 -1 0
v -12 -1 0
v -12 0 0
v -11 0 0
v -12 -1 0
v -13 -1 0
v -13 0 0
v -12 0 0
v -13 -1 0
v -14 -1 0
v -14 0 0
v -13 0 0
v -14 -1 0
v -15 -1 0
v -15 0 0
v -14 0 0
v -15 -1 0
v -16 -1 0
v -16 0 0
v -15 0 0
v 0 -2 0
v -1 -2 0
v -1 -1 0
v 0 -1 0
v -1 -2 0
v -2 -2 0
v -2 -1 0
v -1 -1 0
v -2 -2 0
v -3 -2 0
v -3 -1 0
v -2 -1 0
v -3 -2 0
v -4 -2 0
v -4 -1 0
v -3 -1 0
v -4 -2 0
v -5 -2 0
v -5 -1 0
v -4 -1 0
v -5 -2 0
v -6 -2 0
v -6 -1 0
v -5 -1 0
v -6 -2 0
v -7 -2 0
v -7 -1 0
v -6 -1 0
v -7 -2 0
v -8 -2 0
v -8 -1 0
v -7 -1 0
v -11 -2 0
v -12 -2 0
v -12 -1 0
v -11 -1 0
v -12 -2 0
v -13 -2 0
v -13 -1 0
v -12 -1 0
v -13 -2 0
v -14 -2 0
v -14 -1 0
v -13 -1 0
v -14 -2 0
v -15 -2 0
v -15 -1 0
v -14 -1 0
v -15 -2 0
v -16 -2 0
v -16 -1 0
v -15 -1 0
v 0 -3 0
v -1 -3 0
v -1 -2 0
v 0 -2 0
v -1 -3 0
v -2 -3 0
v -2 -2 0
v -1 -2 0
v -2 -3 0
v -3 -3 0
v -3 -2 0
v -2 -2 0
v -3 -3 0
v -4 -3 0
v -4 -2 0
v -3 -2 0
v -4 -3 0
v -5 -3 0
v -5 -2 0
v -4 -2 0
v -5 -3 0
v -6 -3 0
v -6 -2 0
v -5 -2 0
v -6 -3 0
v -7 -3 0
v -7 -2 0
v -6 -2 0
v -7 -3 0
v -8 -3 0
v -8 -2 0
v -7 -2 0
v -11 -3 0
v -12 -3 0
v -12 -2 0
v -11 -2 0
v -12 -3 0
v -13 -3 0
v -13 -2 0
v -12 -2 0
v -13 -3 0
v -14 -3 0
v -14 -2 0
v -13 -2 0
v -14 -3 0
v -15 -3 0
v -15 -2 0
v -14 -2 0
v 0 -4 0
v -1 -4 0
v -1 -3 0
v 0 -3 0
v -1 -4 0
v -2 -4 0
v -2 -3 0
v -1 -3 0
v -2 -4 0
v -3 -4 0
v -3 -3 0
v -2 -3 0
v -3 -4 0
v -4 -4 0
v -4 -3 0
v -3 -3 0
v -4 -4 0
v -5 -4 0
v -5 -3 0
v -4 -3 0
v -5 -4 0
v -6 -4 0
v -6 -3 0
v -5 -3 0
v -6 -4 0
v -7 -4 0
v -7 -3 0
v -6 -3 0
v -7 -4 0
v -8 -4 0
v -8 -3 0
v -7 -3 0
v -11 -4 0
v -12 -4 0
v -12 -3 0
v -11 -3 0
v -12 -4 0
v -13 -4 0
v -13 -3 0
v -12 -3 0
v -13 -4 0
v -14 -4 0
v -14 -3 0
v -13 -3 0
v -14 -4 0
v -15 -4 0
v -15 -3 0
v -14 -3 0
v -11 -5 0
v -12 -5 0
v -12 -4 0
v -11 -4 0
v -12 -5 0
v -13 -5 0
v -13 -4 0
v -12 -4 0
v -13 -5 0
v -14 -5 0
v -14 -4 0
v -13 -4 0
v -14 -5 0
v -15 -5 0
v -15 -4 0
v -14 -4 0
v -11 -6 0
v -12 -6 0
v -12 -5 0
v -11 -5 0
v -12 -6 0
v -13 -6 0
v -13 -5 0
v -12 -5 0
v -13 -6 0
v -14 -6 0
v -14 -5 0
v -13 -5 0
v -14 -6 0
v -15 -6 0
v -15 -5 0
v -14 -5 0
v 0 -7 0
v -1 -7 0
v -1 -6 0
v 0 -6 0
v -1 -7 0
v -2 -7 0
v -2 -6 0
v -1 -6 0
v -2 -7 0
v -3 -7 0
v -3 -6 0
v -2 -6 0
v -3 -7 0
v -4 -7 0
v -4 -6 0
v -3 -6 0
v -4 -7 0
v -5 -7 0
v -5 -6 0
v -4 -6 0
v -5 -7 0
v -6 -7 0
v -6 -6 0
v -5 -6 0
v -6 -7 0
v -7 -7 0
v -7 -6 0
v -6 -6 0
v -7 -7 0
v -8 -7 0
v -8 -6 0
v -7 -6 0
v -8 -7 0
v -9 -7 0
v -9 -6 0
v -8 -6 0
v -9 -7 0
v -10 -7 0
v -10 -6 0
v -9 -6 0
v -10 -7 0
v -11 -7 0
v -11 -6 0
v -10 -6 0
v -11 -7 0
v -12 -7 0
v -12 -6 0
v -11 -6 0
v -12 -7 0
v -13 -7 0
v -13 -6 0
v -12 -6 0
v -13 -7 0
v -14 -7 0
v -14 -6 0
v -13 -6 0
v -14 -7 0
v -15 -7 0
v -15 -6 0
v -14 -6 0
v 0 -8 0
v -1 -8 0
v -1 -7 0
v 0 -7 0
v -1 -8 0
v -2 -8 0
v -2 -7 0
v -1 -7 0
v -2 -8 0
v -3 -8 0
v -3 -7 0
v -2 -7 0
v -3 -8 0
v -4 -8 0
v -4 -7 0
v -3 -7 0
v -4 -8 0
v -5 -8 0
v -5 -7 0
v -4 -7 0
v -5 -8 0
v -6 -8 0
v -6 -7 0
v -5 -7 0
v -6 -8 0
v -7 -8 0
v -7 -7 0
v -6 -7 0
v -7 -8 0
v -8 -8 0
v -8 -7 0
v -7 -7 0
v -8 -8 0
v -9 -8 0
v -9 -7 0
v -8 -7 0
v -9 -8 0
v -10 -8 0
v -10 -7 0
v -9 -7 0
v -10 -8 0
v -11 -8 0
v -11 -7 0
v -10 -7 0
v -11 -8 0
v -12 -8 0
v -12 -7 0
v -11 -7 0
v -12 -8 0
v -13 -8 0
v -13 -7 0
v -12 -7 0
v -13 -8 0
v -14 -8 0
v -14 -7 0
v -13 -7 0
v -14 -8 0
v -15 -8 0
v -15 -7 0
v -14 -7 0
v 0 -9 0
v -1 -9 0
v -1 -8 0
v 0 -8 0
v -1 -9 0
v -2 -9 0
v -2 -8 0
v -1 -8 0
v -2 -9 0
v -3 -9 0
v -3 -8 0
v -2 -8 0
v -3 -9 0
v -4 -9 0
v -4 -8 0
v -3 -8 0
v -4 -9 0
v -5 -9 0
v -5 -8 0
v -4 -8 0
v -5 -9 0
v -6 -9 0
v -6 -8 0
v -5 -8 0
v -6 -9 0
v -7 -9 0
v -7 -8 0
v -6 -8 0
v -7 -9 0
v -8 -9 0
v -8 -8 0
v -7 -8 0
v -8 -9 0
v -9 -9 0
v -9 -8 0
v -8 -8 0
v -9 -9 0
v -10 -9 0
v -10 -8 0
v -9 -8 0
v -10 -9 0
v -11 -9 0
v -11 -8 0
v -10 -8 0
v -11 -9 0
v -12 -9 0
v -12 -8 0
v -11 -8 0
v -12 -9 0
v -13 -9 0
v -13 -8 0
v -12 -8 0
v -13 -9 0
v -14 -9 0
v -14 -8 0
v -13 -8 0
v -14 -9 0
v -15 -9 0
v -15 -8 0
v -14 -8 0
v 0 -10 0
v -1 -10 0
v -1 -9 0
v 0 -9 0
v -1 -10 0
v -2 -10 0
v -2 -9 0
v -1 -9 0
v -2 -10 0
v -3 -10 0
v -3 -9 0
v -2 -9 0
v -3 -10 0
v -4 -10 0
v -4 -9 0
v -3 -9 0
v -4 -10 0
v -5 -10 0
v -5 -9 0
v -4 -9 0
v -5 -10 0
v -6 -10 0
v -6 -9 0
v -5 -9 0
v -6 -10 0
v -7 -10 0
v -7 -9 0
v -6 -9 0
v -7 -10 0
v -8 -10 0
v -8 -9 0
v -7 -9 0
v -8 -10 0
v -9 -10 0
v -9 -9 0
v -8 -9 0
v -9 -10 0
v -10 -10 0
v -10 -9 0
v -9 -9 0
v -10 -10 0
v -11 -10 0
v -11 -9 0
v -10 -9 0
v -11 -10 0
v -12 -10 0
v -12 -9 0
v -11 -9 0
v -12 -10 0
v -13 -10 0
v -13 -9 0
v -12 -9 0
v -13 -10 0
v -14 -10 0
v -14 -9 0
v -13 -9 0
v -14 -10 0
v -15 -10 0
v -15 -9 0
v -14 -9 0
v 0 -11 0
v -1 -11 0
v -1 -10 0
v 0 -10 0
v -1 -11 0
v -2 -11 0
v -2 -10 0
v -1 -10 0
v 0 -12 0
v -1 -12 0
v -1 -11 0
v 0 -11 0
v -1 -12 0
v -2 -12 0
v -2 -11 0
v -1 -11 0
v 0 -13 0
v -1 -13 0
v -1 -12 0
v 0 -12 0
v -1 -13 0
v -2 -13 0
v -2 -12 0
v -1 -12 0

# Texture cooridinates (Count = 55)
vt 0.15625 0.1650485
vt 0.203125 0.1650485
vt 0.203125 0.223301
vt 0.15625 0.223301
vt 0.015625 0.6893204
vt 0.0625 0.6893204
vt 0.0625 0.7475728
vt 0.015625 0.7475728
vt 0.015625 0.3980582
vt 0.0625 0.3980582
vt 0.0625 0.4563107
vt 0.015625 0.4563107
vt 0.25 0.631068
vt 0.296875 0.631068
vt 0.296875 0.6893204
vt 0.25 0.6893204
vt 0.34375 0.631068
vt 0.34375 0.6893204
vt 0.390625 0.631068
vt 0.390625 0.6893204
vt 0.203125 0.9223301
vt 0.25 0.9223301
vt 0.25 0.9805825
vt 0.203125 0.9805825
vt 0.109375 0.8640777
vt 0.15625 0.8640777
vt 0.15625 0.9223301
vt 0.109375 0.9223301
vt 0.0625 0.8640777
vt 0.0625 0.9223301
vt 0.671875 0.5728155
vt 0.71875 0.5728155
vt 0.71875 0.631068
vt 0.671875 0.631068
vt 0.109375 0.9805825
vt 0.0625 0.9805825
vt 0.109375 0.6893204
vt 0.15625 0.6893204
vt 0.15625 0.7475728
vt 0.109375 0.7475728
vt 0.015625 0.3398058
vt 0.0625 0.3398058
vt 0.15625 0.5728155
vt 0.203125 0.5728155
vt 0.203125 0.631068
vt 0.15625 0.631068
vt 0.0625 0.5728155
vt 0.109375 0.5728155
vt 0.109375 0.631068
vt 0.0625 0.631068
vt 0.015625 0.5728155
vt 0.015625 0.631068
vt 0.296875 0.9223301
vt 0.296875 0.9805825
vt 0.15625 0.9805825

# Normal
vn 0 0 -1

# Mesh description
g Mapa_2_mesh_0066

# Faces
f 1/1/1 2/2/1 3/3/1 4/4/1
f 5/1/1 6/2/1 7/3/1 8/4/1
f 9/1/1 10/2/1 11/3/1 12/4/1
f 13/1/1 14/2/1 15/3/1 16/4/1
f 17/1/1 18/2/1 19/3/1 20/4/1
f 21/1/1 22/2/1 23/3/1 24/4/1
f 25/1/1 26/2/1 27/3/1 28/4/1
f 29/5/1 30/6/1 31/7/1 32/8/1
f 33/9/1 34/10/1 35/11/1 36/12/1
f 37/13/1 38/14/1 39/15/1 40/16/1
f 41/14/1 42/17/1 43/18/1 44/15/1
f 45/17/1 46/19/1 47/20/1 48/18/1
f 49/21/1 50/22/1 51/23/1 52/24/1
f 53/1/1 54/2/1 55/3/1 56/4/1
f 57/1/1 58/2/1 59/3/1 60/4/1
f 61/1/1 62/2/1 63/3/1 64/4/1
f 65/1/1 66/2/1 67/3/1 68/4/1
f 69/1/1 70/2/1 71/3/1 72/4/1
f 73/1/1 74/2/1 75/3/1 76/4/1
f 77/1/1 78/2/1 79/3/1 80/4/1
f 81/5/1 82/6/1 83/7/1 84/8/1
f 85/9/1 86/10/1 87/11/1 88/12/1
f 89/13/1 90/14/1 91/15/1 92/16/1
f 93/14/1 94/17/1 95/18/1 96/15/1
f 97/17/1 98/19/1 99/20/1 100/18/1
f 101/13/1 102/14/1 103/15/1 104/16/1
f 105/1/1 106/2/1 107/3/1 108/4/1
f 109/1/1 110/2/1 111/3/1 112/4/1
f 113/1/1 114/2/1 115/3/1 116/4/1
f 117/1/1 118/2/1 119/3/1 120/4/1
f 121/1/1 122/2/1 123/3/1 124/4/1
f 125/1/1 126/2/1 127/3/1 128/4/1
f 129/1/1 130/2/1 131/3/1 132/4/1
f 133/5/1 134/6/1 135/7/1 136/8/1
f 137/9/1 138/10/1 139/11/1 140/12/1
f 141/1/1 142/2/1 143/3/1 144/4/1
f 145/13/1 146/14/1 147/15/1 148/16/1
f 149/14/1 150/17/1 151/18/1 152/15/1
f 153/25/1 154/26/1 155/27/1 156/28/1
f 157/25/1 158/26/1 159/27/1 160/28/1
f 161/25/1 162/26/1 163/27/1 164/28/1
f 165/29/1 166/25/1 167/28/1 168/30/1
f 169/25/1 170/26/1 171/27/1 172/28/1
f 173/25/1 174/26/1 175/27/1 176/28/1
f 177/29/1 178/25/1 179/28/1 180/30/1
f 181/31/1 182/32/1 183/33/1 184/34/1
f 185/9/1 186/10/1 187/11/1 188/12/1
f 189/30/1 190/28/1 191/35/1 192/36/1
f 193/14/1 194/17/1 195/18/1 196/15/1
f 197/17/1 198/19/1 199/20/1 200/18/1
f 201/9/1 202/10/1 203/11/1 204/12/1
f 205/13/1 206/14/1 207/15/1 208/16/1
f 209/14/1 210/17/1 211/18/1 212/15/1
f 213/17/1 214/19/1 215/20/1 216/18/1
f 217/9/1 218/10/1 219/11/1 220/12/1
f 221/30/1 222/28/1 223/35/1 224/36/1
f 225/14/1 226/17/1 227/18/1 228/15/1
f 229/17/1 230/19/1 231/20/1 232/18/1
f 233/37/1 234/38/1 235/39/1 236/40/1
f 237/37/1 238/38/1 239/39/1 240/40/1
f 241/37/1 242/38/1 243/39/1 244/40/1
f 245/37/1 246/38/1 247/39/1 248/40/1
f 249/37/1 250/38/1 251/39/1 252/40/1
f 253/37/1 254/38/1 255/39/1 256/40/1
f 257/37/1 258/38/1 259/39/1 260/40/1
f 261/37/1 262/38/1 263/39/1 264/40/1
f 265/37/1 266/38/1 267/39/1 268/40/1
f 269/37/1 270/38/1 271/39/1 272/40/1
f 273/37/1 274/38/1 275/39/1 276/40/1
f 277/41/1 278/42/1 279/10/1 280/9/1
f 281/30/1 282/28/1 283/35/1 284/36/1
f 285/14/1 286/17/1 287/18/1 288/15/1
f 289/17/1 290/19/1 291/20/1 292/18/1
f 293/43/1 294/44/1 295/45/1 296/46/1
f 297/47/1 298/48/1 299/49/1 300/50/1
f 301/47/1 302/48/1 303/49/1 304/50/1
f 305/47/1 306/48/1 307/49/1 308/50/1
f 309/48/1 310/43/1 311/46/1 312/49/1
f 313/43/1 314/44/1 315/45/1 316/46/1
f 317/51/1 318/47/1 319/50/1 320/52/1
f 321/47/1 322/48/1 323/49/1 324/50/1
f 325/48/1 326/43/1 327/46/1 328/49/1
f 329/43/1 330/44/1 331/45/1 332/46/1
f 333/51/1 334/47/1 335/50/1 336/52/1
f 337/1/1 338/2/1 339/3/1 340/4/1
f 341/13/1 342/14/1 343/15/1 344/16/1
f 345/14/1 346/17/1 347/18/1 348/15/1
f 349/17/1 350/19/1 351/20/1 352/18/1
f 353/14/1 354/17/1 355/18/1 356/15/1
f 357/17/1 358/19/1 359/20/1 360/18/1
f 361/21/1 362/22/1 363/23/1 364/24/1
f 365/22/1 366/53/1 367/54/1 368/23/1
f 369/30/1 370/28/1 371/35/1 372/36/1
f 373/13/1 374/14/1 375/15/1 376/16/1
f 377/14/1 378/17/1 379/18/1 380/15/1
f 381/30/1 382/28/1 383/35/1 384/36/1
f 385/30/1 386/28/1 387/35/1 388/36/1
f 389/30/1 390/28/1 391/35/1 392/36/1
f 393/13/1 394/14/1 395/15/1 396/16/1
f 397/14/1 398/17/1 399/18/1 400/15/1
f 401/30/1 402/28/1 403/35/1 404/36/1
f 405/14/1 406/17/1 407/18/1 408/15/1
f 409/17/1 410/19/1 411/20/1 412/18/1
f 413/14/1 414/17/1 415/18/1 416/15/1
f 417/17/1 418/19/1 419/20/1 420/18/1
f 421/21/1 422/22/1 423/23/1 424/24/1
f 425/22/1 426/53/1 427/54/1 428/23/1
f 429/30/1 430/28/1 431/35/1 432/36/1
f 433/13/1 434/14/1 435/15/1 436/16/1
f 437/14/1 438/17/1 439/18/1 440/15/1
f 441/30/1 442/28/1 443/35/1 444/36/1
f 445/13/1 446/14/1 447/15/1 448/16/1
f 449/13/1 450/14/1 451/15/1 452/16/1
f 453/30/1 454/28/1 455/35/1 456/36/1
f 457/28/1 458/27/1 459/55/1 460/35/1
f 461/13/1 462/14/1 463/15/1 464/16/1
f 465/14/1 466/17/1 467/18/1 468/15/1
f 469/17/1 470/19/1 471/20/1 472/18/1
f 473/14/1 474/17/1 475/18/1 476/15/1
f 477/17/1 478/19/1 479/20/1 480/18/1
f 481/14/1 482/17/1 483/18/1 484/15/1
f 485/17/1 486/19/1 487/20/1 488/18/1
f 489/14/1 490/17/1 491/18/1 492/15/1
f 493/17/1 494/19/1 495/20/1 496/18/1

